<svg xmlns="http://www.w3.org/2000/svg" width="90" height="28" viewBox="0 0 90 28">
    <path fill="#EEEFF1" fill-rule="nonzero" d="M42.017 5.268l3.059.013c.3 0 .589.102.864.305.274.203.453.456.536.758l2.039 6.625c.508 1.625 1.024 2.75 1.548 3.375s1.143.937 1.86.937l3.096-10.937c.083-.302.246-.555.49-.758.243-.203.516-.305.817-.305h3.283c.259 0 .45.084.575.25.125.167.187.305.187.414 0 .11-.01.2-.031.274l-4.077 14.593c-.726 2.584-1.626 4.428-2.7 5.532C52.49 27.448 51.109 28 49.418 28l-.65-.003c-1.35-.015-2.33-.076-2.936-.184-.7-.126-1.139-.28-1.315-.461a.883.883 0 0 1-.265-.633V25a.96.96 0 0 1 .265-.695.91.91 0 0 1 .684-.274h.576l2.038.266c1.239 0 2.16-.773 2.767-2.318.053-.134-2.201.043-4.105-2.34-1.903-2.385-2.022-3.157-2.872-5.886l-2.319-7.547a.824.824 0 0 1-.046-.29c0-.109.065-.241.194-.398.13-.156.324-.24.584-.25zm27.799-.3c2.468 0 4.45.555 5.943 1.665C77.253 7.743 78 9.458 78 11.78v9.672c0 .281-.088.51-.265.688a.924.924 0 0 1-.684.265h-3.003a.91.91 0 0 1-.685-.273.94.94 0 0 1-.264-.68v-.484c-1.64 1.177-3.53 1.763-5.672 1.758-2.142-.006-3.903-.487-5.282-1.446-1.37-.958-2.054-2.312-2.054-4.062 0-1.75.687-3.094 2.062-4.032 1.374-.937 3.145-1.406 5.313-1.406h5.15c0-1.219-.254-2.067-.762-2.547-.508-.479-1.398-.718-2.668-.718-1.186 0-2.043.274-2.569.823l-.108.122c-.513.63-2.13.416-3.573.138-1.442-.278-1.536-1.014-1.407-1.397.724-2.156 3.487-3.233 8.287-3.233zm-60.714 0c2.853 0 5.078.748 6.675 2.243 1.598 1.495 2.397 3.638 2.397 6.43v.89c0 .282-.091.513-.273.696a.936.936 0 0 1-.692.273H5.493c.103 1.281.469 2.214 1.096 2.797.628.583 1.632.875 3.011.875 1.38 0 2.324-.313 2.832-.938s1.482-.529 2.984-.318c1.503.21 1.841 1.005 1.793 1.256-.477 2.46-2.973 3.556-8.122 3.547-2.863 0-5.093-.76-6.69-2.282C.798 18.918 0 16.727 0 13.867c0-2.86.804-5.057 2.412-6.594C4.02 5.737 6.25 4.97 9.102 4.97zM25.471 0c.27 0 .495.091.677.273a.944.944 0 0 1 .272.696v6.265c1.784-1.51 3.685-2.265 5.703-2.265 2.017 0 3.659.617 4.924 1.851 1.266 1.235 1.899 3.123 1.899 5.664v8.97a.936.936 0 0 1-.965.953h-3.47a.917.917 0 0 1-.677-.274.925.925 0 0 1-.272-.68v-8.969c0-2.49-.99-3.25-2.972-3.25-1.297 0-2.687 1.332-4.17 2.822v9.397c0 .271-.09.498-.272.68a.917.917 0 0 1-.677.273h-3.485a.917.917 0 0 1-.677-.273.925.925 0 0 1-.272-.68V.97c0-.282.09-.513.272-.696A.917.917 0 0 1 21.986 0h3.485zm47.145 15.328H67.84c-.726 0-1.3.177-1.72.531-.42.355-.63.813-.63 1.375 0 .563.218 1.026.654 1.391.435.365 1.052.547 1.851.547 1.484 0 2.918-.404 4.303-1.213l.318-.193v-2.438zM86 6a4 4 0 1 1 0 8 4 4 0 0 1 0-8zM9.095 8.516c-2.298 0-3.51 1.229-3.634 3.687h7.236c-.104-2.458-1.305-3.687-3.602-3.687z"/>
</svg>
