<svg xmlns="http://www.w3.org/2000/svg" width="34" height="26" viewBox="0 0 34 26">
    <g fill="none" fill-rule="evenodd">
        <path d="M0 0L40 0 40 40 0 40z" transform="translate(-3 -6)"/>
        <path fill="#1565D8" d="M36.8 17.6H3.2v-8c0-1.767 1.433-3.2 3.2-3.2h27.2c1.767 0 3.2 1.433 3.2 3.2v8zm-20-4.8h6.415c.441 0 .8-.358.8-.8 0-.442-.359-.8-.8-.8H16.8c-.442 0-.8.358-.8.8 0 .442.358.8.8.8zM36.8 19.2v1.6c0 1.767-1.433 3.2-3.2 3.2H6.4c-1.767 0-3.2-1.433-3.2-3.2v-1.6h33.6z" transform="translate(-3 -6)"/>
        <path fill="#1565D8" d="M14.274 27.772c.286-.509.985-.717 1.562-.465.576.252.812.87.526 1.378l-1.539 2.743c-.286.509-.985.717-1.561.465-.577-.252-.813-.87-.527-1.378l1.54-2.743zm-6.213 0c.285-.509.984-.717 1.56-.465.577.252.813.87.528 1.378l-1.54 2.743c-.285.509-.984.717-1.56.465-.577-.252-.813-.87-.528-1.378l1.54-2.743zm15.552.92c-.29-.507-.059-1.126.515-1.382.575-.255 1.276-.052 1.565.455l1.568 2.743c.29.507.06 1.126-.515 1.382-.575.255-1.275.052-1.565-.455l-1.568-2.743zm-4.785-.467c0-.566.521-1.025 1.165-1.025.643 0 1.165.459 1.165 1.025v2.75c0 .566-.522 1.025-1.165 1.025-.644 0-1.165-.459-1.165-1.025v-2.75zm10.999.467c-.29-.507-.06-1.126.515-1.382.575-.255 1.275-.052 1.565.455l1.568 2.743c.29.507.059 1.126-.516 1.382-.574.255-1.275.052-1.565-.455l-1.567-2.743z" opacity=".3" transform="translate(-3 -6)"/>
    </g>
</svg>
