<?xml version="1.0" encoding="UTF-8"?>
<svg width="48px" height="48px" viewBox="0 0 48 48" version="1.1" xmlns="http://www.w3.org/2000/svg" xmlns:xlink="http://www.w3.org/1999/xlink">
    <!-- Generator: Sketch 62 (91390) - https://sketch.com -->
    <title>bag</title>
    <desc>Created with Sketch.</desc>
    <g id="bag" stroke="none" stroke-width="1" fill="none" fill-rule="evenodd">
        <rect id="Base" x="0" y="0" width="48" height="48"></rect>
        <path d="M32.0952381,11.1428243 C32.0952381,8.77590057 30.1764585,6.85712974 27.8095238,6.85712974 L20.1904762,6.85712974 C17.8235415,6.85712974 15.9047619,8.77590057 15.9047619,11.1428243 L15.9047619,13.5237658 L32.0952381,13.5237658 L32.0952381,11.1428243 Z M20.1904762,4 L27.8095238,4 C31.7544149,4 34.952381,7.19795139 34.952381,11.1428243 L34.952381,16.3808955 L13.047619,16.3808955 L13.047619,11.1428243 C13.047619,7.19795139 16.2455851,4 20.1904762,4 Z" id="path" fill="#B4CCEF" fill-rule="nonzero"></path>
        <path d="M43.3862978,27.1638107 L41.0908897,38.6407988 C40.4676574,41.7569458 37.7315586,44 34.5536852,44 L13.4466821,44 C10.2688087,44 7.53270991,41.7569458 6.90947764,38.6407988 L4.61412013,27.164064 C9.77211562,30.2892062 15.3372965,32.0641066 21.2740484,32.4773023 C21.6385071,33.6358286 22.7211309,34.4760505 24,34.4760505 C25.2788691,34.4760505 26.3614929,33.6358286 26.7259516,32.4773023 C32.6628638,32.0640954 38.228185,30.2891103 43.3862978,27.1638107 Z M37.3333333,13.5237658 C41.0152317,13.5237658 44,16.5085204 44,20.1904019 L44,23.9999082 C44,24.3208376 43.838365,24.6201851 43.5700236,24.7962229 C38.3622891,28.21261 32.720514,30.1396618 26.6594471,30.5725146 C26.2419124,29.5122041 25.2085908,28.7617911 24,28.7617911 C22.7914092,28.7617911 21.7580876,29.5122041 21.3405529,30.5725146 C15.279486,30.1396618 9.63771087,28.21261 4.42997638,24.7962229 C4.16163501,24.6201851 4,24.3208376 4,23.9999082 L4,20.1904019 C4,16.5085204 6.98476833,13.5237658 10.6666667,13.5237658 L37.3333333,13.5237658 Z" id="path" fill="#1565D8"></path>
    </g>
</svg>