<svg xmlns="http://www.w3.org/2000/svg" width="30" height="33" viewBox="0 0 30 33">
    <g fill="none" fill-rule="evenodd">
        <path d="M0 0L40 0 40 40 0 40z" transform="translate(-5 -4)"/>
        <path fill="#1565D8" d="M19.2 21.588h-1.591c-.442 0-.8.358-.8.8 0 .442.358.8.8.8h4.796c.442 0 .8-.358.8-.8 0-.442-.358-.8-.8-.8H20.8V11.4c0-.7-.836-1.063-1.347-.584l-2 1.873c-.322.303-.339.809-.037 1.131.302.323.808.34 1.13.037l.654-.612v8.343zM20 29.6c-7.07 0-12.8-5.73-12.8-12.8S12.93 4 20 4s12.8 5.73 12.8 12.8S27.07 29.6 20 29.6z" transform="translate(-5 -4)"/>
        <path fill="#1565D8" d="M31.52 25.442l3.087 5.347c.272.471.004 1.071-.53 1.183l-4.687.982-3.194 3.568c-.363.406-1.017.338-1.289-.133l-3.063-5.306c3.948-.505 7.397-2.608 9.676-5.641zm-22.908.173c2.321 2.994 5.798 5.048 9.76 5.494l-3.034 5.255c-.272.472-.925.54-1.288.134l-3.195-3.569-4.687-.982c-.533-.111-.801-.711-.529-1.183l2.973-5.15z" opacity=".3" transform="translate(-5 -4)"/>
    </g>
</svg>
