<?xml version="1.0" encoding="UTF-8"?>
<svg width="48px" height="48px" viewBox="0 0 48 48" version="1.1" xmlns="http://www.w3.org/2000/svg" xmlns:xlink="http://www.w3.org/1999/xlink">
    <!-- Generator: Sketch 62 (91390) - https://sketch.com -->
    <title>blood-donation</title>
    <desc>Created with Sketch.</desc>
    <g id="blood-donation" stroke="none" stroke-width="1" fill="none" fill-rule="evenodd">
        <rect id="Base" x="0" y="0" width="48" height="48"></rect>
        <path d="M8.8544475,38.5584416 L8.8544475,24.0815276 L11.0979452,22.0792704 C12.5894946,20.7053802 14.7634197,20.4009756 16.5681401,21.3133044 L21.9299765,24.025744 C23.5440887,24.7251485 24.291801,26.6150798 23.6000386,28.2470237 C23.4872465,28.5131127 23.3419658,28.7575394 23.1703006,28.9767076 L27.3573566,29.8239317 L39.3569226,26.0681143 C41.2781123,25.4994394 43.2915092,26.6130748 43.8539704,28.5554885 C44.1471728,29.5680393 43.9945203,30.6592296 43.4350371,31.5499058 C42.9838685,32.2680403 42.6004269,32.7650828 42.2427442,33.0663296 C41.4838324,33.7054986 38.0746247,37.0676704 30.4708149,41.7620782 C29.2119618,42.5392899 27.6730041,42.6992704 26.2840553,42.1973154 L16.2150049,38.5584416 L8.8544475,38.5584416 Z" id="Path" fill="#1565D8"></path>
        <path d="M7.41679887,18.3246753 C8.22553283,18.3246753 8.88114124,18.9875265 8.88114124,19.8051948 L8.88114124,41.5194805 C8.88114124,42.3371489 8.22553283,43 7.41679887,43 L5.46434237,43 C4.65560841,43 4,42.3371489 4,41.5194805 C4,40.7018122 4.65560841,40.038961 5.46434237,40.038961 L5.9524565,40.038961 L5.9524565,21.2857143 L5.46434237,21.2857143 C4.65560841,21.2857143 4,20.6228631 4,19.8051948 C4,18.9875265 4.65560841,18.3246753 5.46434237,18.3246753 L7.41679887,18.3246753 Z M32.0502203,5.34622825 C36.0917456,10.1334782 38.141295,14.2778611 38.141295,17.8311688 C38.141295,22.7689675 35.7319812,24.7402597 31.3076972,24.7402597 C26.8834133,24.7402597 24.4740995,22.7689675 24.4740995,17.8311688 C24.4740995,14.2778611 26.5236488,10.1334782 30.5651741,5.34622825 C30.9549011,4.88459058 31.6604934,4.88459058 32.0502203,5.34622825 Z" id="Path" fill="#B4CCEF" fill-rule="nonzero"></path>
    </g>
</svg>