<?xml version="1.0" encoding="UTF-8"?>
<svg width="48px" height="48px" viewBox="0 0 48 48" version="1.1" xmlns="http://www.w3.org/2000/svg" xmlns:xlink="http://www.w3.org/1999/xlink">
    <!-- Generator: Sketch 62 (91390) - https://sketch.com -->
    <title>bootstrap</title>
    <desc>Created with Sketch.</desc>
    <g id="bootstrap" stroke="none" stroke-width="1" fill="none" fill-rule="evenodd">
        <polygon id="Path" points="0 0 48 0 48 48 0 48"></polygon>
        <path d="M38,4 C41.3137085,4 44,6.6862915 44,10 L44,38 C44,41.3137085 41.3137085,44 38,44 L10,44 C6.6862915,44 4,41.3137085 4,38 L4,10 C4,6.6862915 6.6862915,4 10,4 L38,4 Z M25.3970587,12 L14,12 L14,36.21875 L25.736257,36.21875 C26.8216966,36.21875 27.8788537,36.083072 28.90776,35.8117122 C29.9366662,35.5403523 30.8524922,35.122012 31.6552652,34.5566789 C32.4580383,33.9913458 33.0968552,33.262077 33.571735,32.3688506 C34.0466147,31.4756244 34.2840511,30.4184672 34.2840511,29.1973477 C34.2840511,27.6822548 33.9165902,26.3876614 33.181657,25.3135286 C32.4467239,24.2393956 31.3330344,23.4875137 29.840555,23.0578606 C30.9259945,22.5377542 31.7457153,21.8706711 32.2997417,21.0565914 C32.8537683,20.2425117 33.1307773,19.2249273 33.1307773,18.0038078 C33.1307773,16.8731415 32.9442202,15.9233961 32.5711003,15.1545431 C32.1979805,14.38569 31.6722286,13.7694862 30.9938287,13.305913 C30.3154291,12.8423398 29.5013616,12.5087983 28.5516019,12.3052784 C27.6018422,12.1017584 26.5503384,12 25.3970587,12 Z M25.1257003,25.432248 C26.2789798,25.432248 27.2061123,25.6979505 27.9071253,26.2293636 C28.6081384,26.7607767 28.9586397,27.6483364 28.9586397,28.8920694 C28.9586397,29.5252425 28.851228,30.0453411 28.6364014,30.4523809 C28.4215748,30.8594208 28.1332592,31.1816558 27.7714461,31.4190958 C27.4096328,31.6565356 26.9912927,31.8261331 26.5164128,31.927893 C26.041533,32.029653 25.5440473,32.0805322 25.0239408,32.0805322 L19.3254114,32.0805322 L19.3254114,25.432248 L25.1257003,25.432248 Z M24.3116247,16.1382178 C24.7865045,16.1382178 25.2444175,16.1777905 25.6853773,16.2569372 C26.1263372,16.3360838 26.5164111,16.477415 26.8556109,16.6809349 C27.1948109,16.8844548 27.4661667,17.1671171 27.6696866,17.5289303 C27.8732066,17.8907435 27.974965,18.3543097 27.974965,18.9196429 C27.974965,19.9372425 27.6696897,20.6721645 27.0591298,21.1244311 C26.4485702,21.5766975 25.6684222,21.8028273 24.7186625,21.8028273 L19.3254114,21.8028273 L19.3254114,16.1382178 L24.3116247,16.1382178 Z" id="Combined-Shape" fill="#1565D8"></path>
    </g>
</svg>