<svg xmlns="http://www.w3.org/2000/svg" width="32" height="31" viewBox="0 0 32 31">
    <g fill="none" fill-rule="evenodd">
        <path d="M0 0L36 0 36 36 0 36z" transform="translate(-2 -4)"/>
        <path fill="#1565D8" d="M24.355 12.125c-.533-.267-.749-.916-.482-1.45l2.884-5.758c.267-.534.915-.75 1.448-.482.533.267.749.916.482 1.449l-2.883 5.759c-.267.533-.916.749-1.449.482zM7.313 5.884c-.267-.533-.052-1.182.481-1.45.533-.267 1.182-.05 1.45.483l2.882 5.758c.267.534.051 1.183-.482 1.45-.533.267-1.181.051-1.448-.482l-2.883-5.76zM9.72 17.279c.596 0 1.08.483 1.08 1.08 0 .596-.483 1.08-1.08 1.08H8.278c-2.186 0-3.958-1.772-3.958-3.959 0-.596.484-1.08 1.08-1.08.596 0 1.08.484 1.08 1.08 0 .994.805 1.8 1.798 1.8l1.444-.001zm19.8-1.799c0-.596.483-1.08 1.08-1.08.596 0 1.079.484 1.079 1.08 0 2.187-1.772 3.96-3.959 3.96l-1.443-.001c-.597 0-1.08-.484-1.08-1.08 0-.597.484-1.08 1.08-1.08h1.444c.994 0 1.799-.805 1.799-1.799zm-3.243 8.99c-.596 0-1.08-.483-1.08-1.08 0-.596.483-1.08 1.08-1.08h1.444c2.981 0 5.397 2.418 5.397 5.4 0 .596-.483 1.08-1.08 1.08-.596 0-1.079-.484-1.079-1.08 0-1.79-1.45-3.24-3.238-3.24h-1.444zM5.04 27.71c0 .596-.483 1.08-1.08 1.08-.596 0-1.079-.484-1.079-1.08 0-2.983 2.416-5.4 5.398-5.4h1.444c.596 0 1.079.484 1.079 1.08 0 .597-.484 1.08-1.08 1.08H8.277c-1.788 0-3.238 1.45-3.238 3.24z" opacity=".3" transform="translate(-2 -4)"/>
        <path fill="#1565D8" d="M18 7.2c5.17 0 9.36 4.19 9.36 9.36v7.881c0 1.689.396 3.354 1.157 4.862l1.646 3.267c.208.411-.02.91-.467 1.022l-2.746.69c-2.167.545-4.459.278-6.443-.749-1.574-.815-3.446-.82-5.024-.013-2.037 1.041-4.351 1.3-6.537.744l-2.643-.673c-.446-.113-.673-.61-.466-1.021l1.647-3.267c.76-1.508 1.156-3.173 1.156-4.862V16.56c0-5.17 4.191-9.36 9.36-9.36zm0 15.84c2.784 0 5.04-2.256 5.04-5.04 0-2.784-2.256-5.04-5.04-5.04-2.784 0-5.04 2.256-5.04 5.04 0 2.784 2.256 5.04 5.04 5.04zm0-1.44c-1.988 0-3.6-1.612-3.6-3.6s1.612-3.6 3.6-3.6 3.6 1.612 3.6 3.6-1.612 3.6-3.6 3.6zm0-2.88c.398 0 .72-.322.72-.72 0-.398-.322-.72-.72-.72-.398 0-.72.322-.72.72 0 .398.322.72.72.72zm-4.773 8.48c1.318 1.067 2.918 1.6 4.773 1.6 1.855 0 3.455-.533 4.773-1.6.31-.25.357-.704.107-1.013-.25-.31-.704-.357-1.013-.107-1.054.854-2.333 1.28-3.867 1.28-1.534 0-2.813-.426-3.867-1.28-.309-.25-.762-.202-1.013.107-.25.309-.202.762.107 1.013z" transform="translate(-2 -4)"/>
    </g>
</svg>
