<?xml version="1.0" encoding="UTF-8"?>
<svg width="48px" height="48px" viewBox="0 0 48 48" version="1.1" xmlns="http://www.w3.org/2000/svg" xmlns:xlink="http://www.w3.org/1999/xlink">
    <!-- Generator: Sketch 62 (91390) - https://sketch.com -->
    <title>call</title>
    <desc>Created with Sketch.</desc>
    <g id="call" stroke="none" stroke-width="1" fill="none" fill-rule="evenodd">
        <rect id="Base" x="0" y="0" width="48" height="48"></rect>
        <path d="M18.1055767,22.2420563 L24.7337112,29.2362901 C25.4523027,29.9945724 26.7537778,30.1028324 28.2036649,29.3883074 C31.8935782,27.8584949 33.1212822,27.4855436 33.8221555,28.2251291 L41.4412382,36.2650454 C42.3418703,37.2154231 42.1015134,38.7984418 41.0943886,39.8611942 C35.864831,45.3796019 27.3648683,45.3796019 22.1353107,39.8611942 L7.90251666,24.8422639 C2.69916111,19.3515054 2.69916111,10.4684692 7.90251666,4.97771069 C8.93089489,3.89253085 10.5101667,3.62552233 11.4447278,4.61170314 L19.0638105,12.6516195 C19.7241959,13.3484807 19.3701007,14.6464348 17.9282833,18.5137298 C17.2580143,20.0233205 17.3654132,21.4610105 18.1055767,22.2420563 Z" id="Path" fill="#1565D8" fill-rule="nonzero"></path>
    </g>
</svg>