<?xml version="1.0" encoding="UTF-8"?>
<svg width="48px" height="48px" viewBox="0 0 48 48" version="1.1" xmlns="http://www.w3.org/2000/svg" xmlns:xlink="http://www.w3.org/1999/xlink">
    <!-- Generator: Sketch 62 (91390) - https://sketch.com -->
    <title>car</title>
    <desc>Created with Sketch.</desc>
    <g id="car" stroke="none" stroke-width="1" fill="none" fill-rule="evenodd">
        <rect id="Base" x="0" y="0" width="48" height="48"></rect>
        <path d="M28.829418,34.375 L19.170582,34.375 C18.7084586,31.1947242 15.9299732,28.75 12.5714286,28.75 C9.25915696,28.75 6.51107105,31.1278229 5.99269069,34.2439726 C4.83729364,33.8833717 4,32.8191883 4,31.5625 L4,24.5051275 C4,22.7296334 5.01905893,21.1065251 6.63231621,20.3125 L8.11711147,19.375 L34.0630385,19.375 L40.1719816,20.6652927 C41.6364895,20.9536177 42.8310158,21.8850808 43.476832,23.125 L41.1428571,23.125 C39.5649007,23.125 38.2857143,24.3841991 38.2857143,25.9375 C38.2857143,27.4908009 39.5649007,28.75 41.1428571,28.75 L44,28.75 L44,31.5625 C44,32.8191883 43.1627064,33.8833717 42.0073093,34.2439726 C41.488929,31.1278229 38.740843,28.75 35.4285714,28.75 C32.0700268,28.75 29.2915414,31.1947242 28.829418,34.375 L28.829418,34.375 Z M32.9201813,17.5 L21.1428571,17.5 L21.1428571,10 L25.6526081,10 C27.3252883,10 28.8753208,10.8639008 29.7359077,12.2758011 L32.9201813,17.5 Z M8.87901623,17.5 L10.7292842,12.9466062 C11.452443,11.1669576 13.203437,10 15.1506018,10 L19.2380952,10 L19.2380952,17.5 L8.87901623,17.5 Z M44,25.2617646 L44,26.875 L41.1428571,26.875 C40.6168717,26.875 40.1904762,26.455267 40.1904762,25.9375 C40.1904762,25.419733 40.6168717,25 41.1428571,25 L43.992645,25 C43.9975286,25.0867283 44,25.1740069 44,25.2617646 Z M24,25 L25.9047619,25 C26.4307474,25 26.8571429,24.580267 26.8571429,24.0625 C26.8571429,23.544733 26.4307474,23.125 25.9047619,23.125 L24,23.125 C23.4740145,23.125 23.047619,23.544733 23.047619,24.0625 C23.047619,24.580267 23.4740145,25 24,25 Z" id="Path" fill="#1565D8"></path>
        <path d="M35.4285714,30.625 C38.0584988,30.625 40.1904762,32.7236652 40.1904762,35.3125 C40.1904762,37.9013348 38.0584988,40 35.4285714,40 C32.798644,40 30.6666667,37.9013348 30.6666667,35.3125 C30.6666667,32.7236652 32.798644,30.625 35.4285714,30.625 Z M12.5714286,30.625 C15.201356,30.625 17.3333333,32.7236652 17.3333333,35.3125 C17.3333333,37.9013348 15.201356,40 12.5714286,40 C9.94150119,40 7.80952381,37.9013348 7.80952381,35.3125 C7.80952381,32.7236652 9.94150119,30.625 12.5714286,30.625 Z" id="Path" fill="#B4CCEF" fill-rule="nonzero"></path>
    </g>
</svg>