<?xml version="1.0" encoding="UTF-8"?>
<svg width="24px" height="24px" viewBox="0 0 24 24" version="1.1" xmlns="http://www.w3.org/2000/svg" xmlns:xlink="http://www.w3.org/1999/xlink">
    <!-- Generator: Sketch 55.2 (78181) - https://sketchapp.com -->
    <title>Icon</title>
    <desc>Created with Sketch.</desc>
    <g id="Lapa" stroke="none" stroke-width="1" fill="none" fill-rule="evenodd">
        <g id="Rent" transform="translate(-350.000000, -588.000000)">
            <g id="Hero" transform="translate(24.000000, 100.000000)">
                <g id="Left" transform="translate(126.000000, 128.000000)">
                    <g id="Item" transform="translate(200.000000, 360.000000)">
                        <g id="Icon">
                            <circle id="Oval" fill="#36B37E" cx="12" cy="12" r="12"></circle>
                            <path d="M10.3984294,15.8242192 L7.13671842,12.5820394 C7.04557271,12.4908937 7,12.3737065 7,12.2304777 C7,12.087249 7.04557271,11.9700618 7.13671842,11.8789161 L7.85937295,11.1757928 C7.95051867,11.0716264 8.06445059,11.0195491 8.20116901,11.0195491 C8.33788744,11.0195491 8.45832996,11.0716264 8.56249627,11.1757928 L10.7499911,13.3632875 L15.4374799,8.67579871 C15.5416462,8.57163239 15.6620887,8.51954908 15.7988071,8.51954908 C15.9355256,8.51954908 16.0494575,8.57163239 16.1406032,8.67579871 L16.8632577,9.37892204 C16.9544034,9.47006775 16.9999762,9.58725497 16.9999762,9.7304837 C16.9999762,9.87371242 16.9544034,9.99089964 16.8632577,10.0820454 L11.1015527,15.8242192 C11.010407,15.9283855 10.8932198,15.9804688 10.7499911,15.9804688 C10.6067623,15.9804688 10.4895751,15.9283855 10.3984294,15.8242192 Z" id="c" fill="#FFFFFF" fill-rule="nonzero"></path>
                        </g>
                    </g>
                </g>
            </g>
        </g>
    </g>
</svg>