<?xml version="1.0" encoding="UTF-8"?>
<svg width="48px" height="48px" viewBox="0 0 48 48" version="1.1" xmlns="http://www.w3.org/2000/svg" xmlns:xlink="http://www.w3.org/1999/xlink">
    <!-- Generator: Sketch 62 (91390) - https://sketch.com -->
    <title>cs</title>
    <desc>Created with Sketch.</desc>
    <g id="cs" stroke="none" stroke-width="1" fill="none" fill-rule="evenodd">
        <rect id="Base" x="0" y="0" width="48" height="48"></rect>
        <path d="M12.7897643,17.0839488 C21.1829392,18.2747206 27.7477525,15.1992593 32.3193525,7.8988804 C32.3422669,7.86228832 32.3632251,7.82476493 32.3822505,7.78647412 C34.1415961,9.77671332 35.2102357,12.3978167 35.2102357,15.2698413 L35.2102357,19.3968254 C35.2102357,23.5678204 32.9352476,27.3175389 29.4085176,29.2709372 C28.9490125,28.9500109 28.3908117,28.7619048 27.7889088,28.7619048 C26.2192981,28.7619048 24.9468772,30.0410912 24.9468772,31.6190476 C24.9468772,33.197004 26.2192981,34.4761905 27.7889088,34.4761905 C28.5838339,34.4761905 29.3025331,34.1480934 29.8183258,33.6192535 C29.0497843,36.0463791 26.7353239,37.8095238 23.9995333,37.8095238 C20.6386657,37.8095238 17.9136553,35.148645 17.9094705,31.8647181 L18.808095,29.3878224 C15.1581824,27.4698101 12.7897643,23.6526066 12.7897643,19.3968254 L12.7897643,17.0839488 L12.7897643,17.0839488 Z M12.8119798,14.5545355 C13.1789981,8.66365117 18.0477525,4 24,4 C26.5087098,4 28.8249488,4.82844744 30.6927927,6.22805739 C30.6354305,6.28740257 30.5826844,6.35464118 30.53578,6.42954273 C26.4213805,12.9998192 20.6060956,15.6974382 12.9221614,14.564445 C12.8852083,14.5589963 12.8484485,14.555722 12.8119798,14.5545355 L12.8119798,14.5545355 Z M15.5693704,33.1113743 C16.1882639,37.1186914 19.7268739,40.1904762 23.9995333,40.1904762 C28.2730694,40.1904762 31.8122547,37.1174308 32.4300768,33.1089078 L36.9728899,34.0297863 C38.7774622,34.3837027 40.2152946,35.7554729 40.6612184,37.5486522 L41.971248,42.8166327 C42.1207263,43.4177249 41.6685041,44 41.0521895,44 L6.94781052,44 C6.33149594,44 5.87927374,43.4177249 6.02875198,42.8166327 L7.33708623,37.5554697 C7.78410037,35.757906 9.22771375,34.3842352 11.0285013,34.0360369 L15.5693704,33.1113743 L15.5693704,33.1113743 Z" id="Path" fill="#1565D8"></path>
        <path d="M27.7889088,32.5714286 C27.2657052,32.5714286 26.8415649,32.1450331 26.8415649,31.6190476 C26.8415649,31.0930621 27.2657052,30.6666667 27.7889088,30.6666667 C28.3121123,30.6666667 28.7362526,31.0930621 28.7362526,31.6190476 C28.7362526,32.1450331 28.3121123,32.5714286 27.7889088,32.5714286 Z M36.9908485,13.5238095 L37.2623474,13.5238095 C38.8319581,13.5238095 40.104379,14.802996 40.104379,16.3809524 L40.104379,20.1904762 C40.104379,21.7684326 38.8319581,23.047619 37.2623474,23.047619 L36.5929187,23.047619 C36.9279561,21.8788358 37.1049234,20.6520624 37.1049234,19.3968254 L37.1049234,15.2698413 C37.1049234,14.6779014 37.0660913,14.0950794 36.9908485,13.5238095 Z M11.4070813,23.047619 L10.7367193,23.047619 C9.1671086,23.047619 7.89468772,21.7684326 7.89468772,20.1904762 L7.89468772,16.3809524 C7.89468772,14.802996 9.1671086,13.5238095 10.7367193,13.5238095 L11.0091515,13.5238095 C10.9339087,14.0950794 10.8950766,14.6779014 10.8950766,15.2698413 L10.8950766,19.3968254 C10.8950766,20.6520624 11.0720439,21.8788358 11.4070813,23.047619 Z" id="Shape" fill="#B4CCEF" fill-rule="nonzero"></path>
    </g>
</svg>