<svg xmlns="http://www.w3.org/2000/svg" width="30" height="30" viewBox="0 0 30 30">
    <g fill="none" fill-rule="evenodd">
        <path d="M0 0L36 0 36 36 0 36z" transform="translate(-2 -2)"/>
        <path fill="#1565D8" d="M23.04 16.957L9.165 30.602c-1.438 1.437-3.769 1.437-5.206 0-1.438-1.438-1.438-3.769-.005-5.202l13.65-13.88 5.436 5.437z" transform="translate(-2 -2)"/>
        <path fill="#1565D8" d="M25.34 3.968c1.45-1.45 3.802-1.45 5.252 0 1.45 1.45 1.45 3.802 0 5.252l-2.667 2.667.55.55c.866.865.866 2.27 0 3.135l-1.059 1.059c-.865.865-2.27.865-3.135 0l-6.352-6.352c-.865-.866-.865-2.27 0-3.135l1.059-1.059c.866-.866 2.27-.866 3.135 0l.55.55 2.667-2.667z" opacity=".3" transform="translate(-2 -2)"/>
    </g>
</svg>
