<svg xmlns="http://www.w3.org/2000/svg" width="28" height="28" viewBox="0 0 28 28">
    <g fill="none" fill-rule="evenodd">
        <path d="M0 0L36 0 36 36 0 36z" transform="translate(-4 -4)"/>
        <path fill="#1565D8" d="M7.92 21.6c1.193 0 2.16.967 2.16 2.16v5.76c0 1.193-.967 2.16-2.16 2.16H6.48c-1.193 0-2.16-.967-2.16-2.16v-5.76c0-1.193.967-2.16 2.16-2.16h1.44zm7.2-5.76c1.193 0 2.16.967 2.16 2.16v11.52c0 1.193-.967 2.16-2.16 2.16h-1.44c-1.193 0-2.16-.967-2.16-2.16V18c0-1.193.967-2.16 2.16-2.16h1.44zm7.2-5.76c1.193 0 2.16.967 2.16 2.16v17.28c0 1.193-.967 2.16-2.16 2.16h-1.44c-1.193 0-2.16-.967-2.16-2.16V12.24c0-1.193.967-2.16 2.16-2.16h1.44z" transform="translate(-4 -4)"/>
        <path fill="#1565D8" d="M28.08 4.32h1.44c1.193 0 2.16.967 2.16 2.16v23.04c0 1.193-.967 2.16-2.16 2.16h-1.44c-1.193 0-2.16-.967-2.16-2.16V6.48c0-1.193.967-2.16 2.16-2.16z" opacity=".3" transform="translate(-4 -4)"/>
    </g>
</svg>
