<svg xmlns="http://www.w3.org/2000/svg" width="32" height="32" viewBox="0 0 32 32">
    <g fill="none" fill-rule="evenodd">
        <path d="M0 0L36 0 36 36 0 36z" transform="translate(-2 -2)"/>
        <path fill="#1565D8" d="M18.72 17.28v-2.16c0-.398-.322-.72-.72-.72-.398 0-.72.322-.72.72v2.16h-2.16c-.398 0-.72.322-.72.72 0 .398.322.72.72.72h2.16v2.16c0 .398.322.72.72.72.398 0 .72-.322.72-.72v-2.16h2.16c.398 0 .72-.322.72-.72 0-.398-.322-.72-.72-.72h-2.16zM7.92 2.88h20.16c2.784 0 5.04 2.256 5.04 5.04v20.16c0 2.784-2.256 5.04-5.04 5.04H7.92c-2.784 0-5.04-2.256-5.04-5.04V7.92c0-2.784 2.256-5.04 5.04-5.04zm.72 9.36V9.36c0-.398.322-.72.72-.72h2.88c.398 0 .72-.322.72-.72 0-.398-.322-.72-.72-.72H9.36c-1.193 0-2.16.967-2.16 2.16v2.88c0 .398.322.72.72.72.398 0 .72-.322.72-.72zm15.12-3.6h2.88c.398 0 .72.322.72.72v2.88c0 .398.322.72.72.72.398 0 .72-.322.72-.72V9.36c0-1.193-.967-2.16-2.16-2.16h-2.88c-.398 0-.72.322-.72.72 0 .398.322.72.72.72zM12.24 27.36H9.36c-.398 0-.72-.322-.72-.72v-2.88c0-.398-.322-.72-.72-.72-.398 0-.72.322-.72.72v2.88c0 1.193.967 2.16 2.16 2.16h2.88c.398 0 .72-.322.72-.72 0-.398-.322-.72-.72-.72zm15.12-3.6v2.88c0 .398-.322.72-.72.72h-2.88c-.398 0-.72.322-.72.72 0 .398.322.72.72.72h2.88c1.193 0 2.16-.967 2.16-2.16v-2.88c0-.398-.322-.72-.72-.72-.398 0-.72.322-.72.72z" transform="translate(-2 -2)"/>
    </g>
</svg>
