<?xml version="1.0" encoding="UTF-8"?>
<svg width="48px" height="48px" viewBox="0 0 48 48" version="1.1" xmlns="http://www.w3.org/2000/svg" xmlns:xlink="http://www.w3.org/1999/xlink">
    <!-- Generator: Sketch 62 (91390) - https://sketch.com -->
    <title>email</title>
    <desc>Created with Sketch.</desc>
    <g id="email" stroke="none" stroke-width="1" fill="none" fill-rule="evenodd">
        <rect id="Base" x="0" y="0" width="48" height="48"></rect>
        <g id="Group">
            <polygon id="path" points="0 0 48 0 48 48 0 48"></polygon>
            <path d="M44.32,18.9392018 L44.32,37.0002127 C44.32,40.7115662 41.3113535,43.7202127 37.6,43.7202127 L10.72,43.7202127 C7.00864648,43.7202127 4,40.7115662 4,37.0002127 L4,18.9392018 C4,18.001767 4.45973144,17.1239205 5.23058514,16.5874636 L10.1382163,13.1721168 C10.573399,12.869262 11.1716966,12.9765349 11.4745514,13.4117176 C11.7774062,13.8469002 11.6701333,14.4451978 11.2349506,14.7480527 L6.32731946,18.1633995 C6.0757637,18.3384636 5.92491995,18.6215711 5.92011821,18.9242943 C6.22035257,18.8181915 6.54343417,18.7604586 6.88,18.7604586 C7.39359809,18.7604586 7.89785266,18.8978032 8.34050981,19.1582598 L24.16,28.4663459 L39.9794902,19.1582598 C40.7419001,18.7096627 41.6262757,18.6520322 42.3998937,18.9250619 C42.3953349,18.6220497 42.2444489,18.3386116 41.9926805,18.1633995 L37.2255485,14.8458296 C36.7903659,14.5429748 36.6830929,13.9446772 36.9859478,13.5094946 C37.2888026,13.0743119 37.8871002,12.967039 38.3222828,13.2698938 L43.0894149,16.5874636 C43.8602686,17.1239205 44.32,18.001767 44.32,18.9392018 Z" id="path" fill="#1565D8"></path>
            <path d="M34,4 C36.6509668,4 38.8,6.1490332 38.8,8.8 L38.8,18.4 L24.4,27.04 L10,18.4 L10,8.8 C10,6.1490332 12.1490332,4 14.8,4 L34,4 Z M30.16,17.44 L18.64,17.44 C18.1098066,17.44 17.68,17.8698066 17.68,18.4 C17.68,18.9301934 18.1098066,19.36 18.64,19.36 L30.16,19.36 C30.6901934,19.36 31.12,18.9301934 31.12,18.4 C31.12,17.8698066 30.6901934,17.44 30.16,17.44 Z M30.16,11.68 L18.64,11.68 C18.1098066,11.68 17.68,12.1098066 17.68,12.64 C17.68,13.1701934 18.1098066,13.6 18.64,13.6 L30.16,13.6 C30.6901934,13.6 31.12,13.1701934 31.12,12.64 C31.12,12.1098066 30.6901934,11.68 30.16,11.68 Z" id="path" fill="#B8D0F3"></path>
        </g>
    </g>
</svg>