<?xml version="1.0" encoding="UTF-8"?>
<svg width="48px" height="48px" viewBox="0 0 48 48" version="1.1" xmlns="http://www.w3.org/2000/svg" xmlns:xlink="http://www.w3.org/1999/xlink">
    <!-- Generator: Sketch 62 (91390) - https://sketch.com -->
    <title>file</title>
    <desc>Created with Sketch.</desc>
    <g id="file" stroke="none" stroke-width="1" fill="none" fill-rule="evenodd">
        <rect id="Base" x="0" y="0" width="48" height="48"></rect>
        <path d="M11.7297466,9.775413 C11.6996398,10.0683709 11.6842105,10.3657074 11.6842105,10.6666667 L11.6842105,31.6190476 C11.6842105,36.3529169 15.5015721,40.1904762 20.2105263,40.1904762 L33.7828757,40.1904762 C32.7185415,42.442807 30.4349014,44 27.7894737,44 L12.6315789,44 C8.96905903,44 6,41.0152317 6,37.3333333 L6,16.3809524 C6,13.0065624 8.49382399,10.217718 11.7297466,9.775413 Z M34.4210526,4 C34.6599445,4.17057236 34.8752493,4.37563198 35.0586868,4.61116561 L42,13.5238095 L35.4532519,13.5238095 C34.883184,13.5238095 34.4210526,13.0713438 34.4210526,12.513199 L34.4210526,4 Z" id="Path" fill="#B4CCEF" fill-rule="nonzero"></path>
        <path d="M32.5263158,4 L32.5263158,12.5714286 C32.5263158,14.149385 33.7987697,15.4285714 35.3684211,15.4285714 L42,15.4285714 L42,31.6190476 C42,35.300946 39.030941,38.2857143 35.3684211,38.2857143 L20.2105263,38.2857143 C16.5480064,38.2857143 13.5789474,35.300946 13.5789474,31.6190476 L13.5789474,10.6666667 C13.5789474,6.98476833 16.5480064,4 20.2105263,4 L32.5263158,4 Z" id="Path" fill="#1565D8"></path>
    </g>
</svg>