<?xml version="1.0" encoding="UTF-8"?>
<svg width="48px" height="48px" viewBox="0 0 48 48" version="1.1" xmlns="http://www.w3.org/2000/svg" xmlns:xlink="http://www.w3.org/1999/xlink">
    <!-- Generator: Sketch 62 (91390) - https://sketch.com -->
    <title>font-awesome</title>
    <desc>Created with Sketch.</desc>
    <g id="font-awesome" stroke="none" stroke-width="1" fill="none" fill-rule="evenodd">
        <polygon id="Path" points="0 0 48 0 48 48 0 48"></polygon>
        <path d="M38,4 C41.3137085,4 44,6.6862915 44,10 L44,38 C44,41.3137085 41.3137085,44 38,44 L10,44 C6.6862915,44 4,41.3137085 4,38 L4,10 C4,6.6862915 6.6862915,4 10,4 L38,4 Z M14.7779948,12.0022327 C13.2545108,11.9412128 12,13.1388604 12,14.6249908 C12,15.5168521 12.4522414,16.3042975 13.1428571,16.7786782 L13.1428571,16.7786782 L13.1428571,34.8749995 C13.1428571,35.4963224 13.6545294,36 14.2857143,36 L14.2857143,36 L15.0476263,36 C15.6788039,36 16.1904762,35.4963224 16.1904762,34.8749995 L16.1904762,34.8749995 L16.1904762,30.4499793 C17.5385975,29.8845036 19.218192,29.4130068 21.6397414,29.4130068 C24.1915923,29.4130068 26.2990141,31.0434702 29.5072545,31.0434702 C31.8010138,31.0434702 33.6342541,30.2796911 35.3408203,29.1282777 C35.7542783,28.8493164 36,28.3861509 36,27.8927272 L36,27.8927272 L36,16.4974281 C36,15.4008548 34.8443545,14.6753906 33.8340309,15.1372743 C32.1988932,15.8848485 30.1933594,16.6304543 28.2650205,16.6304543 C25.7132161,16.6304543 23.6057478,15 20.3975074,15 C19.2091704,15 18.1447173,15.2054811 17.1572731,15.5630863 C17.2545108,15.3131472 17.3334263,14.8930115 17.3334263,14.6253112 L17.3334263,14.6253112 L17.328032,14.4586394 C17.2436756,13.1256768 16.1336031,12.0565235 14.7779948,12.0022327 Z" id="Shape" fill="#1565D8"></path>
    </g>
</svg>