<?xml version="1.0" encoding="UTF-8"?>
<svg width="48px" height="48px" viewBox="0 0 48 48" version="1.1" xmlns="http://www.w3.org/2000/svg" xmlns:xlink="http://www.w3.org/1999/xlink">
    <!-- Generator: Sketch 62 (91390) - https://sketch.com -->
    <title>home</title>
    <desc>Created with Sketch.</desc>
    <g id="home" stroke="none" stroke-width="1" fill="none" fill-rule="evenodd">
        <rect id="Base" x="0" y="0" width="48" height="48"></rect>
        <path d="M23.2,33 C20.8804041,33 19,34.8804041 19,37.2 L19,43.6 C19,44.3731986 19.6268014,45 20.4,45 L27.6,45 C28.3731986,45 29,44.3731986 29,43.6 L29,37.2 C29,34.8804041 27.1195959,33 24.8,33 L23.2,33 Z" id="Path" fill="#B4CCEF" fill-rule="nonzero"></path>
        <path d="M31,43.7647059 L31,37.1764706 C31,33.7653001 27.881754,31 24.4705862,31 L23.5294138,31 C20.118246,31 17,33.7653001 17,37.1764706 L17,43.7647059 C17,44.1978438 17.0743081,44.613626 17.2108716,45 L14.117655,45 C10.7064873,45 7.94118941,42.2346999 7.94118941,38.8235294 L7.94118941,19.9281843 L5.04875626,22.4590653 C4.53532319,22.9083196 3.75491117,22.8562921 3.30565723,22.3428586 C2.85640329,21.8294251 2.90843076,21.0490125 3.42186383,20.5997582 L23.1865538,3.30564055 C23.6522914,2.89811982 24.3477086,2.89811982 24.8134462,3.30564055 L44.5781362,20.5997582 C45.0915692,21.0490125 45.1435967,21.8294251 44.6943428,22.3428586 C44.2450888,22.8562921 43.4646768,22.9083196 42.9512437,22.4590653 L40.0588106,19.9281843 L40.0588106,38.8235294 C40.0588106,42.2346999 37.2935127,45 33.882345,45 L30.7891284,45 C30.9256919,44.613626 31,44.1978438 31,43.7647059 Z" id="Path" fill="#1565D8"></path>
    </g>
</svg>