<?xml version="1.0" encoding="UTF-8"?>
<svg width="48px" height="48px" viewBox="0 0 48 48" version="1.1" xmlns="http://www.w3.org/2000/svg" xmlns:xlink="http://www.w3.org/1999/xlink">
    <!-- Generator: Sketch 62 (91390) - https://sketch.com -->
    <title>like</title>
    <desc>Created with Sketch.</desc>
    <g id="like" stroke="none" stroke-width="1" fill="none" fill-rule="evenodd">
        <rect id="Base" x="0" y="0" width="48" height="48"></rect>
        <path d="M14.6169283,17.9907147 C17.2021422,14.3287836 18.815843,10.1267935 19.4632236,5.36972085 C19.5248936,4.91655802 19.8467054,4.53974919 20.2884282,4.40349029 C24.7404845,3.0301577 27.2715989,5.21248208 27.229774,10.1886497 C27.2216552,11.1545864 27.1769537,12.0131393 27.0817473,13.326266 C26.8690905,16.259318 26.8859829,17.0597224 27.2154496,17.598325 C27.5321568,18.1160687 28.5602333,18.2928217 30.9917748,17.8326606 C31.7590252,17.6874611 32.528714,17.522864 33.3812225,17.3251963 C33.7575376,17.2379416 36.468143,16.5786712 37.1610187,16.429547 C38.4827359,16.1450802 39.4310958,16.0246909 40.264995,16.0756703 C42.5241106,16.2137786 43.7229398,17.6636268 43.9300867,20.4413533 C44.2948884,25.3331456 43.1676601,35.158913 42.0431344,38.7781219 C40.8940166,42.4764787 38.8900057,43.8724893 34.0795502,43.9568048 C30.9867421,44.0110142 26.2299187,44.0110142 19.7868983,43.9566662 C18.1421599,43.9185384 16.6516254,43.6010759 15.3257894,43.0075396 C15.6979585,42.2394138 15.9063775,41.3790509 15.9063775,40.4705882 L15.9063775,21.6470588 C15.9063775,20.2652114 15.4241595,18.9946519 14.6169283,17.9907147 Z" id="Path" fill="#1565D8"></path>
        <path d="M7.57191325,18.1176471 C5.59920004,18.1176471 4,19.6978185 4,21.6470588 L4,40.4705882 C4,42.4198285 5.59920004,44 7.57191325,44 L9.95318875,44 C11.925902,44 13.525102,42.4198285 13.525102,40.4705882 L13.525102,21.6470588 C13.525102,19.6978185 11.925902,18.1176471 9.95318875,18.1176471 L7.57191325,18.1176471 Z" id="Path" fill="#B4CCEF" fill-rule="nonzero"></path>
    </g>
</svg>