<?xml version="1.0" encoding="UTF-8"?>
<svg width="48px" height="48px" viewBox="0 0 48 48" version="1.1" xmlns="http://www.w3.org/2000/svg" xmlns:xlink="http://www.w3.org/1999/xlink">
    <!-- Generator: Sketch 62 (91390) - https://sketch.com -->
    <title>line-chart</title>
    <desc>Created with Sketch.</desc>
    <g id="line-chart" stroke="none" stroke-width="1" fill="none" fill-rule="evenodd">
        <rect id="Base" x="0" y="0" width="48" height="48"></rect>
        <path d="M30.48,40.1564675 L30.48,36.282355 L30.6205887,35.9429437 L37.2,29.3635325 L37.2,33.237645 L37.0594113,33.5770563 L30.48,40.1564675 Z M21.0205887,33.5770563 L20.88,33.237645 L20.88,29.3635325 L27.4594113,35.9429437 L27.6,36.282355 L27.6,40.1564675 L21.0205887,33.5770563 Z M18,29.3635325 L18,33.237645 L17.8594113,33.5770563 L11.28,40.1564675 L11.28,36.282355 L11.4205887,35.9429437 L18,29.3635325 Z M37.2,8.24353247 L37.2,12.117645 L37.0594113,12.4570563 L30.48,19.0364675 L30.48,15.162355 L30.6205887,14.8229437 L37.2,8.24353247 Z M20.88,8.24353247 L27.4594113,14.8229437 L27.6,15.162355 L27.6,19.0364675 L21.0205887,12.4570563 L20.88,12.117645 L20.88,8.24353247 Z M18,8.24353247 L18,12.117645 L17.8594113,12.4570563 L11.28,19.0364675 L11.28,15.162355 L11.4205887,14.8229437 L18,8.24353247 Z" id="path" fill="#B4CCEF" fill-rule="nonzero"></path>
        <path d="M29.04,35.72 C31.1607734,35.72 32.88,37.4392266 32.88,39.56 C32.88,41.6807734 31.1607734,43.4 29.04,43.4 C26.9192266,43.4 25.2,41.6807734 25.2,39.56 C25.2,37.4392266 26.9192266,35.72 29.04,35.72 Z M9.84,35.72 C11.9607734,35.72 13.68,37.4392266 13.68,39.56 C13.68,41.6807734 11.9607734,43.4 9.84,43.4 C7.71922656,43.4 6,41.6807734 6,39.56 C6,37.4392266 7.71922656,35.72 9.84,35.72 Z M19.44,26.12 C21.5607734,26.12 23.28,27.8392266 23.28,29.96 C23.28,32.0807734 21.5607734,33.8 19.44,33.8 C17.3192266,33.8 15.6,32.0807734 15.6,29.96 C15.6,27.8392266 17.3192266,26.12 19.44,26.12 Z M38.64,26.12 C40.7607734,26.12 42.48,27.8392266 42.48,29.96 C42.48,32.0807734 40.7607734,33.8 38.64,33.8 C36.5192266,33.8 34.8,32.0807734 34.8,29.96 C34.8,27.8392266 36.5192266,26.12 38.64,26.12 Z M29.04,14.6 C31.1607734,14.6 32.88,16.3192266 32.88,18.44 C32.88,20.5607734 31.1607734,22.28 29.04,22.28 C26.9192266,22.28 25.2,20.5607734 25.2,18.44 C25.2,16.3192266 26.9192266,14.6 29.04,14.6 Z M9.84,14.6 C11.9607734,14.6 13.68,16.3192266 13.68,18.44 C13.68,20.5607734 11.9607734,22.28 9.84,22.28 C7.71922656,22.28 6,20.5607734 6,18.44 C6,16.3192266 7.71922656,14.6 9.84,14.6 Z M19.44,5 C21.5607734,5 23.28,6.71922656 23.28,8.84 C23.28,10.9607734 21.5607734,12.68 19.44,12.68 C17.3192266,12.68 15.6,10.9607734 15.6,8.84 C15.6,6.71922656 17.3192266,5 19.44,5 Z M38.64,5 C40.7607734,5 42.48,6.71922656 42.48,8.84 C42.48,10.9607734 40.7607734,12.68 38.64,12.68 C36.5192266,12.68 34.8,10.9607734 34.8,8.84 C34.8,6.71922656 36.5192266,5 38.64,5 Z" id="path" fill="#1565D8"></path>
    </g>
</svg>