<?xml version="1.0" encoding="UTF-8"?>
<svg width="34px" height="34px" viewBox="0 0 34 34" version="1.1" xmlns="http://www.w3.org/2000/svg" xmlns:xlink="http://www.w3.org/1999/xlink">
    <!-- Generator: Sketch 61.1 (89650) - https://sketch.com -->
    <title>Group</title>
    <desc>Created with Sketch.</desc>
    <g id="Desktop" stroke="none" stroke-width="1" fill="none" fill-rule="evenodd">
        <g id="Contact-us" transform="translate(-313.000000, -1281.000000)">
            <g id="Item" transform="translate(150.000000, 1250.000000)">
                <g id="Icon-Copy-2" transform="translate(148.000000, 16.000000)">
                    <g id="Group-2" transform="translate(12.000000, 12.000000)">
                        <g id="Group">
                            <polygon id="path" points="0 0 40 0 40 40 0 40"></polygon>
                            <path d="M36.9333333,15.7826682 L36.9333333,30.8335106 C36.9333333,33.9263052 34.4261279,36.4335106 31.3333333,36.4335106 L8.93333333,36.4335106 C5.84053873,36.4335106 3.33333333,33.9263052 3.33333333,30.8335106 L3.33333333,15.7826682 C3.33333333,15.0014725 3.71644287,14.2699338 4.35882095,13.8228863 L8.4485136,10.976764 C8.81116582,10.724385 9.30974715,10.8137791 9.56212617,11.1764313 C9.81450519,11.5390835 9.72511109,12.0376649 9.36245886,12.2900439 L5.27276621,15.1361662 C5.06313641,15.282053 4.9374333,15.5179759 4.93343184,15.7702453 C5.18362714,15.6818263 5.4528618,15.6337155 5.73333333,15.6337155 C6.16133174,15.6337155 6.58154388,15.7481693 6.95042484,15.9652165 L20.1333333,23.7219549 L33.3162418,15.9652165 C33.9515834,15.5913856 34.6885631,15.5433602 35.3332447,15.7708849 C35.3294458,15.5183747 35.2037074,15.2821763 34.9939005,15.1361662 L31.0212904,12.3715247 C30.6586382,12.1191457 30.5692441,11.6205644 30.8216231,11.2579121 C31.0740021,10.8952599 31.5725835,10.8058658 31.9352357,11.0582448 L35.9078457,13.8228863 C36.5502238,14.2699338 36.9333333,15.0014725 36.9333333,15.7826682 Z" id="path" fill="#1565D8"></path>
                            <path d="M28.3333333,3.33333333 C30.5424723,3.33333333 32.3333333,5.12419433 32.3333333,7.33333333 L32.3333333,15.3333333 L20.3333333,22.5333333 L8.33333333,15.3333333 L8.33333333,7.33333333 C8.33333333,5.12419433 10.1241943,3.33333333 12.3333333,3.33333333 L28.3333333,3.33333333 Z M25.1333333,14.5333333 L15.5333333,14.5333333 C15.0915055,14.5333333 14.7333333,14.8915055 14.7333333,15.3333333 C14.7333333,15.7751611 15.0915055,16.1333333 15.5333333,16.1333333 L25.1333333,16.1333333 C25.5751611,16.1333333 25.9333333,15.7751611 25.9333333,15.3333333 C25.9333333,14.8915055 25.5751611,14.5333333 25.1333333,14.5333333 Z M25.1333333,9.73333333 L15.5333333,9.73333333 C15.0915055,9.73333333 14.7333333,10.0915055 14.7333333,10.5333333 C14.7333333,10.9751611 15.0915055,11.3333333 15.5333333,11.3333333 L25.1333333,11.3333333 C25.5751611,11.3333333 25.9333333,10.9751611 25.9333333,10.5333333 C25.9333333,10.0915055 25.5751611,9.73333333 25.1333333,9.73333333 Z" id="path" fill="#B8D0F3"></path>
                        </g>
                    </g>
                </g>
            </g>
        </g>
    </g>
</svg>