<svg xmlns="http://www.w3.org/2000/svg" width="31" height="30" viewBox="0 0 31 30">
    <g fill="none" fill-rule="evenodd">
        <path d="M0 0L36 0 36 36 0 36z" transform="translate(-1 -4)"/>
        <path fill="#1565D8" d="M12.24 17.28c-3.579 0-6.48-2.901-6.48-6.48 0-3.579 2.901-6.48 6.48-6.48 3.579 0 6.48 2.901 6.48 6.48 0 3.579-2.901 6.48-6.48 6.48zm0 1.44c5.965 0 10.8 4.835 10.8 10.8v2.88c0 .398-.322.72-.72.72H2.16c-.398 0-.72-.322-.72-.72v-2.88c0-5.965 4.835-10.8 10.8-10.8z" transform="translate(-1 -4)"/>
        <path fill="#1565D8" d="M22.608 17.568c-.606 0-1.008-.453-1.008-1.008 0-.555.402-1.008 1.008-1.008h3.024v-3.024c0-.606.453-1.008 1.008-1.008.555 0 1.008.402 1.008 1.008v3.024h3.024c.606 0 1.008.453 1.008 1.008 0 .555-.402 1.008-1.008 1.008h-3.024v3.024c0 .606-.453 1.008-1.008 1.008-.555 0-1.008-.402-1.008-1.008v-3.024h-3.024z" opacity=".3" transform="translate(-1 -4)"/>
    </g>
</svg>
