<?xml version="1.0" encoding="UTF-8"?>
<svg width="48px" height="48px" viewBox="0 0 48 48" version="1.1" xmlns="http://www.w3.org/2000/svg" xmlns:xlink="http://www.w3.org/1999/xlink">
    <!-- Generator: Sketch 62 (91390) - https://sketch.com -->
    <title>money-donation</title>
    <desc>Created with Sketch.</desc>
    <g id="money-donation" stroke="none" stroke-width="1" fill="none" fill-rule="evenodd">
        <rect id="Base" x="0" y="0" width="48" height="48"></rect>
        <path d="M25.8180127,27.5559673 C27.0466428,24.8885438 25.9142905,22.6907769 22.786438,21.329554 L17.6044291,19.1912677 C15.9255959,18.4985831 14.0019894,18.7840471 12.5966387,19.9344257 L7.83098734,23.8354472 L7.69239016,25.2243957 L7.4691358,36.5844156 L7.4691358,38.5584416 L13.2350488,38.5584416 L24.9944215,41.8975161 C26.4778733,42.3187423 28.0729493,42.0222441 29.3059995,41.0960845 C37.0542147,35.2758711 42.2312833,31.3458278 43.0153025,30.617305 C44.9159504,28.8511935 45.6642399,26.8875537 44.3099583,24.9518873 C43.2152969,23.3872947 41.3691984,23.220384 39.0810999,24.2556066 L27.9526155,29.9117771 L24.8234264,28.9173368 C25.2268897,28.5696372 25.5596095,28.1169749 25.8180127,27.5559673 Z" id="path" fill="#1565D8"></path>
        <path d="M8.45679012,18.3246753 C9.27498975,18.3246753 9.9382716,18.9875265 9.9382716,19.8051948 L9.9382716,41.5194805 C9.9382716,42.3371489 9.27498975,43 8.45679012,43 L6.48148148,43 C5.66328185,43 5,42.3371489 5,41.5194805 C5,40.7018122 5.66328185,40.038961 6.48148148,40.038961 L6.97530864,40.038961 L6.97530864,21.2857143 L6.48148148,21.2857143 C5.66328185,21.2857143 5,20.6228631 5,19.8051948 C5,18.9875265 5.66328185,18.3246753 6.48148148,18.3246753 L8.45679012,18.3246753 Z M32.6543209,5 C33.4726413,5 34.1358014,5.66345653 34.1358014,6.48160126 L34.1358014,6.97618954 L36.5122944,6.97618954 C37.3306148,6.97618954 37.9937749,7.63964607 37.9937749,8.45779081 L37.9937749,9.20585767 C37.9937749,10.0240024 37.3306148,10.6874589 36.5122944,10.6874589 C35.9674427,10.6874589 35.4822142,10.3910133 35.2247454,9.93939207 L30.7065602,9.93939207 C30.4339488,9.93939207 30.212734,10.1607057 30.212734,10.4339803 L30.212734,11.4235705 C30.212734,11.6968451 30.4339488,11.9181587 30.7065602,11.9181587 L34.6296373,11.9181587 C36.5388894,11.9181587 38.0864245,13.4663855 38.0864245,15.3759496 L38.0864245,16.362549 C38.0864245,18.2721131 36.5388894,19.8203398 34.6296373,19.8203398 L34.1358014,19.8203398 L34.1358014,20.2976195 C34.1358014,21.1157642 33.4726413,21.7792208 32.6543209,21.7792208 C31.8360005,21.7792208 31.1728404,21.1157642 31.1728404,20.2976195 L31.1728404,19.8203398 L28.7037172,19.8203398 C27.8677525,19.8203398 27.1975257,19.1291111 27.2229208,18.2937166 L27.2504572,17.3878826 C27.2753168,16.5701027 27.9583501,15.9271014 28.7763047,15.9519885 C29.3704758,15.9700668 29.8774274,16.337358 30.0967351,16.8571373 L34.6296373,16.8571373 C34.9022487,16.8571373 35.1234635,16.6358236 35.1234635,16.362549 L35.1234635,15.3759496 C35.1234635,15.1026749 34.9022487,14.8813613 34.6296373,14.8813613 L30.7065602,14.8813613 C28.7973081,14.8813613 27.249773,13.3331345 27.249773,11.4235705 L27.249773,10.4339803 C27.249773,8.52441627 28.7973081,6.97618954 30.7065602,6.97618954 L31.1728404,6.97618954 L31.1728404,6.48160126 C31.1728404,5.66345653 31.8360005,5 32.6543209,5 Z" id="path" fill="#B4CCEF" fill-rule="nonzero"></path>
    </g>
</svg>