<?xml version="1.0" encoding="UTF-8"?>
<svg width="48px" height="48px" viewBox="0 0 48 48" version="1.1" xmlns="http://www.w3.org/2000/svg" xmlns:xlink="http://www.w3.org/1999/xlink">
    <!-- Generator: Sketch 62 (91390) - https://sketch.com -->
    <title>multiple-shape</title>
    <desc>Created with Sketch.</desc>
    <g id="multiple-shape" stroke="none" stroke-width="1" fill="none" fill-rule="evenodd">
        <rect id="Base" x="0" y="0" width="48" height="48"></rect>
        <path d="M6.85714286,4 L29.7142857,4 C31.2922421,4 32.5714286,5.27918643 32.5714286,6.85714286 L32.5714286,29.7142857 C32.5714286,31.2922421 31.2922421,32.5714286 29.7142857,32.5714286 L6.85714286,32.5714286 C5.27918643,32.5714286 4,31.2922421 4,29.7142857 L4,6.85714286 C4,5.27918643 5.27918643,4 6.85714286,4 Z M40.1904762,15.4285714 L41.1428571,15.4285714 C42.7208136,15.4285714 44,16.7077579 44,18.2857143 L44,41.1428571 C44,42.7208136 42.7208136,44 41.1428571,44 L18.2857143,44 C16.7077579,44 15.4285714,42.7208136 15.4285714,41.1428571 L15.4285714,40.1904762 L35.4285714,40.1904762 C38.0584988,40.1904762 40.1904762,38.0584988 40.1904762,35.4285714 L40.1904762,15.4285714 Z" id="Path" fill="#1565D8"></path>
        <path d="M34.4761905,9.71428571 L35.4285714,9.71428571 C37.0065279,9.71428571 38.2857143,10.9934721 38.2857143,12.5714286 L38.2857143,35.4285714 C38.2857143,37.0065279 37.0065279,38.2857143 35.4285714,38.2857143 L12.5714286,38.2857143 C10.9934721,38.2857143 9.71428571,37.0065279 9.71428571,35.4285714 L9.71428571,34.4761905 L29.7142857,34.4761905 C32.3442131,34.4761905 34.4761905,32.3442131 34.4761905,29.7142857 L34.4761905,9.71428571 Z" id="Path" fill="#B4CCEF" fill-rule="nonzero"></path>
    </g>
</svg>