<?xml version="1.0" encoding="UTF-8"?>
<svg width="48px" height="48px" viewBox="0 0 48 48" version="1.1" xmlns="http://www.w3.org/2000/svg" xmlns:xlink="http://www.w3.org/1999/xlink">
    <!-- Generator: Sketch 62 (91390) - https://sketch.com -->
    <title>neutron</title>
    <desc>Created with Sketch.</desc>
    <g id="neutron" stroke="none" stroke-width="1" fill="none" fill-rule="evenodd">
        <rect id="Base" x="0" y="0" width="48" height="48"></rect>
        <path d="M14.730888,36.6676394 C14.0864367,34.9381609 13.574331,33.023892 13.2172855,30.9736229 C11.5219996,29.5955364 10.0231777,28.143276 8.75291828,26.6636615 C7.11687194,29.4979775 6.65336825,32.1343229 7.70739744,34.000452 C8.78124369,35.9016666 11.3641183,36.7846614 14.730888,36.6676394 L14.730888,36.6676394 Z M16.0610849,39.6306218 C10.9338377,40.0793633 6.78611149,38.7279811 4.93737783,35.45485 C3.16186403,32.3113526 3.99021908,28.157758 6.73280024,24 C3.99021908,19.842242 3.16186403,15.6886474 4.93737783,12.54515 C6.78611149,9.2720189 10.9338377,7.92063667 16.0610849,8.36937822 C18.1808707,4.42764892 21.1356152,2 24.5,2 C27.8643858,2 30.819131,4.42765036 32.9389151,8.36937822 C38.0661623,7.92063667 42.2138885,9.2720189 44.0626222,12.54515 C45.838136,15.6886474 45.0097809,19.842242 42.2671998,24 C45.0097809,28.157758 45.838136,32.3113526 44.0626222,35.45485 C42.2138885,38.7279811 38.0661623,40.0793633 32.9389151,39.6306218 C30.8191293,43.5723511 27.8643848,46 24.5,46 C21.1356142,46 18.180869,43.5723496 16.0610849,39.6306218 L16.0610849,39.6306218 Z M40.2470817,21.3363385 C41.8831281,18.5020225 42.3466317,15.8656771 41.2926026,13.999548 C40.2187563,12.0983334 37.6358817,11.2153386 34.269112,11.3323606 C34.9135633,13.0618391 35.425669,14.976108 35.7827145,17.0263771 C37.4780004,18.4044636 38.9768223,19.856724 40.2470817,21.3363385 Z M12.6947993,21.6646262 C11.9213217,22.4372058 11.2182689,23.2193765 10.5923557,24 C11.2182689,24.7806235 11.9213217,25.5627942 12.6947993,26.3353738 C12.6529642,25.5682617 12.6315789,24.789134 12.6315789,24 C12.6315789,23.210866 12.6529642,22.4317383 12.6947993,21.6646262 L12.6947993,21.6646262 Z M13.2172855,17.0263771 C13.574331,14.976108 14.0864367,13.0618391 14.730888,11.3323606 C11.3641183,11.2153386 8.78124369,12.0983334 7.70739744,13.999548 C6.65336825,15.8656771 7.11687194,18.5020225 8.75291828,21.3363385 C10.0231777,19.856724 11.5219996,18.4044636 13.2172855,17.0263771 L13.2172855,17.0263771 Z M36.3052007,26.3353738 C37.0786783,25.5627942 37.7817311,24.7806235 38.4076443,24 C37.7817311,23.2193765 37.0786783,22.4372058 36.3052007,21.6646262 C36.3470358,22.4317383 36.3684211,23.210866 36.3684211,24 C36.3684211,24.789134 36.3470358,25.5682617 36.3052007,26.3353738 L36.3052007,26.3353738 Z M35.7827145,30.9736229 C35.425669,33.023892 34.9135633,34.9381609 34.269112,36.6676394 C37.6358817,36.7846614 40.2187563,35.9016666 41.2926026,34.000452 C42.3466317,32.1343229 41.8831281,29.4979775 40.2470817,26.6636615 C38.9768223,28.143276 37.4780004,29.5955364 35.7827145,30.9736229 L35.7827145,30.9736229 Z M17.9135036,36.3002754 C18.7289857,36.1469481 19.5711159,35.9470307 20.4325427,35.7007078 C19.7641149,35.3517948 19.0956949,34.9805931 18.4292466,34.5872837 C17.9534004,34.3064596 17.4866839,34.0191862 17.0295088,33.7260642 C17.2913468,34.6362237 17.5875937,35.4971713 17.9135036,36.3002754 L17.9135036,36.3002754 Z M19.32944,39.1281011 C20.8074143,41.5123728 22.6136783,42.9302326 24.5,42.9302326 C26.3863217,42.9302326 28.1925857,41.5123728 29.67056,39.1281011 C28.0005283,38.76737 26.2645167,38.2413919 24.5,37.5536209 C22.7354833,38.2413919 20.9994717,38.76737 19.32944,39.1281011 L19.32944,39.1281011 Z M16.096857,18.6914075 C15.8575133,20.377811 15.7276888,22.1596512 15.7276888,24 C15.7276888,25.8403488 15.8575133,27.622189 16.096857,29.3085925 C17.3245827,30.2523984 18.6558072,31.1554723 20.075904,31.9935528 C21.5508493,32.8640026 23.0359809,33.6140795 24.5,34.2429978 C25.9640191,33.6140795 27.4491507,32.8640026 28.924096,31.9935528 C30.3441928,31.1554723 31.6754173,30.2523984 32.903143,29.3085925 C33.1424867,27.622189 33.2723112,25.8403488 33.2723112,24 C33.2723112,22.1596512 33.1424867,20.377811 32.903143,18.6914075 C31.6754173,17.7476016 30.3441928,16.8445277 28.924096,16.0064472 C27.4491507,15.1359974 25.9640191,14.3859205 24.5,13.7570022 C23.0359809,14.3859205 21.5508493,15.1359974 20.075904,16.0064472 C18.6558072,16.8445277 17.3245827,17.7476016 16.096857,18.6914075 L16.096857,18.6914075 Z M17.0295088,14.2739358 C17.4866839,13.9808138 17.9534004,13.6935404 18.4292466,13.4127163 C19.0956949,13.0194069 19.7641149,12.6482052 20.4325427,12.2992922 C19.5711159,12.0529693 18.7289857,11.8530519 17.9135036,11.6997246 C17.5875937,12.5028287 17.2913468,13.3637763 17.0295088,14.2739358 Z M31.9704912,33.7260642 C31.5133161,34.0191862 31.0465996,34.3064596 30.5707534,34.5872837 C29.9043051,34.9805931 29.2358851,35.3517948 28.5674573,35.7007078 C29.4288841,35.9470307 30.2710143,36.1469481 31.0864964,36.3002754 C31.4124063,35.4971713 31.7086532,34.6362237 31.9704912,33.7260642 L31.9704912,33.7260642 Z M29.67056,8.87189892 C28.1925857,6.48762724 26.3863217,5.06976744 24.5,5.06976744 C22.6136783,5.06976744 20.8074143,6.48762724 19.32944,8.87189892 C20.9994717,9.23262997 22.7354833,9.75860815 24.5,10.4463791 C26.2645167,9.75860815 28.0005283,9.23262997 29.67056,8.87189892 L29.67056,8.87189892 Z M31.0864964,11.6997246 C30.2710143,11.8530519 29.4288841,12.0529693 28.5674573,12.2992922 C29.2358851,12.6482052 29.9043051,13.0194069 30.5707534,13.4127163 C31.0465996,13.6935404 31.5133161,13.9808138 31.9704912,14.2739358 C31.7086532,13.3637763 31.4124063,12.5028287 31.0864964,11.6997246 L31.0864964,11.6997246 Z" id="Shape" fill="#1565D8"></path>
        <path d="M24.5931818,29.1897436 C21.7112596,29.1897436 19.375,26.891472 19.375,24.0564103 C19.375,21.2213485 21.7112596,18.9230769 24.5931818,18.9230769 C27.4751041,18.9230769 29.8113636,21.2213485 29.8113636,24.0564103 C29.8113636,26.891472 27.4751041,29.1897436 24.5931818,29.1897436 Z" id="Path" fill="#B4CCEF" fill-rule="nonzero"></path>
    </g>
</svg>