<?xml version="1.0" encoding="UTF-8"?>
<svg width="48px" height="48px" viewBox="0 0 48 48" version="1.1" xmlns="http://www.w3.org/2000/svg" xmlns:xlink="http://www.w3.org/1999/xlink">
    <!-- Generator: Sketch 62 (91390) - https://sketch.com -->
    <title>opened-file</title>
    <desc>Created with Sketch.</desc>
    <g id="opened-file" stroke="none" stroke-width="1" fill="none" fill-rule="evenodd">
        <rect id="Base" x="0" y="0" width="48" height="48"></rect>
        <path d="M40.1904762,33.4465677 L40.1904762,11.6842105 C42.3640384,12.1244665 44,14.0419823 44,16.3407712 L44,41.0491438 C44,41.6753286 43.4036489,42.1303513 42.7980389,41.9662538 C40.3491908,41.3027085 34.6199739,39.5006047 33.735312,39.2649267 C31.8737818,38.7690066 30.1017759,38.4645199 27.8960063,38.3138189 C30.7037054,36.9696022 33.8387089,36.2975337 37.3333333,36.2975337 C38.9112898,36.2975337 40.1904762,35.0211127 40.1904762,33.4465677 Z M7.80952381,11.6842105 L7.80952381,33.4465677 C7.80952381,35.0211127 9.08871024,36.2975337 10.6666667,36.2975337 C14.1912264,36.2975337 17.3318672,36.9696744 20.1213693,38.3126355 C17.9075244,38.462923 16.1311036,38.7677051 14.264688,39.2649267 C13.3800261,39.5006047 7.65080919,41.3027085 5.20196107,41.9662538 C4.59635109,42.1303513 4,41.6753286 4,41.0491438 L4,16.3407712 C4,14.0419823 5.6359616,12.1244665 7.80952381,11.6842105 Z" id="Path" fill="#B4CCEF" fill-rule="nonzero"></path>
        <path d="M23.047619,38.2078284 C19.4930706,35.9405388 15.3732784,34.805983 10.6666667,34.805983 C10.1406812,34.805983 9.71428571,34.3760871 9.71428571,33.8457836 L9.71428571,6.96019943 C9.71428571,6.42989593 10.1406812,6 10.6666667,6 C15.3099064,6 19.4424473,7.02611329 23.047619,9.08043544 L23.047619,38.2078284 Z M24.952381,9.09010123 C28.5961296,7.02972717 32.7285381,6 37.3333333,6 C37.8593188,6 38.2857143,6.42989593 38.2857143,6.96019943 L38.2857143,33.8457836 C38.2857143,34.3760871 37.8593188,34.805983 37.3333333,34.805983 C32.6624302,34.805983 28.5424775,35.9410728 24.952381,38.2105263 L24.952381,9.09010123 Z" id="Path" fill="#1565D8"></path>
    </g>
</svg>