<?xml version="1.0" encoding="UTF-8"?>
<svg width="32px" height="34px" viewBox="0 0 32 34" version="1.1" xmlns="http://www.w3.org/2000/svg" xmlns:xlink="http://www.w3.org/1999/xlink">
    <!-- Generator: Sketch 61.1 (89650) - https://sketch.com -->
    <title>Path</title>
    <desc>Created with Sketch.</desc>
    <g id="Desktop" stroke="none" stroke-width="1" fill="none" fill-rule="evenodd">
        <g id="Pricing" transform="translate(-456.000000, -3259.000000)" fill="#1565D8" fill-rule="nonzero">
            <g id="FAQ" transform="translate(0.000000, 2008.000000)">
                <g id="Item" transform="translate(240.000000, 1208.000000)">
                    <g id="Group-2" transform="translate(213.000000, 40.000000)">
                        <path d="M15.0879806,18.5350469 L20.611426,24.3635751 C21.2102522,24.995477 22.2948148,25.0856937 23.5030541,24.4902562 C26.5779818,23.2154124 27.6010685,22.9046197 28.1851296,23.5209409 L34.5343652,30.2208711 C35.2848919,31.0128526 35.0845945,32.3320348 34.2453239,33.2176618 C29.8873592,37.816335 22.8040569,37.816335 18.4460922,33.2176618 L6.58543055,20.7018865 C2.24930093,16.1262545 2.24930093,8.7237243 6.58543055,4.14809224 C7.44241241,3.24377571 8.75847221,3.0212686 9.53727315,3.84308595 L15.8865088,10.5430162 C16.4368299,11.1237339 16.1417506,12.2053623 14.9402361,15.4281082 C14.3816786,16.6861004 14.4711777,17.8841754 15.0879806,18.5350469 Z" id="Path"></path>
                    </g>
                </g>
            </g>
        </g>
    </g>
</svg>