<?xml version="1.0" encoding="UTF-8"?>
<svg width="48px" height="48px" viewBox="0 0 48 48" version="1.1" xmlns="http://www.w3.org/2000/svg" xmlns:xlink="http://www.w3.org/1999/xlink">
    <!-- Generator: Sketch 62 (91390) - https://sketch.com -->
    <title>pouch</title>
    <desc>Created with Sketch.</desc>
    <g id="pouch" stroke="none" stroke-width="1" fill="none" fill-rule="evenodd">
        <rect id="Base" x="0" y="0" width="48" height="48"></rect>
        <path d="M23.999386,13.5238095 C31.8701481,13.5238095 38.6339428,19.1392016 40.1231694,26.9099886 L41.8790036,36.0719335 C42.5718725,39.6873244 40.2186155,43.1829258 36.6228569,43.8795777 C36.2094248,43.9596771 35.7893444,44 35.3683068,44 L12.6304651,44 C8.96856035,44 6,41.0152317 6,37.3333333 C6,36.909997 6.04010391,36.487623 6.11976841,36.0719335 L7.87560251,26.9099886 C9.36482919,19.1392016 16.1286238,13.5238095 23.999386,13.5238095 Z M23.9969768,21.1428571 C23.4738475,21.1428571 23.0497675,21.5692526 23.0497675,22.0952381 L23.0497675,22.0952381 L23.0497675,23.047619 L22.1289762,23.047619 C20.5595885,23.047619 19.2873483,24.3268055 19.2873483,25.9047619 L19.2873483,25.9047619 L19.2873483,26.8585842 C19.2873483,28.4365406 20.5595885,29.715727 22.1289762,29.715727 L22.1289762,29.715727 L25.8914047,29.715727 C26.4145339,29.715727 26.838614,30.1421225 26.838614,30.668108 L26.838614,30.668108 L26.838614,31.6190476 C26.838614,32.1450331 26.4145339,32.5714286 25.8914047,32.5714286 L25.8914047,32.5714286 L21.1785654,32.5714286 C21.1395691,32.0949314 20.7499019,31.7136533 20.2633513,31.6987753 C19.7404638,31.6827862 19.3036884,32.0960229 19.287786,32.6217652 L19.287786,32.6217652 L19.2613773,33.4948586 C19.245132,34.0319395 19.6737375,34.4761905 20.2081488,34.4761905 L20.2081488,34.4761905 L23.0497675,34.4761905 L23.0497675,35.4118885 C23.0497675,35.937874 23.4738475,36.3642694 23.9969768,36.3642694 C24.520106,36.3642694 24.9441861,35.937874 24.9441861,35.4118885 L24.9441861,35.4118885 L24.9441861,34.4761905 L25.8914047,34.4761905 C27.4607924,34.4761905 28.7330326,33.197004 28.7330326,31.6190476 L28.7330326,31.6190476 L28.7330326,30.668108 C28.7330326,29.0901515 27.4607924,27.8109651 25.8914047,27.8109651 L25.8914047,27.8109651 L22.1289762,27.8109651 C21.605847,27.8109651 21.1817669,27.3845696 21.1817669,26.8585842 L21.1817669,26.8585842 L21.1817669,25.9047619 C21.1817669,25.3787764 21.605847,24.952381 22.1289762,24.952381 L22.1289762,24.952381 L26.8667554,24.952381 C26.9695549,25.3665663 27.3420501,25.6734096 27.7858233,25.6734096 C28.3089525,25.6734096 28.7330326,25.2470141 28.7330326,24.7210286 L28.7330326,24.7210286 L28.7330326,24 C28.7330326,23.4740145 28.3089525,23.047619 27.7858233,23.047619 L27.7858233,23.047619 L24.9441861,23.047619 L24.9441861,22.0952381 C24.9441861,21.5692526 24.520106,21.1428571 23.9969768,21.1428571 Z" id="path" fill="#1565D8"></path>
        <path d="M31.2433681,13.1186712 C29.0101691,12.1507396 26.557184,11.6190476 23.999386,11.6190476 C21.4414184,11.6190476 18.9882777,12.1508101 16.7549599,13.1188637 L13.6475709,5.30797635 C13.3482257,4.55552727 14.0608637,3.79491558 14.825746,4.05048845 L20.1535326,5.83068096 L23.5739646,4.10321971 C23.8402083,3.96875549 24.1538591,3.96808262 24.420671,4.10140326 L27.8818807,5.83090098 L33.1705842,4.05113271 C33.9358224,3.79361273 34.6503787,4.55464002 34.3506805,5.30797635 L31.2433681,13.1186712 L31.2433681,13.1186712 Z" id="path" fill="#B4CCEF" fill-rule="nonzero"></path>
    </g>
</svg>