<svg xmlns="http://www.w3.org/2000/svg" width="32" height="34" viewBox="0 0 32 34">
    <g fill="none" fill-rule="evenodd">
        <path d="M0 0L40 0 40 40 0 40z" transform="translate(-4 -2)"/>
        <path fill="#1565D8" d="M25.83 2.598l8.58 7.522c.52.456.818 1.114.818 1.805V30.4c0 3.084-2.391 5.6-5.362 5.6h-5.35c1.631-1.32 2.674-3.338 2.674-5.6V11.95c0-1.188-.527-2.314-1.439-3.073L21.58 5.4l3.196-2.803c.302-.264.753-.264 1.055 0zM15.229 12c1.325 0 2.4 1.075 2.4 2.4s-1.075 2.4-2.4 2.4c-1.326 0-2.4-1.075-2.4-2.4s1.074-2.4 2.4-2.4z" opacity=".3" transform="translate(-4 -2)"/>
        <path fill="#1565D8" d="M14.678 2.585c.297-.247.728-.247 1.025 0l9.024 7.52c.547.457.863 1.132.863 1.844V30.4c0 3.093-2.507 5.6-5.6 5.6h-9.6c-3.092 0-5.6-2.507-5.6-5.6V11.95c0-.713.317-1.388.864-1.844zm.55 7.815c-2.21 0-4 1.79-4 4s1.79 4 4 4 4-1.79 4-4-1.79-4-4-4z" transform="translate(-4 -2)"/>
    </g>
</svg>
