<svg xmlns="http://www.w3.org/2000/svg" width="33" height="32" viewBox="0 0 33 32">
    <g fill="none" fill-rule="evenodd">
        <path d="M0 0L40 0 40 40 0 40z" transform="translate(-4 -4)"/>
        <path fill="#1565D8" d="M21.263 23.082c.995-2.162.078-3.943-2.456-5.046l-4.197-1.734c-1.36-.561-2.918-.33-4.057.603l-3.86 3.162-.112 1.125L6.4 30.4V32h4.67l9.525 2.706c1.202.342 2.494.102 3.493-.65 6.276-4.717 10.47-7.902 11.104-8.493 1.54-1.431 2.146-3.023 1.05-4.591-.888-1.269-2.383-1.404-4.236-.565l-9.014 4.585-2.535-.806c.327-.282.596-.65.806-1.104z" transform="translate(-4 -4)"/>
        <path fill="#1565D8" d="M7.2 15.6c.663 0 1.2.537 1.2 1.2v17.6c0 .663-.537 1.2-1.2 1.2H5.6c-.663 0-1.2-.537-1.2-1.2 0-.663.537-1.2 1.2-1.2H6V18h-.4c-.663 0-1.2-.537-1.2-1.2 0-.663.537-1.2 1.2-1.2h1.6zM26.4 4.8c.442 0 .8.358.8.8v.8h2.325c.442 0 .8.358.8.8v.606c0 .441-.358.8-.8.8-.375 0-.69-.258-.776-.606h-3.927c-.442 0-.8.358-.8.8v.801c0 .442.358.8.8.8H28c1.325 0 2.4 1.075 2.4 2.4v.799c0 1.325-1.075 2.4-2.4 2.4h-.8v.786c0 .442-.358.8-.8.8-.442 0-.8-.358-.8-.8V16h-2.4c-.451 0-.813-.373-.8-.824l.023-.734c.013-.441.382-.788.824-.775.41.012.74.333.773.733H28c.442 0 .8-.358.8-.8v-.799c0-.442-.358-.8-.8-.8h-3.178c-1.325 0-2.4-1.074-2.4-2.4V8.8c0-1.325 1.075-2.4 2.4-2.4h.778v-.8c0-.442.358-.8.8-.8z" opacity=".3" transform="translate(-4 -4)"/>
    </g>
</svg>
