<?xml version="1.0" encoding="UTF-8"?>
<svg width="48px" height="48px" viewBox="0 0 48 48" version="1.1" xmlns="http://www.w3.org/2000/svg" xmlns:xlink="http://www.w3.org/1999/xlink">
    <!-- Generator: Sketch 62 (91390) - https://sketch.com -->
    <title>rocket</title>
    <desc>Created with Sketch.</desc>
    <g id="rocket" stroke="none" stroke-width="1" fill="none" fill-rule="evenodd">
        <rect id="Base" x="0" y="0" width="48" height="48"></rect>
        <path d="M42.6807465,6.11917596 C44.0385315,13.4068467 40.9954703,21.13624 34.8829921,25.9717961 L18.687058,38.7843324 C18.2890707,39.0991785 17.7183594,39.0660082 17.3595269,38.707175 L9.29289227,30.6405243 C8.93405977,30.281691 8.90088951,29.7109786 9.21573497,29.3129905 L22.0282457,13.1170241 C26.8637922,7.00453373 34.59317,3.96146638 41.8808263,5.31925418 C42.2871562,5.39495888 42.6050419,5.71284522 42.6807465,6.11917596 Z M28.4644193,12.4644661 C26.5118017,14.4170876 26.5118017,17.5829124 28.4644193,19.5355339 C30.4170368,21.4881554 33.5828554,21.4881554 35.535473,19.5355339 C37.4880905,17.5829124 37.4880905,14.4170876 35.535473,12.4644661 C33.5828554,10.5118446 30.4170368,10.5118446 28.4644193,12.4644661 Z M34.1212622,18.1213203 C32.9496917,19.2928932 31.0502006,19.2928932 29.87863,18.1213203 C28.7070595,16.9497475 28.7070595,15.0502525 29.87863,13.8786797 C31.0502006,12.7071068 32.9496917,12.7071068 34.1212622,13.8786797 C35.2928328,15.0502525 35.2928328,16.9497475 34.1212622,18.1213203 Z" id="Path" fill="#1565D8"></path>
        <path d="M14.99998,39.3135278 L14.111694,40.2018156 C13.0474503,41.2660615 11.3219702,41.2660615 10.2577264,40.2018156 L7.79817885,37.7422631 C6.73393506,36.6780172 6.73393506,34.9525337 7.79817885,33.8882878 L8.68646486,33 L14.99998,39.3135278 Z M9.74515232,25 L5.45926954,22.1507599 C4.87848315,21.7646551 4.84202007,20.9267789 5.38708085,20.4919534 L13.1248496,14.3445092 C14.7921776,13.0198631 17.0111909,12.6534786 18.9977039,13.3369188 L9.74515232,25 Z M34.6339429,29 C35.362045,31.0258762 34.9920354,33.3033236 33.6289595,34.9968983 L27.4993583,42.6127162 C27.0653755,43.1580628 26.229123,43.1215806 25.8437664,42.5404896 L22.9999641,38.2522333 L34.6339429,29 L34.6339429,29 Z" id="Path" fill="#B4CCEF" fill-rule="nonzero"></path>
    </g>
</svg>