<?xml version="1.0" encoding="UTF-8"?>
<svg width="48px" height="48px" viewBox="0 0 48 48" version="1.1" xmlns="http://www.w3.org/2000/svg" xmlns:xlink="http://www.w3.org/1999/xlink">
    <!-- Generator: Sketch 62 (91390) - https://sketch.com -->
    <title>sass</title>
    <desc>Created with Sketch.</desc>
    <g id="sass" stroke="none" stroke-width="1" fill="none" fill-rule="evenodd">
        <polygon id="Path" points="0 0 48 0 48 48 0 48"></polygon>
        <path d="M40.5855658,25.793214 C38.9780057,25.8022846 37.5859844,26.1883684 36.4184826,26.7632283 C35.987405,25.9100539 35.5563275,25.1645592 35.484571,24.6078405 C35.403744,23.9612241 35.3049554,23.5659799 35.403744,22.7937224 C35.5024428,22.0212852 35.9514819,20.9256297 35.9514819,20.8358219 C35.9424113,20.7549949 35.8526035,20.3598404 34.9276727,20.3508597 C34.0027419,20.3418789 33.2033624,20.5304753 33.1135546,20.7729564 C33.0237468,21.0154376 32.8441311,21.5722461 32.7273809,22.1470162 C32.5657268,22.9912098 30.8773397,25.9818104 29.9163959,27.5534474 C29.6020685,26.9427541 29.3326451,26.4039072 29.2786706,25.9727398 C29.1979333,25.3262133 29.0990549,24.930969 29.1979333,24.1587115 C29.2967219,23.3862744 29.7457611,22.2907087 29.7457611,22.2009009 C29.7367803,22.1200738 29.6469725,21.7249194 28.7220417,21.7159386 C27.7969312,21.7069578 26.9977314,21.8955543 26.9079235,22.1380354 C26.8181157,22.3805165 26.7193271,22.9552866 26.5217499,23.5120952 C26.3330636,24.0689037 24.087868,29.0622189 23.5041171,30.3644324 C23.2077513,31.0290103 22.9473984,31.5588764 22.7587121,31.9181078 C22.5701157,32.2773391 22.7497314,31.9450501 22.7317698,31.9809732 C22.5701157,32.2863198 22.4803079,32.4569547 22.4803079,32.4569547 L22.4803079,32.4660253 C22.3545769,32.6905449 22.2198652,32.9059939 22.1569099,32.9059939 C22.112006,32.9059939 22.0221982,32.3042814 22.1748715,31.4781392 C22.5071604,29.7447583 23.3154309,27.0416326 23.3065399,26.942844 C23.3065399,26.89794 23.4591234,26.4218688 22.7855647,26.1794774 C22.1299675,25.9369963 21.896557,26.3411315 21.8425825,26.3411315 C21.7886978,26.3411315 21.7437939,26.484824 21.7437939,26.484824 C21.7437939,26.484824 22.4712373,23.4404285 20.3517726,23.4404285 C19.0226167,23.4404285 17.1905371,24.8863345 16.283478,26.2065096 C15.7087079,26.520837 14.4873215,27.1853251 13.1940888,27.8948967 C12.7001457,28.1643202 12.1882411,28.4517053 11.7032788,28.712148 L11.60458,28.6041989 C9.03607619,25.8650602 4.28524215,23.9252112 4.48281937,20.2430903 C4.55466563,18.9049536 5.02166633,15.375506 13.6073844,11.1006535 C20.6393372,7.59814824 26.270288,8.55909199 27.2491035,10.6965183 C28.6411248,13.7499844 24.2405413,19.425839 16.930274,20.2430903 C14.1462314,20.5574177 12.682274,19.4797237 12.3141517,19.0755885 C11.927978,18.6534917 11.8740933,18.6355302 11.7304008,18.7163572 C11.4969005,18.8420882 11.640593,19.219281 11.7304008,19.4438006 C11.9459396,20.0095899 12.8440179,21.0154376 14.3707509,21.5183614 C15.7087977,21.9584198 18.9778924,22.2009009 22.9294368,20.6741678 C27.3569627,18.9588383 30.814564,14.1990235 29.7997356,10.2205368 C28.7669456,6.17020379 22.0493201,4.84104796 15.6999068,7.09522441 C11.9189074,8.44234181 7.82367053,10.543845 4.87797381,13.3009452 C1.37546856,16.5699501 0.818660036,19.425839 1.05216039,20.6113024 C1.86950142,24.841251 7.69793957,27.5983513 10.0329431,29.636989 C9.9161929,29.6997646 9.80842351,29.7626301 9.7096349,29.8166046 C8.54213315,30.3912849 4.09664572,32.7173974 2.98302866,35.1780421 C1.72571909,37.9620847 3.18060588,39.964889 4.15053041,40.2343125 C7.15011183,41.0695253 10.2215395,39.5697346 11.8829843,37.1000194 C13.5353585,34.6303041 13.3378711,31.4241647 12.5745046,29.9602971 L12.5474724,29.9064124 L13.4635123,29.3675655 C14.0563337,29.0173149 14.6400846,28.6940068 15.1518994,28.4155127 C14.8646042,29.1968408 14.6579563,30.1218614 14.5502768,31.4689788 C14.4245458,33.0496864 15.0711622,35.097215 15.9243365,35.9054855 C16.3015294,36.2556462 16.7505685,36.2647168 17.0289728,36.2647168 C18.0168589,36.2647168 18.465898,35.4473757 18.9598411,34.4685602 C19.5705343,33.2741161 20.1093812,31.8910756 20.1093812,31.8910756 C20.1093812,31.8910756 19.4358225,35.636062 21.276883,35.636062 C21.9504417,35.636062 22.6240004,34.7649261 22.929347,34.3158869 L22.929347,34.3248677 C22.929347,34.3248677 22.9473086,34.2979254 22.9832317,34.2350599 C23.0209138,34.1793423 23.0568543,34.1224665 23.0910011,34.0645148 L23.0910011,34.0465533 C23.3604246,33.5795526 23.962137,32.5108394 24.8602153,30.7416252 C26.0186464,28.4605064 27.1323533,25.6046175 27.1323533,25.6046175 C27.1323533,25.6046175 27.2401227,26.3051186 27.5724117,27.4546588 C27.7698991,28.1372881 28.2009766,28.8826032 28.5332656,29.6100466 C28.2638421,29.9872395 28.102188,30.2028681 28.102188,30.2028681 L28.1111688,30.2118489 C27.8957198,30.4992339 27.6531489,30.8046703 27.4017768,31.1099271 C26.485737,32.2055826 25.3900815,33.4540012 25.2463889,33.8132325 C25.0757541,34.2352395 25.1116772,34.5495669 25.4439662,34.8011186 C25.6864473,34.9807343 26.1175249,35.0165676 26.5755448,34.9807343 C27.4017768,34.9267598 27.9765469,34.7202916 28.2639319,34.5944708 C28.7129711,34.4328167 29.2248757,34.1903356 29.7188187,33.8311043 C30.616897,33.1666162 31.1647247,32.223634 31.11084,30.9663244 C31.0838977,30.2748041 30.8593781,29.5922647 30.5809739,28.9456483 C30.6618009,28.8288981 30.7427178,28.7120581 30.823455,28.586417 C32.2424187,26.5117664 33.3380741,24.2307374 33.3380741,24.2307374 C33.3380741,24.2307374 33.4458435,24.9312384 33.7781325,26.0807786 C33.9486776,26.6645295 34.2900371,27.3022549 34.5953837,27.9309097 C33.2662279,29.0175844 32.4310151,30.2748939 32.14363,31.101126 C31.6137639,32.627859 32.0268799,33.3193793 32.808208,33.4810334 C33.1583687,33.5528796 33.6613823,33.3912255 34.0384854,33.2295715 C34.5054861,33.0768981 35.0712754,32.8163656 35.5922506,32.4302818 C36.4903289,31.7657039 37.352484,30.8406833 37.3075801,29.5923545 C37.2806377,29.0175844 37.1279644,28.4517951 36.9214064,27.9129481 C38.0529851,27.4459474 39.5167628,27.1765239 41.3758747,27.4010435 C45.3723229,27.8680442 46.1626318,30.3647018 46.0100483,31.4064726 C45.857375,32.4483332 45.0221622,33.0230135 44.7436682,33.2026291 C44.4652639,33.373264 44.3754561,33.4362193 44.4023984,33.5618604 C44.4383215,33.7505467 44.5640525,33.7414761 44.8065336,33.7056427 C45.1388226,33.6516682 46.9080368,32.8524684 46.979883,30.9306707 C47.0876524,28.4605962 44.7436682,25.7663614 40.5855658,25.793214 L40.5855658,25.793214 Z M9.76351959,36.1839795 C8.44334454,37.6298855 6.58432252,38.1777133 5.79401364,37.7107126 C4.94083929,37.2167695 5.27303844,35.088324 6.89864992,33.5526102 C7.88653601,32.6186088 9.17078793,31.7564537 10.0149815,31.2265875 C10.2035779,31.1098373 10.490963,30.9392923 10.8322327,30.7326444 C10.8861174,30.6968111 10.9220406,30.6787597 10.9220406,30.6787597 C10.984906,30.6428366 11.0567523,30.5979327 11.1285986,30.5530288 C11.730311,32.7443398 11.1555409,34.6662273 9.76351959,36.1839795 L9.76351959,36.1839795 Z M19.417861,29.6190274 C18.9598411,30.7416252 17.9899165,33.6244565 17.4061657,33.4628024 C16.903152,33.3280906 16.5978952,31.1457604 17.3072872,28.9903726 C17.6665185,27.9036081 18.4298851,26.6104652 18.8789242,26.1074516 C19.6064574,25.2991811 20.3966765,25.0297576 20.5943435,25.3620466 C20.8278439,25.793214 19.705246,28.9185263 19.417861,29.6190274 Z M27.3838152,33.4268792 C27.186238,33.5257577 27.0066224,33.5975141 26.9257953,33.5437192 C26.8629298,33.5077961 27.0065325,33.3730844 27.0065325,33.3730844 C27.0065325,33.3730844 28.0033994,32.3043712 28.3985539,31.8104282 C28.6230734,31.5231329 28.8924969,31.190844 29.179882,30.8135613 L29.179882,30.9213307 C29.1799718,32.2144736 27.9406238,33.0766287 27.3838152,33.4268792 Z M33.5265808,32.0258771 C33.3828883,31.9181078 33.4009396,31.5858188 33.8858121,30.544048 C34.0744983,30.130932 34.5054861,29.4394117 35.250891,28.7838146 C35.3406989,29.0532381 35.3946734,29.313591 35.3856028,29.5561619 C35.3767118,31.1727028 34.2271716,31.7744152 33.5265808,32.0258771 Z" id="Shape" fill="#1565D8" fill-rule="nonzero"></path>
    </g>
</svg>