<?xml version="1.0" encoding="UTF-8"?>
<svg width="48px" height="48px" viewBox="0 0 48 48" version="1.1" xmlns="http://www.w3.org/2000/svg" xmlns:xlink="http://www.w3.org/1999/xlink">
    <!-- Generator: Sketch 62 (91390) - https://sketch.com -->
    <title>shield</title>
    <desc>Created with Sketch.</desc>
    <g id="shield" stroke="none" stroke-width="1" fill="none" fill-rule="evenodd">
        <rect id="Base" x="0" y="0" width="48" height="48"></rect>
        <path d="M24.3217684,4.05661533 L41.3744,10.2470915 C41.7498218,10.3833778 42,10.7415956 42,11.1428571 L42,24 C42,34.0117498 36.0043005,40.7088862 24.2517628,43.9657544 C24.0891075,44.0108295 23.9174287,44.011418 23.7544714,43.967459 C11.9980302,40.7960714 6,34.0963316 6,24 L6,11.1428571 C6,10.7415956 6.25017822,10.3833778 6.62559998,10.2470915 L23.6782316,4.05661533 C23.8861726,3.98112822 24.1138274,3.98112822 24.3217684,4.05661533 Z M18.7990932,22.3675082 C18.4384185,21.9864645 17.8387628,21.9714991 17.4597246,22.3340821 C17.0806864,22.6966651 17.0657997,23.2994936 17.4264744,23.6805373 L21.9561664,28.4660433 C22.3336493,28.8648445 22.9678626,28.8598035 23.3390257,28.4550517 L32.0724915,18.9312422 C32.4271277,18.5445129 32.4027611,17.9419964 32.0180672,17.5854839 C31.6333733,17.2289714 31.0340279,17.2534669 30.6793918,17.6401962 L22.6315187,26.4163696 L18.7990932,22.3675082 Z" id="Shape" fill="#1565D8"></path>
    </g>
</svg>