<svg xmlns="http://www.w3.org/2000/svg" width="34" height="34" viewBox="0 0 34 34">
    <g fill="none" fill-rule="evenodd">
        <path d="M0 0L40 0 40 40 0 40z" transform="translate(-3 -3)"/>
        <path fill="#1565D8" d="M8.07 24.047c-.046.244-.07.496-.07.753v9.6c0 .257.024.51.07.753-2.747-.357-4.87-2.707-4.87-5.553s2.123-5.196 4.87-5.553zm23.86 0c2.747.357 4.87 2.707 4.87 5.553s-2.123 5.196-4.87 5.553c.046-.244.07-.496.07-.753v-9.6c0-.257-.024-.51-.07-.753zM20 3.248c9.5 0 16.8 7.253 16.8 16.752v5.074c-.65-.802-1.467-1.462-2.4-1.926V20c0-8.174-6.226-14.352-14.4-14.352S5.6 11.826 5.6 20v3.148c-.933.464-1.75 1.124-2.4 1.926V20c0-9.5 7.3-16.752 16.8-16.752z" transform="translate(-3 -3)"/>
        <path fill="#1565D8" d="M13.6 22.4c1.325 0 2.4 1.075 2.4 2.4v9.6c0 1.325-1.075 2.4-2.4 2.4H12c-1.325 0-2.4-1.075-2.4-2.4v-9.6c0-1.325 1.075-2.4 2.4-2.4h1.6zm14.4 0c1.325 0 2.4 1.075 2.4 2.4v9.6c0 1.325-1.075 2.4-2.4 2.4h-1.6c-1.325 0-2.4-1.075-2.4-2.4v-9.6c0-1.325 1.075-2.4 2.4-2.4H28z" opacity=".3" transform="translate(-3 -3)"/>
    </g>
</svg>
