<?xml version="1.0" encoding="UTF-8"?>
<svg width="48px" height="48px" viewBox="0 0 48 48" version="1.1" xmlns="http://www.w3.org/2000/svg" xmlns:xlink="http://www.w3.org/1999/xlink">
    <!-- Generator: Sketch 62 (91390) - https://sketch.com -->
    <title>syntax</title>
    <desc>Created with Sketch.</desc>
    <g id="syntax" stroke="none" stroke-width="1" fill="none" fill-rule="evenodd">
        <rect id="Base" x="0" y="0" width="48" height="48"></rect>
        <path d="M43.8292285,38.3 L4.17223871,38.3 L7.34566516,28.8487509 C7.35114665,28.8324257 7.35676711,28.816175 7.362525,28.8 L40.6389427,28.8 C40.6447001,28.816175 40.6503206,28.8324257 40.6558021,28.8487509 L43.8292285,38.3 Z M20.1722455,32.6 C19.6437429,32.6 19.2153069,33.0253295 19.2153069,33.55 C19.2153069,34.0746705 19.6437429,34.5 20.1722455,34.5 L27.8277545,34.5 C28.3562571,34.5 28.7846931,34.0746705 28.7846931,33.55 C28.7846931,33.0253295 28.3562571,32.6 27.8277545,32.6 L20.1722455,32.6 Z M7.73204332,26.9 L7.73204332,8.85 C7.73204332,7.27598846 9.01735137,6 10.6028592,6 L37.3971408,6 C38.9826486,6 40.2679567,7.27598846 40.2679567,8.85 L40.2679567,26.9 L7.73204332,26.9 Z M18.6900102,11.7674616 L17.077696,10.6033718 L12.6640546,16.628125 L17.077696,22.6528782 L18.6900102,21.4887884 L15.129163,16.628125 L18.6900102,11.7674616 Z M28.6130317,11.7674616 L32.1738789,16.628125 L28.6130317,21.4887884 L30.2253459,22.6528782 L34.6389873,16.628125 L30.2253459,10.6033718 L28.6130317,11.7674616 Z M24.895188,8.95127134 L20.9079437,23.7950213 L22.8342511,24.3049787 L26.8214954,9.46122866 L24.895188,8.95127134 Z" id="Shape" fill="#1565D8"></path>
        <path d="M44,40.2 C43.5566787,42.3681283 41.6258123,44 39.3110181,44 L8.68898194,44 C6.37418768,44 4.44332128,42.3681283 4,40.2 L44,40.2 Z" id="Path" fill="#B4CCEF" fill-rule="nonzero"></path>
    </g>
</svg>