<?xml version="1.0" encoding="UTF-8"?>
<svg width="48px" height="48px" viewBox="0 0 48 48" version="1.1" xmlns="http://www.w3.org/2000/svg" xmlns:xlink="http://www.w3.org/1999/xlink">
    <!-- Generator: Sketch 62 (91390) - https://sketch.com -->
    <title>tent</title>
    <desc>Created with Sketch.</desc>
    <g id="tent" stroke="none" stroke-width="1" fill="none" fill-rule="evenodd">
        <rect id="Base" x="0" y="0" width="48" height="48"></rect>
        <path d="M26,14 C26,15.1045695 25.1045695,16 24,16 C22.8954305,16 22,15.1045695 22,14 L22,6 C22,4.8954305 22.8954305,4 24,4 C25.1045695,4 26,4.8954305 26,6 L26,14 Z" id="Path" fill="#B4CCEF" fill-rule="nonzero"></path>
        <path d="M32.5712462,44 L29.8530181,35.3493414 C29.2411819,33.4021957 27.8122385,31.8678684 25.9847248,31.2057994 C22.7407767,30.0305866 19.2313607,31.8975338 18.1467265,35.3493414 L15.4284985,44 L6.87871317,44 C5.29221495,44 4,42.7431967 4,41.1852776 C4,40.7106881 4.12271796,40.2439738 4.35652722,39.8284458 L18.0978265,15.4072794 C19.8841264,12.2326503 23.9687155,11.0702222 27.2256472,12.8037674 C28.3540847,13.4043933 29.2828475,14.3077045 29.9015562,15.4072794 L43.6428554,39.8284458 C44.4125598,41.1963717 43.8961896,42.9127327 42.4970612,43.6574374 C42.0745999,43.8822981 41.6013818,44 41.1206695,44 L32.5712462,44 L32.5712462,44 Z" id="Path" fill="#1565D8"></path>
        <path d="M28.0738774,36.0618482 C27.6401351,34.7246396 26.6361678,33.6803364 25.3645793,33.2340709 C23.1258754,32.4483951 20.6912178,33.703093 19.9261226,36.0618482 L18,42 L30,42 L28.0738774,36.0618482 Z" id="Path" fill="#B4CCEF" fill-rule="nonzero"></path>
    </g>
</svg>