<svg xmlns="http://www.w3.org/2000/svg" width="14" height="14" viewBox="0 0 14 14">
    <g fill="none" fill-rule="evenodd">
        <path d="M0 0L20 0 20 20 0 20z" transform="translate(-3 -2)"/>
        <path d="M0 0L20 0 20 20 0 20z" transform="translate(-3 -2)"/>
        <path fill="#959EAD" fill-rule="nonzero" d="M6.767 7.157c.868-1.245 1.41-2.674 1.628-4.291.02-.154.129-.282.277-.329 1.496-.467 2.346.275 2.332 1.967-.003.329-.018.62-.05 1.067-.071.997-.065 1.27.045 1.452.107.176.452.237 1.269.08.258-.05.516-.105.803-.172.126-.03 1.037-.254 1.27-.305.444-.097.762-.138 1.042-.12.76.047 1.162.54 1.232 1.484.122 1.663-.256 5.004-.634 6.235-.386 1.257-1.06 1.732-2.676 1.76-1.039.019-2.637.019-4.801 0-.553-.013-1.054-.12-1.5-.322.126-.262.196-.554.196-.863V8.4c0-.47-.162-.902-.433-1.243zM4.4 7.2c-.663 0-1.2.537-1.2 1.2v6.4c0 .663.537 1.2 1.2 1.2h.8c.663 0 1.2-.537 1.2-1.2V8.4c0-.663-.537-1.2-1.2-1.2h-.8z" transform="translate(-3 -2)"/>
    </g>
</svg>
