<svg xmlns="http://www.w3.org/2000/svg" width="34" height="32" viewBox="0 0 34 32">
    <g fill="none" fill-rule="evenodd">
        <path d="M0 0L40 0 40 40 0 40z" transform="translate(-3 -4)"/>
        <path fill="#1565D8" d="M29.6 28.8c.442 0 .8.358.8.8v4.8c0 .442-.358.8-.8.8H10.4c-.442 0-.8-.358-.8-.8v-4.8c0-.442.358-.8.8-.8zm-8.883-17.158l4.414 8.828 7.259-4.356c.61-.367 1.36.189 1.187.88l-2.65 10.605c-.38-.252-.837-.399-1.327-.399H10.4c-.49 0-.944.146-1.324.398l-2.65-10.604c-.174-.692.577-1.247 1.188-.88l7.237 4.355 4.436-8.828c.295-.589 1.135-.588 1.43.001z" transform="translate(-3 -4)"/>
        <path fill="#1565D8" d="M6.4 11.2c1.767 0 3.2 1.433 3.2 3.2 0 1.767-1.433 3.2-3.2 3.2-1.767 0-3.2-1.433-3.2-3.2 0-1.767 1.433-3.2 3.2-3.2zm27.2 0c1.767 0 3.2 1.433 3.2 3.2 0 1.767-1.433 3.2-3.2 3.2-1.767 0-3.2-1.433-3.2-3.2 0-1.767 1.433-3.2 3.2-3.2zM20 4.8c2.21 0 4 1.79 4 4s-1.79 4-4 4-4-1.79-4-4 1.79-4 4-4z" opacity=".3" transform="translate(-3 -4)"/>
    </g>
</svg>
