<?xml version="1.0" encoding="UTF-8"?>
<svg width="48px" height="48px" viewBox="0 0 48 48" version="1.1" xmlns="http://www.w3.org/2000/svg" xmlns:xlink="http://www.w3.org/1999/xlink">
    <!-- Generator: Sketch 62 (91390) - https://sketch.com -->
    <title>user-approve</title>
    <desc>Created with Sketch.</desc>
    <g id="user-approve" stroke="none" stroke-width="1" fill="none" fill-rule="evenodd">
        <rect id="Base" x="0" y="0" width="48" height="48"></rect>
        <path d="M20,22 C15.0294373,22 11,17.9705627 11,13 C11,8.02943725 15.0294373,4 20,4 C24.9705627,4 29,8.02943725 29,13 C29,17.9705627 24.9705627,22 20,22 Z M20,24 C28.2842712,24 35,30.7157288 35,39 L35,43 C35,43.5522847 34.5522847,44 34,44 L6,44 C5.44771525,44 5,43.5522847 5,43 L5,39 C5,30.7157288 11.7157288,24 20,24 Z" id="Path" fill="#1565D8"></path>
        <path d="M40.5076277,17.5455288 C40.9664458,16.943043 41.8343187,16.8209402 42.4460761,17.2728045 C43.0578335,17.7246689 43.1818154,18.5793885 42.7229973,19.1818743 L37.1845734,26.4545211 C36.6790127,27.1183858 35.6936333,27.1873532 35.0978243,26.6005742 L31.4055417,22.9642508 C30.8648194,22.4317236 30.8648194,21.5683263 31.4055417,21.0357991 C31.946264,20.5032719 32.822948,20.5032719 33.3636703,21.0357991 L35.9270823,23.5603608 L40.5076277,17.5455288 Z" id="Path" fill="#B4CCEF" fill-rule="nonzero"></path>
    </g>
</svg>