<?xml version="1.0" encoding="UTF-8"?>
<svg width="48px" height="48px" viewBox="0 0 48 48" version="1.1" xmlns="http://www.w3.org/2000/svg" xmlns:xlink="http://www.w3.org/1999/xlink">
    <!-- Generator: Sketch 62 (91390) - https://sketch.com -->
    <title>wallet</title>
    <desc>Created with Sketch.</desc>
    <g id="wallet" stroke="none" stroke-width="1" fill="none" fill-rule="evenodd">
        <rect id="Base" x="0" y="0" width="48" height="48"></rect>
        <path d="M42.564,21.708 L37.104,21.708 C34.0885253,21.708 31.644,24.1525253 31.644,27.168 C31.644,30.1834747 34.0885253,32.628 37.104,32.628 L42.564,32.628 L42.564,35.904 C42.564,38.9194747 40.1194747,41.364 37.104,41.364 L6.528,41.364 C4.71871516,41.364 3.252,39.8972848 3.252,38.088 L3.252,14.064 C3.252,13.4609051 3.74090505,12.972 4.344,12.972 L37.104,12.972 C40.1194747,12.972 42.564,15.4165253 42.564,18.432 L42.564,21.708 L42.564,21.0702959 L42.564,21.708 Z" id="Path" fill="#1565D8"></path>
        <path d="M44.748,23.892 L44.748,30.444 L37.104,30.444 C35.2947152,30.444 33.828,28.9772848 33.828,27.168 C33.828,25.3587152 35.2947152,23.892 37.104,23.892 L37.104,23.892 L44.748,23.892 Z M32.736,6.42 C35.4001445,6.42 37.6186309,8.32808936 38.0994145,10.8522234 C37.7736062,10.809854 37.4413553,10.788 37.104,10.788 L4.344,10.788 C3.99057233,10.788 3.65021648,10.8439671 3.33131167,10.9475222 C3.77376885,8.37627106 6.01442863,6.42 8.712,6.42 L32.736,6.42 Z" id="Path" fill="#B4CCEF" fill-rule="nonzero"></path>
    </g>
</svg>