<?xml version="1.0" encoding="UTF-8"?>
<svg width="48px" height="48px" viewBox="0 0 48 48" version="1.1" xmlns="http://www.w3.org/2000/svg" xmlns:xlink="http://www.w3.org/1999/xlink">
    <!-- Generator: Sketch 62 (91390) - https://sketch.com -->
    <title>workflow</title>
    <desc>Created with Sketch.</desc>
    <g id="workflow" stroke="none" stroke-width="1" fill="none" fill-rule="evenodd">
        <rect id="Base" x="0" y="0" width="48" height="48"></rect>
        <path d="M23.6393527,38.7619048 L25.0101525,40.1327046 C25.5680444,40.6905964 25.5680444,41.5951178 25.0101525,42.1530097 C24.4522607,42.7109015 23.5477393,42.7109015 22.9898475,42.1530097 L19.1803236,38.3434859 C18.6224318,37.785594 18.6224318,36.8810726 19.1803236,36.3231808 L22.9898475,32.513657 C23.5477393,31.9557651 24.4522607,31.9557651 25.0101525,32.513657 C25.5680444,33.0715488 25.5680444,33.9760702 25.0101525,34.5339621 L23.6393527,35.9047619 L33.047619,35.9047619 L33.047619,38.7619048 L23.6393527,38.7619048 L23.6393527,38.7619048 Z M38.7619048,24.3606473 L40.1327046,22.9898475 C40.6905964,22.4319556 41.5951178,22.4319556 42.1530097,22.9898475 C42.7109015,23.5477393 42.7109015,24.4522607 42.1530097,25.0101525 L38.3434859,28.8196764 C38.06454,29.0986223 37.6989366,29.2380952 37.3333333,29.2380952 C36.96773,29.2380952 36.6021267,29.0986223 36.3231808,28.8196764 L32.513657,25.0101525 C31.9557651,24.4522607 31.9557651,23.5477393 32.513657,22.9898475 C33.0715488,22.4319556 33.9760702,22.4319556 34.5339621,22.9898475 L35.9047619,24.3606473 L35.9047619,14.952381 L38.7619048,14.952381 L38.7619048,24.3606473 L38.7619048,24.3606473 Z M24.3606473,12.0952381 L14.952381,12.0952381 L14.952381,9.23809524 L24.3606473,9.23809524 L22.9898475,7.8672954 C22.4319556,7.30940356 22.4319556,6.40488216 22.9898475,5.84699031 C23.5477393,5.28909847 24.4522607,5.28909847 25.0101525,5.84699031 L28.8196764,9.65651412 C29.3775682,10.214406 29.3775682,11.1189274 28.8196764,11.6768192 L25.0101525,15.486343 C24.4522607,16.0442349 23.5477393,16.0442349 22.9898475,15.486343 C22.4319556,14.9284512 22.4319556,14.0239298 22.9898475,13.4660379 L24.3606473,12.0952381 L24.3606473,12.0952381 Z M9.23809524,23.6393527 L7.8672954,25.0101525 C7.30940356,25.5680444 6.40488216,25.5680444 5.84699031,25.0101525 C5.28909847,24.4522607 5.28909847,23.5477393 5.84699031,22.9898475 L9.65651412,19.1803236 C10.214406,18.6224318 11.1189274,18.6224318 11.6768192,19.1803236 L15.486343,22.9898475 C16.0442349,23.5477393 16.0442349,24.4522607 15.486343,25.0101525 C14.9284512,25.5680444 14.0239298,25.5680444 13.4660379,25.0101525 L12.0952381,23.6393527 L12.0952381,33.047619 L9.23809524,33.047619 L9.23809524,23.6393527 Z" id="path" fill="#B4CCEF" fill-rule="nonzero"></path>
        <path d="M14.4761905,30.6666667 C16.0541469,30.6666667 17.3333333,31.9458531 17.3333333,33.5238095 L17.3333333,41.1428571 C17.3333333,42.7208136 16.0541469,44 14.4761905,44 L6.85714286,44 C5.27918643,44 4,42.7208136 4,41.1428571 L4,33.5238095 C4,31.9458531 5.27918643,30.6666667 6.85714286,30.6666667 L14.4761905,30.6666667 Z M41.1428571,30.6666667 C42.7208136,30.6666667 44,31.9458531 44,33.5238095 L44,41.1428571 C44,42.7208136 42.7208136,44 41.1428571,44 L33.5238095,44 C31.9458531,44 30.6666667,42.7208136 30.6666667,41.1428571 L30.6666667,33.5238095 C30.6666667,31.9458531 31.9458531,30.6666667 33.5238095,30.6666667 L41.1428571,30.6666667 Z M14.4761905,4 C16.0541469,4 17.3333333,5.27918643 17.3333333,6.85714286 L17.3333333,14.4761905 C17.3333333,16.0541469 16.0541469,17.3333333 14.4761905,17.3333333 L6.85714286,17.3333333 C5.27918643,17.3333333 4,16.0541469 4,14.4761905 L4,6.85714286 C4,5.27918643 5.27918643,4 6.85714286,4 L14.4761905,4 Z M41.1428571,4 C42.7208136,4 44,5.27918643 44,6.85714286 L44,14.4761905 C44,16.0541469 42.7208136,17.3333333 41.1428571,17.3333333 L33.5238095,17.3333333 C31.9458531,17.3333333 30.6666667,16.0541469 30.6666667,14.4761905 L30.6666667,6.85714286 C30.6666667,5.27918643 31.9458531,4 33.5238095,4 L41.1428571,4 Z" id="path" fill="#1565D8"></path>
    </g>
</svg>