<svg viewBox="0 0 120 142" version="1.1" xmlns="http://www.w3.org/2000/svg">
    <g id="Desktop" stroke="none" stroke-width="1" fill="none" fill-rule="evenodd" opacity="0.200000003">
        <g id="About" transform="translate(-1247.000000, -1625.000000)" fill="#7282A0">
            <g transform="translate(-75.000000, 805.000000)" id="Pattern">
                <path d="M1437.81395,953.647059 C1440.12584,953.647059 1442,955.516928 1442,957.823529 C1442,960.13013 1440.12584,962 1437.81395,962 C1435.50206,962 1433.62791,960.13013 1433.62791,957.823529 C1433.62791,955.516928 1435.50206,953.647059 1437.81395,953.647059 Z M1415.48837,953.647059 C1417.80026,953.647059 1419.67442,955.516928 1419.67442,957.823529 C1419.67442,960.13013 1417.80026,962 1415.48837,962 C1413.17648,962 1411.30233,960.13013 1411.30233,957.823529 C1411.30233,955.516928 1413.17648,953.647059 1415.48837,953.647059 Z M1393.16279,953.647059 C1395.47468,953.647059 1397.34884,955.516928 1397.34884,957.823529 C1397.34884,960.13013 1395.47468,962 1393.16279,962 C1390.8509,962 1388.97674,960.13013 1388.97674,957.823529 C1388.97674,955.516928 1390.8509,953.647059 1393.16279,953.647059 Z M1370.83721,953.647059 C1373.1491,953.647059 1375.02326,955.516928 1375.02326,957.823529 C1375.02326,960.13013 1373.1491,962 1370.83721,962 C1368.52532,962 1366.65116,960.13013 1366.65116,957.823529 C1366.65116,955.516928 1368.52532,953.647059 1370.83721,953.647059 Z M1348.51163,953.647059 C1350.82352,953.647059 1352.69767,955.516928 1352.69767,957.823529 C1352.69767,960.13013 1350.82352,962 1348.51163,962 C1346.19974,962 1344.32558,960.13013 1344.32558,957.823529 C1344.32558,955.516928 1346.19974,953.647059 1348.51163,953.647059 Z M1326.18605,953.647059 C1328.49794,953.647059 1330.37209,955.516928 1330.37209,957.823529 C1330.37209,960.13013 1328.49794,962 1326.18605,962 C1323.87416,962 1322,960.13013 1322,957.823529 C1322,955.516928 1323.87416,953.647059 1326.18605,953.647059 Z M1437.81395,931.372549 C1440.12584,931.372549 1442,933.242419 1442,935.54902 C1442,937.855621 1440.12584,939.72549 1437.81395,939.72549 C1435.50206,939.72549 1433.62791,937.855621 1433.62791,935.54902 C1433.62791,933.242419 1435.50206,931.372549 1437.81395,931.372549 Z M1415.48837,931.372549 C1417.80026,931.372549 1419.67442,933.242419 1419.67442,935.54902 C1419.67442,937.855621 1417.80026,939.72549 1415.48837,939.72549 C1413.17648,939.72549 1411.30233,937.855621 1411.30233,935.54902 C1411.30233,933.242419 1413.17648,931.372549 1415.48837,931.372549 Z M1393.16279,931.372549 C1395.47468,931.372549 1397.34884,933.242419 1397.34884,935.54902 C1397.34884,937.855621 1395.47468,939.72549 1393.16279,939.72549 C1390.8509,939.72549 1388.97674,937.855621 1388.97674,935.54902 C1388.97674,933.242419 1390.8509,931.372549 1393.16279,931.372549 Z M1370.83721,931.372549 C1373.1491,931.372549 1375.02326,933.242419 1375.02326,935.54902 C1375.02326,937.855621 1373.1491,939.72549 1370.83721,939.72549 C1368.52532,939.72549 1366.65116,937.855621 1366.65116,935.54902 C1366.65116,933.242419 1368.52532,931.372549 1370.83721,931.372549 Z M1348.51163,931.372549 C1350.82352,931.372549 1352.69767,933.242419 1352.69767,935.54902 C1352.69767,937.855621 1350.82352,939.72549 1348.51163,939.72549 C1346.19974,939.72549 1344.32558,937.855621 1344.32558,935.54902 C1344.32558,933.242419 1346.19974,931.372549 1348.51163,931.372549 Z M1326.18605,931.372549 C1328.49794,931.372549 1330.37209,933.242419 1330.37209,935.54902 C1330.37209,937.855621 1328.49794,939.72549 1326.18605,939.72549 C1323.87416,939.72549 1322,937.855621 1322,935.54902 C1322,933.242419 1323.87416,931.372549 1326.18605,931.372549 Z M1437.81395,909.098039 C1440.12584,909.098039 1442,910.967909 1442,913.27451 C1442,915.581111 1440.12584,917.45098 1437.81395,917.45098 C1435.50206,917.45098 1433.62791,915.581111 1433.62791,913.27451 C1433.62791,910.967909 1435.50206,909.098039 1437.81395,909.098039 Z M1415.48837,909.098039 C1417.80026,909.098039 1419.67442,910.967909 1419.67442,913.27451 C1419.67442,915.581111 1417.80026,917.45098 1415.48837,917.45098 C1413.17648,917.45098 1411.30233,915.581111 1411.30233,913.27451 C1411.30233,910.967909 1413.17648,909.098039 1415.48837,909.098039 Z M1393.16279,909.098039 C1395.47468,909.098039 1397.34884,910.967909 1397.34884,913.27451 C1397.34884,915.581111 1395.47468,917.45098 1393.16279,917.45098 C1390.8509,917.45098 1388.97674,915.581111 1388.97674,913.27451 C1388.97674,910.967909 1390.8509,909.098039 1393.16279,909.098039 Z M1370.83721,909.098039 C1373.1491,909.098039 1375.02326,910.967909 1375.02326,913.27451 C1375.02326,915.581111 1373.1491,917.45098 1370.83721,917.45098 C1368.52532,917.45098 1366.65116,915.581111 1366.65116,913.27451 C1366.65116,910.967909 1368.52532,909.098039 1370.83721,909.098039 Z M1348.51163,909.098039 C1350.82352,909.098039 1352.69767,910.967909 1352.69767,913.27451 C1352.69767,915.581111 1350.82352,917.45098 1348.51163,917.45098 C1346.19974,917.45098 1344.32558,915.581111 1344.32558,913.27451 C1344.32558,910.967909 1346.19974,909.098039 1348.51163,909.098039 Z M1326.18605,909.098039 C1328.49794,909.098039 1330.37209,910.967909 1330.37209,913.27451 C1330.37209,915.581111 1328.49794,917.45098 1326.18605,917.45098 C1323.87416,917.45098 1322,915.581111 1322,913.27451 C1322,910.967909 1323.87416,909.098039 1326.18605,909.098039 Z M1437.81395,886.823529 C1440.12584,886.823529 1442,888.693399 1442,891 C1442,893.306601 1440.12584,895.176471 1437.81395,895.176471 C1435.50206,895.176471 1433.62791,893.306601 1433.62791,891 C1433.62791,888.693399 1435.50206,886.823529 1437.81395,886.823529 Z M1415.48837,886.823529 C1417.80026,886.823529 1419.67442,888.693399 1419.67442,891 C1419.67442,893.306601 1417.80026,895.176471 1415.48837,895.176471 C1413.17648,895.176471 1411.30233,893.306601 1411.30233,891 C1411.30233,888.693399 1413.17648,886.823529 1415.48837,886.823529 Z M1393.16279,886.823529 C1395.47468,886.823529 1397.34884,888.693399 1397.34884,891 C1397.34884,893.306601 1395.47468,895.176471 1393.16279,895.176471 C1390.8509,895.176471 1388.97674,893.306601 1388.97674,891 C1388.97674,888.693399 1390.8509,886.823529 1393.16279,886.823529 Z M1370.83721,886.823529 C1373.1491,886.823529 1375.02326,888.693399 1375.02326,891 C1375.02326,893.306601 1373.1491,895.176471 1370.83721,895.176471 C1368.52532,895.176471 1366.65116,893.306601 1366.65116,891 C1366.65116,888.693399 1368.52532,886.823529 1370.83721,886.823529 Z M1348.51163,886.823529 C1350.82352,886.823529 1352.69767,888.693399 1352.69767,891 C1352.69767,893.306601 1350.82352,895.176471 1348.51163,895.176471 C1346.19974,895.176471 1344.32558,893.306601 1344.32558,891 C1344.32558,888.693399 1346.19974,886.823529 1348.51163,886.823529 Z M1326.18605,886.823529 C1328.49794,886.823529 1330.37209,888.693399 1330.37209,891 C1330.37209,893.306601 1328.49794,895.176471 1326.18605,895.176471 C1323.87416,895.176471 1322,893.306601 1322,891 C1322,888.693399 1323.87416,886.823529 1326.18605,886.823529 Z M1437.81395,864.54902 C1440.12584,864.54902 1442,866.418889 1442,868.72549 C1442,871.032091 1440.12584,872.901961 1437.81395,872.901961 C1435.50206,872.901961 1433.62791,871.032091 1433.62791,868.72549 C1433.62791,866.418889 1435.50206,864.54902 1437.81395,864.54902 Z M1415.48837,864.54902 C1417.80026,864.54902 1419.67442,866.418889 1419.67442,868.72549 C1419.67442,871.032091 1417.80026,872.901961 1415.48837,872.901961 C1413.17648,872.901961 1411.30233,871.032091 1411.30233,868.72549 C1411.30233,866.418889 1413.17648,864.54902 1415.48837,864.54902 Z M1393.16279,864.54902 C1395.47468,864.54902 1397.34884,866.418889 1397.34884,868.72549 C1397.34884,871.032091 1395.47468,872.901961 1393.16279,872.901961 C1390.8509,872.901961 1388.97674,871.032091 1388.97674,868.72549 C1388.97674,866.418889 1390.8509,864.54902 1393.16279,864.54902 Z M1370.83721,864.54902 C1373.1491,864.54902 1375.02326,866.418889 1375.02326,868.72549 C1375.02326,871.032091 1373.1491,872.901961 1370.83721,872.901961 C1368.52532,872.901961 1366.65116,871.032091 1366.65116,868.72549 C1366.65116,866.418889 1368.52532,864.54902 1370.83721,864.54902 Z M1348.51163,864.54902 C1350.82352,864.54902 1352.69767,866.418889 1352.69767,868.72549 C1352.69767,871.032091 1350.82352,872.901961 1348.51163,872.901961 C1346.19974,872.901961 1344.32558,871.032091 1344.32558,868.72549 C1344.32558,866.418889 1346.19974,864.54902 1348.51163,864.54902 Z M1326.18605,864.54902 C1328.49794,864.54902 1330.37209,866.418889 1330.37209,868.72549 C1330.37209,871.032091 1328.49794,872.901961 1326.18605,872.901961 C1323.87416,872.901961 1322,871.032091 1322,868.72549 C1322,866.418889 1323.87416,864.54902 1326.18605,864.54902 Z M1437.81395,842.27451 C1440.12584,842.27451 1442,844.144379 1442,846.45098 C1442,848.757581 1440.12584,850.627451 1437.81395,850.627451 C1435.50206,850.627451 1433.62791,848.757581 1433.62791,846.45098 C1433.62791,844.144379 1435.50206,842.27451 1437.81395,842.27451 Z M1415.48837,842.27451 C1417.80026,842.27451 1419.67442,844.144379 1419.67442,846.45098 C1419.67442,848.757581 1417.80026,850.627451 1415.48837,850.627451 C1413.17648,850.627451 1411.30233,848.757581 1411.30233,846.45098 C1411.30233,844.144379 1413.17648,842.27451 1415.48837,842.27451 Z M1393.16279,842.27451 C1395.47468,842.27451 1397.34884,844.144379 1397.34884,846.45098 C1397.34884,848.757581 1395.47468,850.627451 1393.16279,850.627451 C1390.8509,850.627451 1388.97674,848.757581 1388.97674,846.45098 C1388.97674,844.144379 1390.8509,842.27451 1393.16279,842.27451 Z M1370.83721,842.27451 C1373.1491,842.27451 1375.02326,844.144379 1375.02326,846.45098 C1375.02326,848.757581 1373.1491,850.627451 1370.83721,850.627451 C1368.52532,850.627451 1366.65116,848.757581 1366.65116,846.45098 C1366.65116,844.144379 1368.52532,842.27451 1370.83721,842.27451 Z M1348.51163,842.27451 C1350.82352,842.27451 1352.69767,844.144379 1352.69767,846.45098 C1352.69767,848.757581 1350.82352,850.627451 1348.51163,850.627451 C1346.19974,850.627451 1344.32558,848.757581 1344.32558,846.45098 C1344.32558,844.144379 1346.19974,842.27451 1348.51163,842.27451 Z M1326.18605,842.27451 C1328.49794,842.27451 1330.37209,844.144379 1330.37209,846.45098 C1330.37209,848.757581 1328.49794,850.627451 1326.18605,850.627451 C1323.87416,850.627451 1322,848.757581 1322,846.45098 C1322,844.144379 1323.87416,842.27451 1326.18605,842.27451 Z M1437.81395,820 C1440.12584,820 1442,821.86987 1442,824.176471 C1442,826.483072 1440.12584,828.352941 1437.81395,828.352941 C1435.50206,828.352941 1433.62791,826.483072 1433.62791,824.176471 C1433.62791,821.86987 1435.50206,820 1437.81395,820 Z M1415.48837,820 C1417.80026,820 1419.67442,821.86987 1419.67442,824.176471 C1419.67442,826.483072 1417.80026,828.352941 1415.48837,828.352941 C1413.17648,828.352941 1411.30233,826.483072 1411.30233,824.176471 C1411.30233,821.86987 1413.17648,820 1415.48837,820 Z M1393.16279,820 C1395.47468,820 1397.34884,821.86987 1397.34884,824.176471 C1397.34884,826.483072 1395.47468,828.352941 1393.16279,828.352941 C1390.8509,828.352941 1388.97674,826.483072 1388.97674,824.176471 C1388.97674,821.86987 1390.8509,820 1393.16279,820 Z M1370.83721,820 C1373.1491,820 1375.02326,821.86987 1375.02326,824.176471 C1375.02326,826.483072 1373.1491,828.352941 1370.83721,828.352941 C1368.52532,828.352941 1366.65116,826.483072 1366.65116,824.176471 C1366.65116,821.86987 1368.52532,820 1370.83721,820 Z M1348.51163,820 C1350.82352,820 1352.69767,821.86987 1352.69767,824.176471 C1352.69767,826.483072 1350.82352,828.352941 1348.51163,828.352941 C1346.19974,828.352941 1344.32558,826.483072 1344.32558,824.176471 C1344.32558,821.86987 1346.19974,820 1348.51163,820 Z M1326.18605,820 C1328.49794,820 1330.37209,821.86987 1330.37209,824.176471 C1330.37209,826.483072 1328.49794,828.352941 1326.18605,828.352941 C1323.87416,828.352941 1322,826.483072 1322,824.176471 C1322,821.86987 1323.87416,820 1326.18605,820 Z"></path>
            </g>
        </g>
    </g>
</svg>