<svg xmlns="http://www.w3.org/2000/svg" width="102" height="118" viewBox="0 0 102 118">
    <path fill="#E3E6EC" fill-rule="evenodd" d="M99 112a3 3 0 1 1 0 6 3 3 0 0 1 0-6zm-16 0a3 3 0 1 1 0 6 3 3 0 0 1 0-6zm-16 0a3 3 0 1 1 0 6 3 3 0 0 1 0-6zm-16 0a3 3 0 1 1 0 6 3 3 0 0 1 0-6zm-16 0a3 3 0 1 1 0 6 3 3 0 0 1 0-6zm-16 0a3 3 0 1 1 0 6 3 3 0 0 1 0-6zm-16 0a3 3 0 1 1 0 6 3 3 0 0 1 0-6zm96-16a3 3 0 1 1 0 6 3 3 0 0 1 0-6zm-16 0a3 3 0 1 1 0 6 3 3 0 0 1 0-6zm-16 0a3 3 0 1 1 0 6 3 3 0 0 1 0-6zm-16 0a3 3 0 1 1 0 6 3 3 0 0 1 0-6zm-16 0a3 3 0 1 1 0 6 3 3 0 0 1 0-6zm-16 0a3 3 0 1 1 0 6 3 3 0 0 1 0-6zM3 96a3 3 0 1 1 0 6 3 3 0 0 1 0-6zm96-16a3 3 0 1 1 0 6 3 3 0 0 1 0-6zm-16 0a3 3 0 1 1 0 6 3 3 0 0 1 0-6zm-16 0a3 3 0 1 1 0 6 3 3 0 0 1 0-6zm-16 0a3 3 0 1 1 0 6 3 3 0 0 1 0-6zm-16 0a3 3 0 1 1 0 6 3 3 0 0 1 0-6zm-16 0a3 3 0 1 1 0 6 3 3 0 0 1 0-6zM3 80a3 3 0 1 1 0 6 3 3 0 0 1 0-6zm96-16a3 3 0 1 1 0 6 3 3 0 0 1 0-6zm-16 0a3 3 0 1 1 0 6 3 3 0 0 1 0-6zm-16 0a3 3 0 1 1 0 6 3 3 0 0 1 0-6zm-16 0a3 3 0 1 1 0 6 3 3 0 0 1 0-6zm-16 0a3 3 0 1 1 0 6 3 3 0 0 1 0-6zm-16 0a3 3 0 1 1 0 6 3 3 0 0 1 0-6zM3 64a3 3 0 1 1 0 6 3 3 0 0 1 0-6zm96-16a3 3 0 1 1 0 6 3 3 0 0 1 0-6zm-16 0a3 3 0 1 1 0 6 3 3 0 0 1 0-6zm-16 0a3 3 0 1 1 0 6 3 3 0 0 1 0-6zm-16 0a3 3 0 1 1 0 6 3 3 0 0 1 0-6zm-16 0a3 3 0 1 1 0 6 3 3 0 0 1 0-6zm-16 0a3 3 0 1 1 0 6 3 3 0 0 1 0-6zM3 48a3 3 0 1 1 0 6 3 3 0 0 1 0-6zm96-16a3 3 0 1 1 0 6 3 3 0 0 1 0-6zm-16 0a3 3 0 1 1 0 6 3 3 0 0 1 0-6zm-16 0a3 3 0 1 1 0 6 3 3 0 0 1 0-6zm-16 0a3 3 0 1 1 0 6 3 3 0 0 1 0-6zm-16 0a3 3 0 1 1 0 6 3 3 0 0 1 0-6zm-16 0a3 3 0 1 1 0 6 3 3 0 0 1 0-6zM3 32a3 3 0 1 1 0 6 3 3 0 0 1 0-6zm96-16a3 3 0 1 1 0 6 3 3 0 0 1 0-6zm-16 0a3 3 0 1 1 0 6 3 3 0 0 1 0-6zm-16 0a3 3 0 1 1 0 6 3 3 0 0 1 0-6zm-16 0a3 3 0 1 1 0 6 3 3 0 0 1 0-6zm-16 0a3 3 0 1 1 0 6 3 3 0 0 1 0-6zm-16 0a3 3 0 1 1 0 6 3 3 0 0 1 0-6zM3 16a3 3 0 1 1 0 6 3 3 0 0 1 0-6zM99 0a3 3 0 1 1 0 6 3 3 0 0 1 0-6zM83 0a3 3 0 1 1 0 6 3 3 0 0 1 0-6zM67 0a3 3 0 1 1 0 6 3 3 0 0 1 0-6zM51 0a3 3 0 1 1 0 6 3 3 0 0 1 0-6zM35 0a3 3 0 1 1 0 6 3 3 0 0 1 0-6zM19 0a3 3 0 1 1 0 6 3 3 0 0 1 0-6zM3 0a3 3 0 1 1 0 6 3 3 0 0 1 0-6z"/>
</svg>
