<?xml version="1.0" encoding="UTF-8"?>
<svg width="280px" height="281px" viewBox="0 0 280 281" version="1.1" xmlns="http://www.w3.org/2000/svg" xmlns:xlink="http://www.w3.org/1999/xlink">
    <!-- Generator: Sketch 56.2 (81672) - https://sketch.com -->
    <title>Element-2</title>
    <desc>Created with Sketch.</desc>
    <defs>
        <linearGradient x1="100%" y1="50%" x2="0.266575169%" y2="50%" id="linearGradient-1">
            <stop stop-color="#FFFFFF" offset="0%"></stop>
            <stop stop-color="#FFFFFF" stop-opacity="0" offset="100%"></stop>
        </linearGradient>
    </defs>
    <g id="Lapa" stroke="none" stroke-width="1" fill="none" fill-rule="evenodd" opacity="0.049999997">
        <g id="Software-Library" transform="translate(-1088.000000, -289.000000)" fill="url(#linearGradient-1)">
            <g id="Hero" transform="translate(-1.000000, 0.000000)">
                <g id="Background">
                    <g id="Base" transform="translate(0.713871, 0.000000)">
                        <g id="Element-2" transform="translate(1078.286129, 287.000000)">
                            <path d="M82.5,4.33012702 L132.451905,33.169873 C137.092921,35.8493649 139.951905,40.8012702 139.951905,46.160254 L139.951905,103.839746 C139.951905,109.19873 137.092921,114.150635 132.451905,116.830127 L82.5,145.669873 C77.8589838,148.349365 72.1410162,148.349365 67.5,145.669873 L17.5480947,116.830127 C12.9070786,114.150635 10.0480947,109.19873 10.0480947,103.839746 L10.0480947,46.160254 C10.0480947,40.8012702 12.9070786,35.8493649 17.5480947,33.169873 L67.5,4.33012702 C72.1410162,1.65063509 77.8589838,1.65063509 82.5,4.33012702 Z" id="Polygon"></path>
                            <path d="M165,139.330127 L214.951905,168.169873 C219.592921,170.849365 222.451905,175.80127 222.451905,181.160254 L222.451905,238.839746 C222.451905,244.19873 219.592921,249.150635 214.951905,251.830127 L165,280.669873 C160.358984,283.349365 154.641016,283.349365 150,280.669873 L100.048095,251.830127 C95.4070786,249.150635 92.5480947,244.19873 92.5480947,238.839746 L92.5480947,181.160254 C92.5480947,175.80127 95.4070786,170.849365 100.048095,168.169873 L150,139.330127 C154.641016,136.650635 160.358984,136.650635 165,139.330127 Z" id="Polygon"></path>
                            <path d="M232.5,4.33012702 L282.451905,33.169873 C287.092921,35.8493649 289.951905,40.8012702 289.951905,46.160254 L289.951905,103.839746 C289.951905,109.19873 287.092921,114.150635 282.451905,116.830127 L232.5,145.669873 C227.858984,148.349365 222.141016,148.349365 217.5,145.669873 L167.548095,116.830127 C162.907079,114.150635 160.048095,109.19873 160.048095,103.839746 L160.048095,46.160254 C160.048095,40.8012702 162.907079,35.8493649 167.548095,33.169873 L217.5,4.33012702 C222.141016,1.65063509 227.858984,1.65063509 232.5,4.33012702 Z" id="Polygon"></path>
                        </g>
                    </g>
                </g>
            </g>
        </g>
    </g>
</svg>