<svg xmlns="http://www.w3.org/2000/svg" width="640" height="440" viewBox="0 0 640 440">
    <defs>
        <linearGradient id="a" x1="50%" x2="-33.812%" y1="19.686%" y2="294.476%">
            <stop offset="0%" stop-color="#F7FAFF"/>
            <stop offset="100%" stop-color="#6B9AD9"/>
        </linearGradient>
        <linearGradient id="b" x1="140.584%" x2="25.163%" y1="-6.483%" y2="143.48%">
            <stop offset="0%" stop-color="#E5EDFF"/>
            <stop offset="100%" stop-color="#6B9AD9"/>
        </linearGradient>
        <linearGradient id="c" x1="46.522%" x2="71.556%" y1="15.16%" y2="70.686%">
            <stop offset="0%" stop-color="#F59BA9"/>
            <stop offset="100%" stop-color="#F25267"/>
        </linearGradient>
        <linearGradient id="d" x1="69.094%" x2="0%" y1="17.741%" y2="93.493%">
            <stop offset="0%" stop-color="#F7FAFF"/>
            <stop offset="100%" stop-color="#6B9AD9"/>
        </linearGradient>
        <linearGradient id="e" x1="84.355%" x2="25.163%" y1="24.465%" y2="117.558%">
            <stop offset="0%" stop-color="#E5EDFF"/>
            <stop offset="100%" stop-color="#6B9AD9"/>
        </linearGradient>
        <linearGradient id="f" x1="50%" x2="-33.812%" y1="36.472%" y2="159.101%">
            <stop offset="0%" stop-color="#F7FAFF"/>
            <stop offset="100%" stop-color="#6B9AD9"/>
        </linearGradient>
        <linearGradient id="g" x1="50%" x2="-33.859%" y1="23.058%" y2="185.713%">
            <stop offset="0%" stop-color="#EEF3FF"/>
            <stop offset="100%" stop-color="#6B9AD9"/>
        </linearGradient>
        <linearGradient id="h" x1="50%" x2="-27.573%" y1="19.686%" y2="202.699%">
            <stop offset="0%" stop-color="#EEF3FF"/>
            <stop offset="100%" stop-color="#6B9AD9"/>
        </linearGradient>
        <linearGradient id="i" x1="84.355%" x2="25.163%" y1="31.501%" y2="98.942%">
            <stop offset="0%" stop-color="#E5EDFF"/>
            <stop offset="100%" stop-color="#6B9AD9"/>
        </linearGradient>
        <linearGradient id="j" x1="50%" x2="17.407%" y1="19.686%" y2="294.476%">
            <stop offset="0%" stop-color="#F7FAFF"/>
            <stop offset="100%" stop-color="#6B9AD9"/>
        </linearGradient>
        <linearGradient id="k" x1="33.018%" x2="92.365%" y1="-9.919%" y2="110.02%">
            <stop offset="0%" stop-color="#E5EDFF"/>
            <stop offset="100%" stop-color="#6B9AD9"/>
        </linearGradient>
        <linearGradient id="l" x1="140.229%" x2="25.261%" y1="-6.483%" y2="143.48%">
            <stop offset="0%" stop-color="#E5EDFF"/>
            <stop offset="100%" stop-color="#6B9AD9"/>
        </linearGradient>
        <linearGradient id="m" x1="79.498%" x2="41.912%" y1="-6.483%" y2="143.48%">
            <stop offset="0%" stop-color="#E5EDFF"/>
            <stop offset="100%" stop-color="#6B9AD9"/>
        </linearGradient>
        <linearGradient id="n" x1="50%" x2="55.252%" y1="3.057%" y2="79.712%">
            <stop offset="0%" stop-color="#FFE579"/>
            <stop offset="100%" stop-color="#FEC644"/>
        </linearGradient>
        <linearGradient id="o" x1="61.039%" x2="50%" y1="-64.998%" y2="87.588%">
            <stop offset="0%" stop-color="#FFEDBF"/>
            <stop offset="100%" stop-color="#FEC644"/>
        </linearGradient>
        <linearGradient id="p" x1="50%" x2="50%" y1="-10.877%" y2="100%">
            <stop offset="0%" stop-color="#FFE579"/>
            <stop offset="100%" stop-color="#FEB755"/>
        </linearGradient>
        <linearGradient id="q" x1="140.584%" x2="25.163%" y1="3.449%" y2="127.043%">
            <stop offset="0%" stop-color="#E5EDFF"/>
            <stop offset="100%" stop-color="#6B9AD9"/>
        </linearGradient>
        <linearGradient id="r" x1="50%" x2="-14.256%" y1="19.686%" y2="294.476%">
            <stop offset="0%" stop-color="#F7FAFF"/>
            <stop offset="100%" stop-color="#6B9AD9"/>
        </linearGradient>
        <linearGradient id="s" x1="50%" x2="51.779%" y1="27.773%" y2="103.623%">
            <stop offset="0%" stop-color="#1542AB"/>
            <stop offset="100%" stop-color="#2B68EE"/>
        </linearGradient>
        <linearGradient id="t" x1="53.494%" x2="50.678%" y1="0%" y2="50%">
            <stop offset="0%" stop-color="#3485F7"/>
            <stop offset="100%" stop-color="#1A57CF"/>
        </linearGradient>
        <linearGradient id="u" x1="50%" x2="20.694%" y1="19.686%" y2="294.476%">
            <stop offset="0%" stop-color="#F7FAFF"/>
            <stop offset="100%" stop-color="#6B9AD9"/>
        </linearGradient>
        <linearGradient id="v" x1="107.254%" x2="38.27%" y1="-120.462%" y2="-120.462%">
            <stop offset="0%" stop-color="#FAD0BA"/>
            <stop offset="100%" stop-color="#F2A384"/>
        </linearGradient>
        <linearGradient id="w" x1="50%" x2="50%" y1="32.119%" y2="100%">
            <stop offset="0%" stop-color="#84F0A8"/>
            <stop offset="100%" stop-color="#48B676"/>
        </linearGradient>
        <linearGradient id="x" x1="50%" x2="50%" y1="32.119%" y2="100%">
            <stop offset="0%" stop-color="#84F0A8"/>
            <stop offset="100%" stop-color="#48B676"/>
        </linearGradient>
        <linearGradient id="y" x1="50%" x2="60.668%" y1="9.594%" y2="52.891%">
            <stop offset="0%" stop-color="#46C36F" stop-opacity="0"/>
            <stop offset="100%" stop-color="#4DBB7A"/>
        </linearGradient>
        <linearGradient id="z" x1="107.254%" x2="38.27%" y1="-120.462%" y2="-120.462%">
            <stop offset="0%" stop-color="#FAD0BA"/>
            <stop offset="100%" stop-color="#F2A384"/>
        </linearGradient>
        <linearGradient id="A" x1="107.254%" x2="38.27%" y1="-120.462%" y2="-120.462%">
            <stop offset="0%" stop-color="#FAD0BA"/>
            <stop offset="100%" stop-color="#F2A384"/>
        </linearGradient>
        <linearGradient id="B" x1="107.254%" x2="38.27%" y1="-120.462%" y2="-120.462%">
            <stop offset="0%" stop-color="#FAD0BA"/>
            <stop offset="100%" stop-color="#F2A384"/>
        </linearGradient>
        <linearGradient id="C" x1="74.912%" x2="-1.58%" y1="68.312%" y2="23.909%">
            <stop offset="0%" stop-color="#092871"/>
            <stop offset="100%" stop-color="#2B68EE"/>
        </linearGradient>
        <linearGradient id="D" x1="50%" x2="55.252%" y1="14.728%" y2="72.325%">
            <stop offset="0%" stop-color="#FFE579"/>
            <stop offset="100%" stop-color="#FEC644"/>
        </linearGradient>
        <linearGradient id="E" x1="79.574%" x2="-11.231%" y1="68.312%" y2="23.909%">
            <stop offset="0%" stop-color="#092871"/>
            <stop offset="100%" stop-color="#2B68EE"/>
        </linearGradient>
        <linearGradient id="F" x1="64.088%" x2="20.832%" y1="68.312%" y2="23.909%">
            <stop offset="0%" stop-color="#092871"/>
            <stop offset="100%" stop-color="#2B68EE"/>
        </linearGradient>
        <linearGradient id="G" x1="86.23%" x2="92.496%" y1="41.55%" y2="14.979%">
            <stop offset="0%" stop-color="#F1A385" stop-opacity="0"/>
            <stop offset="100%" stop-color="#F2A384"/>
        </linearGradient>
        <linearGradient id="H" x1="60.731%" x2="52.081%" y1="38.05%" y2="50%">
            <stop offset="0%" stop-color="#3485F7"/>
            <stop offset="100%" stop-color="#1A57CF"/>
        </linearGradient>
        <linearGradient id="I" x1="107.254%" x2="38.27%" y1="-120.462%" y2="-120.462%">
            <stop offset="0%" stop-color="#FAD0BA"/>
            <stop offset="100%" stop-color="#F2A384"/>
        </linearGradient>
        <linearGradient id="J" x1="100%" x2="0%" y1="50%" y2="50%">
            <stop offset="0%" stop-color="#2865C6"/>
            <stop offset="100%" stop-color="#10378A"/>
        </linearGradient>
        <linearGradient id="K" x1="50%" x2="55.005%" y1="27.773%" y2="103.623%">
            <stop offset="0%" stop-color="#1542AB"/>
            <stop offset="100%" stop-color="#2B68EE"/>
        </linearGradient>
        <linearGradient id="L" x1="107.254%" x2="38.27%" y1="-120.462%" y2="-120.462%">
            <stop offset="0%" stop-color="#FAD0BA"/>
            <stop offset="100%" stop-color="#F2A384"/>
        </linearGradient>
        <linearGradient id="M" x1="56.058%" x2="51.175%" y1="0%" y2="50%">
            <stop offset="0%" stop-color="#3485F7"/>
            <stop offset="100%" stop-color="#1A57CF"/>
        </linearGradient>
        <linearGradient id="N" x1="100%" x2="0%" y1="50%" y2="50%">
            <stop offset="0%" stop-color="#2865C6"/>
            <stop offset="100%" stop-color="#10378A"/>
        </linearGradient>
        <linearGradient id="O" x1="50%" x2="67.286%" y1="42.008%" y2="79.489%">
            <stop offset="0%" stop-color="#84F0A8"/>
            <stop offset="100%" stop-color="#48B676"/>
        </linearGradient>
        <linearGradient id="P" x1="50%" x2="60.514%" y1="38.268%" y2="74.082%">
            <stop offset="0%" stop-color="#46C36F" stop-opacity="0"/>
            <stop offset="100%" stop-color="#4DBB7A"/>
        </linearGradient>
        <linearGradient id="Q" x1="107.254%" x2="38.27%" y1="-120.462%" y2="-120.462%">
            <stop offset="0%" stop-color="#FAD0BA"/>
            <stop offset="100%" stop-color="#F2A384"/>
        </linearGradient>
        <linearGradient id="R" x1="93.673%" x2="1.757%" y1="46.682%" y2="53.42%">
            <stop offset="0%" stop-color="#7BE7A1"/>
            <stop offset="100%" stop-color="#84F0A8"/>
        </linearGradient>
        <linearGradient id="S" x1="50%" x2="50%" y1="0%" y2="100%">
            <stop offset="0%" stop-color="#A0ECC3"/>
            <stop offset="100%" stop-color="#67D490"/>
        </linearGradient>
        <linearGradient id="T" x1="140.584%" x2="25.163%" y1="9.934%" y2="116.309%">
            <stop offset="0%" stop-color="#E5EDFF"/>
            <stop offset="100%" stop-color="#6B9AD9"/>
        </linearGradient>
        <linearGradient id="U" x1="50%" x2="-33.812%" y1="31.474%" y2="199.412%">
            <stop offset="0%" stop-color="#F7FAFF"/>
            <stop offset="100%" stop-color="#6B9AD9"/>
        </linearGradient>
        <linearGradient id="V" x1="140.584%" x2="25.163%" y1="7.21%" y2="120.818%">
            <stop offset="0%" stop-color="#E5EDFF"/>
            <stop offset="100%" stop-color="#6B9AD9"/>
        </linearGradient>
    </defs>
    <g fill="none" fill-rule="evenodd">
        <g fill="#E2EBFC">
            <ellipse cx="491.202" cy="149.45" opacity=".3" rx="148.711" ry="149.161"/>
            <ellipse cx="149.168" cy="247.201" opacity=".2" rx="148.711" ry="149.161"/>
        </g>
        <ellipse cx="175.243" cy="8.899" fill="#E2EBFC" opacity=".34" rx="175.087" ry="8.899" transform="translate(123.105 421.97)"/>
        <g fill-rule="nonzero">
            <path fill="url(#a)" d="M.551 52.858L52.557.853c.47-.471 1.234-.471 1.705 0l38.365 38.365c.471.47.471 1.234 0 1.705L40.621 92.929c-.47.47-1.234.47-1.705 0L.551 54.564a1.206 1.206 0 0 1 0-1.706z" transform="translate(35.597 83.8)"/>
            <path fill="url(#b)" d="M60.23 60.531c-5.415 5.415-14.194 5.415-19.609 0-5.415-5.414-5.415-14.193 0-19.608 5.415-5.415 14.194-5.415 19.61 0 5.414 5.415 5.414 14.194 0 19.608z" transform="translate(35.597 83.8)"/>
            <path fill="#FFF" d="M81.967 132.233l6.966-2.148a1.206 1.206 0 0 1 1.507 1.507l-2.148 6.966a1.206 1.206 0 0 1-2.005.498l-4.817-4.818a1.206 1.206 0 0 1 .497-2.005z"/>
            <path fill="url(#b)" d="M.551 52.858L52.557.853c.47-.471 1.234-.471 1.705 0l4.69 4.689L5.24 59.252.551 54.565a1.206 1.206 0 0 1 0-1.706z" transform="translate(35.597 83.8)"/>
            <path fill="#FFF" d="M42.542 137.938a1.206 1.206 0 1 1-1.705-1.705 1.206 1.206 0 0 1 1.705 1.705zM45.526 134.954a1.206 1.206 0 1 1-1.705-1.705 1.206 1.206 0 0 1 1.705 1.705z"/>
        </g>
        <g fill-rule="nonzero">
            <path fill="url(#c)" d="M19.124 1.544A2.415 2.415 0 0 1 22.41.67l20.83 11.938c1.15.659 1.544 2.12.88 3.261L38.483 26.86l5.234 2.975c.285.164.49.437.568.755a1.193 1.193 0 0 1-.889 1.44l-8.821 2.59-8.795 12.782a2.415 2.415 0 0 1-3.285.874L1.665 36.338a2.378 2.378 0 0 1-.88-3.262l18.34-31.532z" transform="translate(43.754 212.839)"/>
            <path fill="#FFF" d="M62.571 235.573c-1.526-.875-1.956-2.973-.96-4.686.997-1.713 2.947-2.446 5.49-.99 1.694.972 3.256 4.624 4.683 10.956-6.238 1.939-10.204 2.422-11.9 1.451-2.541-1.457-2.877-3.5-1.88-5.214.996-1.713 3.04-2.392 4.567-1.517z"/>
        </g>
        <g fill-rule="nonzero">
            <path fill="url(#d)" d="M4.352 15.4c5.526-4.567 10.317-8.285 14.37-11.155C24.805-.06 32.699-.475 36.645.57c4.447 3.235 16.074 12.049 20.868 16.596-2.827.534-5.338.534-9.087 1.485C34.95 22.07 30.19 33.59 28.39 34.318c-3.357 1.357-1.937.733-3.963.993-1.352.173-8.043-6.464-20.075-19.91z" transform="translate(116.431 308.505)"/>
            <path fill="url(#e)" d="M5.139 11.1c-5.09 5.252-6.102 8.915-3.04 10.989 3.295 2.23 13.47 8.831 18.158 11.637 3.03 1.812 5.826 1.875 8.388.187-3.342 1.358-5.5.783-6.474-1.724-.973-2.508.368-5.057 4.025-7.648L5.14 11.1z" transform="translate(116.431 308.505)"/>
        </g>
        <path fill="url(#f)" fill-rule="nonzero" d="M1.45 15.388c5.594-4.78 10.086-8.392 13.475-10.837C20.917.23 28.695-.188 32.584.861c4.381 3.25 15.837 12.1 20.56 16.665-2.785.537-5.259.537-8.953 1.492-13.277 3.431-17.967 14.999-19.74 15.73-3.308 1.363-1.909.736-3.906.996-1.226.16-7.604-4.83-19.134-14.97a3.557 3.557 0 0 1 .039-5.386z" transform="matrix(-1 0 0 1 384.89 352.26)"/>
        <g fill-rule="nonzero">
            <path fill="url(#g)" d="M110.09 35.277L59.67.411C46.3 29.965 26.54 50.98.397 63.455l43.143 40.369c33.754-12.443 55.937-35.292 66.55-68.547z" transform="translate(411.587 292.19)"/>
            <path fill="#C5D7F3" d="M436.501 352.804l-3.932 2.63 32.068 26.335 4.8-2.55zM470.057 310.038l37.832 23.78-2.565 4.056-37.66-23.722zM464.38 319.783l37.833 23.781-2.565 4.056-37.66-23.723zM476.892 342.606l19.014 11.67-2.565 4.056-18.842-11.613zM459.1 327.905l12.289 9.23c-.324.78-.745 1.667-1.264 2.662a34.814 34.814 0 0 1-9.809 11.613 130.216 130.216 0 0 0-4.196 3.302l-12.642-9.874c.616-.366 1.3-.782 2.05-1.25a34.817 34.817 0 0 0 12.444-13.397c.432-.825.808-1.587 1.128-2.286zM469.853 351.021l17.028 13.498c-1.96 2.924-4.152 5.395-6.573 7.413-2.422 2.018-4.973 3.5-7.655 4.445l-17.273-13.239c3.64-2.149 6.514-4.114 8.62-5.896 2.108-1.782 4.058-3.856 5.853-6.22z" opacity=".517" style="mix-blend-mode:multiply"/>
        </g>
        <g fill-rule="nonzero">
            <path fill="url(#h)" d="M.516 27.128C.516 16.076 2.385 7.063 6.123.09 20.155 18.92 34.997 27.442 50.65 25.66c.481 14.099-10.403 59.328 39.382 67.502-9.735 0-18.462-1.898-26.181-5.695C39.208 76.942 22.69 67.37 14.3 58.748 5.91 50.127 1.314 39.587.516 27.128z" transform="translate(211.356 307.022)"/>
            <path fill="url(#i)" d="M.3 25.683C2.64 50.36 16 57.25 40.382 46.356 48.812 73.37 66.478 88.93 93.382 93.035c-27.839-.458-49.944-6.61-66.315-18.456C10.695 62.733 1.773 46.434.299 25.683z" transform="translate(211.356 307.022)"/>
        </g>
        <g transform="translate(496.871 123.847)">
            <path fill="url(#j)" fill-rule="nonzero" d="M28.493 72.942a37.427 37.427 0 0 0-10.66-21.957c-2.017-2.388-4.733-4.48-8.207-6.242a37.15 37.15 0 0 0-9.491-3.735C.25 37.172 2.892 18.75 5.632.205c50.194 7.1 40.245 54.42 36.48 61.645-1.689 3.24-6.229 6.938-13.62 11.092z"/>
            <path fill="url(#k)" d="M5.584.135c23.203 3.127 40.837 18.711 40.837 37.466 0 7.653-2.935 14.777-7.987 20.743 2.502-4.552 3.886-9.557 3.886-14.81 0-17.89-16.045-32.896-37.663-36.955L5.584.135z"/>
            <ellipse cx="9.799" cy="4.501" fill="url(#l)" fill-rule="nonzero" rx="1.497" ry="1.5"/>
            <ellipse cx="14.952" cy="5.969" fill="url(#l)" fill-rule="nonzero" rx="1.497" ry="1.5"/>
            <path fill="url(#m)" fill-rule="nonzero" d="M5.787 75.04c18.806-2.596 33.921-13.382 38.892-27.392.374-.436.575-.672.584-.665 0 40.515-13.159 63.574-39.476 69.177V75.04z"/>
        </g>
        <g fill-rule="nonzero">
            <path fill="url(#n)" d="M26.87.992l41.015 33.3c.772.627.89 1.763.265 2.537L44.673 65.898a1.796 1.796 0 0 1-2.53.267l-41.015-33.3a1.807 1.807 0 0 1-.266-2.537L24.339 1.259a1.796 1.796 0 0 1 2.53-.267z" transform="translate(168.343 70.452)"/>
            <path fill="url(#o)" d="M1.468 32.748a.602.602 0 0 1 .34-1.067l34.644-2.118a1.8 1.8 0 0 1 1.887 1.518l5.496 34.716a.599.599 0 0 1-.97.562L1.468 32.749z" transform="translate(168.343 70.452)"/>
            <path fill="url(#p)" d="M26.612.783L68.15 34.508a.602.602 0 0 1-.317 1.066l-36.081 3.633a1.8 1.8 0 0 1-1.967-1.59L25.639 1.32a.6.6 0 0 1 .973-.536z" transform="translate(168.343 70.452)"/>
        </g>
        <g fill-rule="nonzero">
            <path fill="url(#q)" d="M1.056 43.838a1.19 1.19 0 0 1-.19-1.69l7.887-9.693a1.222 1.222 0 0 1 1.62-.244l2.805 1.86a1.223 1.223 0 0 0 1.495-.11L48.229 3.583l.02-.017a1.222 1.222 0 0 1 1.71.11l25.203 28.407a1.19 1.19 0 0 1-.059 1.643L37.14 70.887a1.223 1.223 0 0 1-1.608.085L1.056 43.838z" transform="translate(326.304 87.509)"/>
            <path fill="url(#r)" d="M35.353 70.893l-21.308-25.98a1.19 1.19 0 0 1 .094-1.613L58.26.68a1.222 1.222 0 0 1 1.935.328L75.816 32.42a1.19 1.19 0 0 1-.24 1.386L37.143 70.995a1.222 1.222 0 0 1-1.79-.102z" transform="translate(326.304 87.509)"/>
            <path fill="#A3C1EA" d="M362.577 154.464l-1.177-1.238 11.402-10.749.924 1.43z"/>
        </g>
        <g fill-rule="nonzero">
            <path fill="url(#s)" d="M3.325 9.411l16.53-8.86h2.38c.582 0 1.08.418 1.184.992l8.559 47.04a1.207 1.207 0 0 1-1.137 1.424l-19.821.79a1.205 1.205 0 0 1-1.233-.99l-7.08-39.115a1.209 1.209 0 0 1 .618-1.28z" transform="translate(287.339 186.435)"/>
            <path fill="url(#t)" d="M.977 9.434L19.612.67a1.203 1.203 0 0 1 1.697.883l8.283 47.109a1.207 1.207 0 0 1-1.074 1.412l-19.847 1.87a1.205 1.205 0 0 1-1.298-.993L.303 10.737a1.209 1.209 0 0 1 .674-1.303z" transform="translate(287.339 186.435)"/>
            <path fill="url(#u)" d="M2.833 13.646L19.465 6.09a.601.601 0 0 1 .841.446l6.81 38.734a.604.604 0 0 1-.533.706L8.928 47.715a.602.602 0 0 1-.652-.496L2.49 14.301a.604.604 0 0 1 .344-.655z" transform="translate(287.339 186.435)"/>
        </g>
        <g fill-rule="nonzero">
            <path fill="url(#v)" d="M12.521 32.066L3.914 30.94c3.571-6.112 5.865-11.657 6.88-16.635 1.086-2.942-.218-3.612.828-7.889C12.208 4.025 13.39.94 16.293.21c.355 2.598.699 4.097 1.058 6.207.36 2.11 1.303-2.728 3.67-2.11 2.368.618-2.295 5.224-2.295 7.178 0 3.122-.692 5.195-2.078 6.22l-4.127 14.362z" transform="translate(274.695 216.023)"/>
            <path fill="url(#w)" d="M1.038 31.292c5.05-6.707 7.574-10.485 7.574-11.336 0-1.276 8.312-1.19 8.312 1.635s-3.174 14.321-4.69 15.293c-1.01.647-5.064.96-12.158.94l.962-6.532z" transform="translate(274.695 216.023)"/>
        </g>
        <g fill-rule="nonzero">
            <path fill="url(#x)" d="M3.618 39.87c24.674-.019 40.093-4.907 46.257-14.665C59.12 10.568 55.4 3.41 62.393.939c6.993-2.473 16.743 7.818 19.7 12.876 1.972 3.371 6.665 23.186 14.08 59.442L10.656 62.29 3.618 39.87z" transform="translate(279.512 211.192)"/>
            <path fill="#6EDB96" d="M337.393 229.085l1.093 4.089a1.808 1.808 0 1 1-3.494.939l-1.093-4.089c-.455.074-.797.166-1.026.276-.458.22 2.843-7.741 2.843-7.492 0 .709.247 1.633.741 2.773l4.077-1.096a1.815 1.815 0 0 1 .936 3.504l-4.077 1.096z"/>
            <path fill="url(#y)" d="M.19 43.32c29.68-1.79 48.603-6.876 56.766-15.257 5.471-5.617 8.313-7.714 8.34-13.882.027-6.168-7.318-7.98-2.869-11.507 6.769-5.365 26.51 14.51 28.422 17.781 1.971 3.372 3.746 27.011 5.325 70.917l-85.52-10.967L.19 43.32z" transform="translate(279.512 211.192)"/>
        </g>
        <path fill="url(#z)" d="M135.093 106.001c-4.101-1.967-7.489-5.454-10.163-10.46-11.526-7.039-17.645-5.373-18.359 4.998 1.366 5.248 8.248 13.324 20.649 24.227l1.328.832 13.765-12.892-7.22-6.705z" transform="translate(122.665 142.355)"/>
        <path fill="url(#A)" d="M124.108 80.859c.664.165 1.341.284 2.032.357 3.658.386 2.883 3.12 1.061 5.197 3.042 7.594 4.22 12.814 3.536 15.659-1.044 4.341-7.612 6.887-20.86 4.83L97 97.584c-2.778 2.732-5.465 2.158-8.061-1.721-3.895-5.82.72-7.972 3.382-7.504 3.143-4.105 3.073-8.853-.212-14.242 6.693-.524 11.706-1.685 15.04-3.482 3.333-1.797 5.51-4.18 6.53-7.15 2.786 1.747 4.665 4.729 5.636 8.945l4.793 8.429z" transform="translate(122.665 142.355)"/>
        <path fill="url(#B)" d="M111.749 66.957a11.296 11.296 0 0 0 1.93-3.471c2.786 1.746 4.665 4.728 5.636 8.944l4.793 8.429c.075.019.15.037.226.054-4.015.404-7.627-2.917-10.838-9.962a128.086 128.086 0 0 1-1.747-3.994z" transform="translate(122.665 142.355)"/>
        <path fill="url(#C)" d="M70.446 99.633c-18.063 1.51-19.87-11.775-12.645-37.136C65.027 37.136 72.553 17.511 45.76 3.925 18.966-9.661-16.257 16.907 9.333 49.213c25.589 32.305 16.858 53.137 43.05 59.478 17.46 4.226 28.298 1.71 32.513-7.548-5.865 2.743-10.682 2.24-14.45-1.51z" transform="translate(122.665 142.355)"/>
        <path fill="url(#D)" d="M69.542 98.123c-1.605 3.22-1.003 6.039 1.807 8.454 2.81 2.415 6.02 2.516 9.633.302l-11.44-8.756z" transform="translate(122.665 142.355)"/>
        <path fill="url(#E)" d="M113.797 63.705c-1.004 7.044-6.021 11.674-15.053 13.888 1.004 5.636.301 9.46-2.107 11.473l1.806 4.83c-2.81-2.817-4.917-4.226-6.322-4.226-2.107 0-5.72 2.717-2.71 6.642 2.008 2.617 4.516 3.02 7.527 1.208 5.017 1.006 11.139 4.528 18.364 10.567v4.528c-3.914 1.812-53.888 1.891-50.576-30.191.488-4.732 1.256-9.037 2.304-12.916 4.711-17.434 22.622-27.737 40.006-23.012a32.553 32.553 0 0 1 5.933 2.253c6.933 3.441 10.744 10.492 6.247 23.711l-.813-2.444a12.812 12.812 0 0 0-4.606-6.311z" transform="translate(122.665 142.355)"/>
        <path fill="url(#F)" d="M63.82 110.57c-3.43-.238-7.242-.864-11.437-1.88-26.192-6.34-17.461-27.172-43.05-59.477-19.994-25.241-2.864-46.98 18.364-48.8v.19c-12.444 5.838-17.26 13.587-14.45 23.249C17.46 38.344 34.62 36.23 32.211 53.138c-2.408 16.907 11.14 8.151 11.14 25.965 0 11.703 9.355 26.273 20.469 31.466z" transform="translate(122.665 142.355)"/>
        <path fill="url(#G)" d="M101.483 100.828c1.5-3.042 4.2-4.648 8.099-4.818 9.232-.403 15.052-3.522 17.46-9.36.183.245.36.481.534.71 2.763 7.083 3.817 11.987 3.161 14.712-1.044 4.341-7.612 6.887-20.86 4.83l-8.394-6.074z" transform="translate(122.665 142.355)"/>
        <g fill="url(#H)" fill-rule="nonzero" transform="translate(250.61 246.819)">
            <path d="M.19 5.776c4.09-.631 6.135-1.528 6.135-2.689 0-1.16-.247-1.961-.74-2.401C19.656.04 28.134-.068 31.02.36c4.328.642 9.104 9.518 9.597 9.518.494 0 12.195 9.844 16.907 9.844 3.141 0 8.765 1.746 16.87 5.24L62.275 36.38l-49.893-6.617L.19 5.776z"/>
        </g>
        <g>
            <path fill="url(#I)" fill-rule="nonzero" d="M111.418 65.354c-.734-.497-3.702-6.337 1.934-7.287 5.636-.95 6.958-1.195 9.13-1.89 1.448-.465 2.502-1.226 3.163-2.284l-.754 7.712-4.33 3.22c-5.606.685-8.653.861-9.143.53z" transform="translate(327.68 135.713)"/>
            <path fill="url(#J)" fill-rule="nonzero" d="M118.669 65.508c-.006-1.673 4.173-1.904 5.307-4.46 1.135-2.554-1.249-5.523-.647-6.037 1.758-1.502 3.43-4.075 5.855-6.645 5.966-6.325 6.667-6.882 10.1-4.042.87.389-2.477 9.103-10.042 26.143-2.126-.123-3.991-.51-5.595-1.163-2.405-.977-4.973-2.124-4.978-3.796z" transform="translate(327.68 135.713)"/>
            <path fill="url(#K)" fill-rule="nonzero" d="M41.629 64.496c8.689-4.379 69.981-11.807 73.991-9.59 2.162 1.196 2.383 5.327.661 12.394a4.222 4.222 0 0 1-2.849 3.036c-29.361 9.106-44.517 13.282-45.466 12.53-1.459-1.157-23.262 63.559-30.359 74.684-7.097 11.125-15.922 27.65-30.76 6.632-9.894-14.011-8.724-23.396 3.509-28.155 15.056-44.769 25.48-68.612 31.273-71.531z" transform="translate(327.68 135.713)"/>
            <path fill="url(#L)" fill-rule="nonzero" d="M127.838 29c-.837-.29-5.211-5.16-.013-7.542 5.198-2.38 6.413-2.96 8.331-4.196 1.279-.823 2.1-1.832 2.466-3.026l1.262 7.645-3.35 4.235c-5.24 2.116-8.138 3.077-8.696 2.884z" transform="translate(327.68 135.713)"/>
            <path fill="url(#M)" fill-rule="nonzero" d="M55.583 54c8.734-10.002 69.488-36.528 73.984-35.662 2.447.47 3.418 4.481 2.913 12.03a3.622 3.622 0 0 1-2.19 3.091c-13.24 5.655-30.28 16.42-51.124 32.296-2.596 32.81-5.001 53.475-7.216 61.995-3.322 12.78-15.306 47.522-35.894 32.133-13.726-10.26-16.338-24.695-7.836-43.303C40.64 81.527 49.76 60.667 55.583 54z" transform="translate(327.68 135.713)"/>
            <path stroke="#1A57CF" stroke-dasharray="3.707995365005794,7.415990730011588" stroke-linecap="round" stroke-linejoin="round" stroke-width=".742" d="M456.227 157.753c-34.72 17.108-55.995 29.185-63.822 36.23-7.827 7.045-10.537 30.091-8.128 69.14"/>
            <path fill="url(#N)" fill-rule="nonzero" d="M134.88 27.266c-.436-1.614 3.54-2.923 3.977-5.685.436-2.762-2.632-5.011-2.184-5.664 1.31-1.907 2.262-4.826 3.941-7.939 4.13-7.657 4.664-8.377 8.712-6.525.941.15-.043 9.436-2.952 27.859-2.086.432-3.987.542-5.705.329-2.575-.32-5.351-.76-5.788-2.375z" transform="translate(327.68 135.713)"/>
        </g>
        <g transform="translate(229.537 207.57)">
            <path fill="url(#O)" fill-rule="nonzero" d="M10.555 46.84c4.82-5.428 8.312-8.142 10.475-8.142 3.244 0 3.244 3.91 5.66 5.013 7.182 3.28 52.11 32.018 80.555 7.626C135.69 26.945 135.58.454 141.096.454c5.515 0 25.277 27.663 31.104 45.136 3.543 10.622 5.69 21.935 6.444 33.939a7.256 7.256 0 0 1-2.386 5.848c-29.016 26.106-59.37 37.4-91.061 33.88-48.94-5.434-80.843-41.17-84.423-55.45-2.387-9.52.873-15.176 9.781-16.967z"/>
            <path fill="#7DE9A2" fill-rule="nonzero" d="M133.314 112.824a109.16 109.16 0 0 1-4.327 1.582l-.35-1.313-5.17 1.39a2.301 2.301 0 0 1-1.187-4.445l5.169-1.39-1.385-5.185a2.305 2.305 0 0 1 .636-2.264 30.856 30.856 0 0 0 2.117-.568c.79.191 1.453.799 1.678 1.641l1.386 5.186 5.17-1.39a2.301 2.301 0 0 1 1.187 4.445l-5.17 1.39.246.92zM38.287 91.735c-4.732 0-8.567-3.847-8.567-8.592 0-4.746 3.835-8.592 8.567-8.592s8.568 3.846 8.568 8.592c0 4.745-3.836 8.592-8.568 8.592zm0-5.155a3.432 3.432 0 0 0 3.427-3.437 3.432 3.432 0 0 0-3.427-3.437 3.432 3.432 0 0 0-3.427 3.437 3.432 3.432 0 0 0 3.427 3.437zm54.627-13.404l3.785 3.796a2.305 2.305 0 0 1 0 3.254 2.29 2.29 0 0 1-3.245 0L89.67 76.43l-3.785 3.796a2.29 2.29 0 0 1-3.244 0 2.305 2.305 0 0 1 0-3.254l3.785-3.796-3.785-3.796a2.305 2.305 0 0 1 0-3.253 2.29 2.29 0 0 1 3.244 0l3.785 3.796 3.785-3.796a2.29 2.29 0 0 1 3.245 0 2.305 2.305 0 0 1 0 3.253l-3.785 3.796zm52.44-40.499l3.785 3.796a2.305 2.305 0 0 1 0 3.254 2.29 2.29 0 0 1-3.245 0l-3.785-3.796-3.785 3.796a2.29 2.29 0 0 1-3.244 0 2.305 2.305 0 0 1 0-3.254l3.785-3.796-3.785-3.796a2.305 2.305 0 0 1 0-3.254 2.29 2.29 0 0 1 3.244 0l3.785 3.796 3.785-3.796a2.29 2.29 0 0 1 3.245 0 2.305 2.305 0 0 1 0 3.254l-3.785 3.796zm-69.577 80.66c-5.168 0-9.358-4.203-9.358-9.386 0-5.184 4.19-9.386 9.358-9.386 5.169 0 9.359 4.202 9.359 9.386 0 5.183-4.19 9.385-9.359 9.385zm0-5.632a3.749 3.749 0 0 0 3.744-3.754 3.749 3.749 0 0 0-3.744-3.755 3.749 3.749 0 0 0-3.743 3.755 3.749 3.749 0 0 0 3.743 3.754zm50.842-30.41c-5.168 0-9.358-4.203-9.358-9.386 0-5.184 4.19-9.386 9.358-9.386 5.169 0 9.359 4.202 9.359 9.386 0 5.183-4.19 9.385-9.359 9.385zm0-5.632a3.749 3.749 0 0 0 3.744-3.754 3.749 3.749 0 0 0-3.744-3.755 3.749 3.749 0 0 0-3.743 3.755 3.749 3.749 0 0 0 3.743 3.754z"/>
            <path fill="#52C47D" fill-rule="nonzero" d="M70.727 60.45c8.306 1.154 16.868.843 24.834-2.169-1.764 7.543-5.883 15.07-12.358 22.582-17.993 20.875-72.704.511-77.906-8.794-5.202-9.305 1.21-24.12 11.676-26.265 3.648-.747 6.013 17.164 11.627 19.712 10.492 4.763 25.757-3.752 35.677-3.752 2.4 0 4.55-.438 6.45-1.313z" opacity=".5"/>
            <path fill="url(#P)" fill-rule="nonzero" d="M172.212 45.625c3.536 10.612 5.68 21.913 6.432 33.904a7.256 7.256 0 0 1-2.386 5.848c-29.016 26.106-59.37 37.4-91.061 33.88-21.744-2.414-40.125-10.81-54.153-20.648.587.234 1.177.474 1.77.722 55.694 23.248 35.223 1.51 77.069 3.02 41.846 1.509 23.18-20.833 43.05-26.268 13.08-3.577 19.507-13.73 19.279-30.458z"/>
            <path stroke="#5FCC89" stroke-width=".742" d="M139.988 9.36c-13.447 35.827-32.614 54.747-57.5 56.76M130.964 50.479a1.484 1.484 0 0 1 .444-2.474l1.542-.618c.457-.184.97-.172 1.418.032l10.25 4.673a3.624 3.624 0 0 1 2.108 3.566l-.92 12.452a1.81 1.81 0 0 1-1.395 1.631l-.805.187-.016.003a1.806 1.806 0 0 1-2.154-1.378c-.849-3.853-2.126-7.224-3.83-10.114-1.627-2.758-3.841-5.412-6.642-7.96z"/>
            <ellipse cx="144.298" cy="54.879" fill="#5FCC89" rx="1.013" ry="1.016"/>
            <ellipse cx="20.787" cy="41.979" fill="#48C172" rx="1.505" ry="1.51"/>
            <path stroke="#48C172" stroke-dasharray="3.707995365005794,7.415990730011588" stroke-linecap="round" stroke-linejoin="round" stroke-width=".742" d="M139.988 9.36c19.066 20.329 29.804 45.187 32.212 74.573"/>
        </g>
        <g>
            <path fill="url(#Q)" fill-rule="nonzero" d="M80.86 34.924l-.624-11.544c-1.91-2.985-2.866-6.038-2.866-9.159 0-4.486-4.871-6.837-3.467-8.162.282-.267 1.477-.497 2.988 0 1.38.454 3.075 4.42 4.55 5.096.635.29 1.37-1.881 1.827-3.281.344-1.053.632-3.217.632-3.755 0-.537-.632-2.96-.632-3.481 2.409-1.1 7.08 2.542 7.666 4.933.698 2.85-.264 7.526-2.887 14.024l1.42 14.203-8.607 1.126z" transform="translate(231.946 211.796)"/>
            <path fill="url(#R)" fill-rule="nonzero" d="M78.917 27.989C75.632 47.337 68.913 57.01 58.762 57.01c-15.226 0-37.583-17.947-48.05-15.802C.248 43.354-2.312 52.5 2.89 61.804s59.913 29.669 77.906 8.794C92.79 56.682 96.7 42.712 92.528 28.688c-1.751-1.755-3.799-2.694-6.142-2.814-2.344-.12-4.833.584-7.469 2.115z" transform="translate(231.946 211.796)"/>
            <path fill="url(#S)" fill-rule="nonzero" d="M21.854 67.029c-5.168 0-9.358-4.202-9.358-9.386 0-5.183 4.19-9.385 9.358-9.385 5.169 0 9.359 4.202 9.359 9.385 0 5.184-4.19 9.386-9.359 9.386zm0-5.631a3.749 3.749 0 0 0 3.744-3.755 3.749 3.749 0 0 0-3.744-3.754 3.749 3.749 0 0 0-3.743 3.754 3.749 3.749 0 0 0 3.743 3.755z" opacity=".396" style="mix-blend-mode:overlay" transform="translate(231.946 211.796)"/>
            <path stroke="#5FCC89" stroke-width=".742" d="M240.074 263.726c29.302 15.297 50.175 19.323 62.618 12.077 12.444-7.246 17.461-19.122 15.053-35.627"/>
        </g>
        <g>
            <path fill="url(#T)" fill-rule="nonzero" d="M1.472 19.44L72.812.367c.647-.173 1.31.21 1.484.854l14.101 52.512a1.208 1.208 0 0 1-.856 1.48l-71.34 19.073a1.211 1.211 0 0 1-1.483-.854L.616 20.92a1.208 1.208 0 0 1 .856-1.48z" transform="translate(236.57 110.498)"/>
            <path fill="url(#U)" d="M73.68 8.265L85.745 53.19 16.743 71.64 4.68 26.713z" transform="translate(236.57 110.498)"/>
            <path fill="#F2F5FF" fill-rule="nonzero" d="M242.961 134.252a1.208 1.208 0 1 1-.627-2.334 1.208 1.208 0 1 1 .627 2.334zM247.054 133.157a1.208 1.208 0 1 1-.627-2.334 1.208 1.208 0 1 1 .627 2.334z"/>
            <path fill="url(#V)" fill-rule="nonzero" d="M22.32 61.92l-2.587-1.57 9.922-16.287 11.704 2.096 8.55-17.367 10.346 3.34 8.177-14.911 2.655 1.45-9.38 17.104-10.236-3.305-8.401 17.064L31.164 47.4z" transform="translate(236.57 110.498)"/>
        </g>
    </g>
</svg>
