<svg xmlns="http://www.w3.org/2000/svg" width="770" height="692" viewBox="0 0 770 692">
    <defs>
        <linearGradient id="a" x1="50%" x2="-33.812%" y1="19.686%" y2="294.476%">
            <stop offset="0%" stop-color="#F7FAFF"/>
            <stop offset="100%" stop-color="#6B9AD9"/>
        </linearGradient>
        <linearGradient id="b" x1="140.584%" x2="25.163%" y1="-6.483%" y2="143.48%">
            <stop offset="0%" stop-color="#E5EDFF"/>
            <stop offset="100%" stop-color="#6B9AD9"/>
        </linearGradient>
        <linearGradient id="c" x1="46.522%" x2="71.556%" y1="15.16%" y2="70.686%">
            <stop offset="0%" stop-color="#F59BA9"/>
            <stop offset="100%" stop-color="#F25267"/>
        </linearGradient>
        <linearGradient id="d" x1="69.094%" x2="0%" y1="17.741%" y2="93.493%">
            <stop offset="0%" stop-color="#F7FAFF"/>
            <stop offset="100%" stop-color="#6B9AD9"/>
        </linearGradient>
        <linearGradient id="e" x1="84.355%" x2="25.163%" y1="24.465%" y2="117.558%">
            <stop offset="0%" stop-color="#E5EDFF"/>
            <stop offset="100%" stop-color="#6B9AD9"/>
        </linearGradient>
        <linearGradient id="f" x1="50%" x2="-33.812%" y1="36.472%" y2="159.101%">
            <stop offset="0%" stop-color="#F7FAFF"/>
            <stop offset="100%" stop-color="#6B9AD9"/>
        </linearGradient>
        <linearGradient id="g" x1="50%" x2="-33.859%" y1="23.058%" y2="185.713%">
            <stop offset="0%" stop-color="#EEF3FF"/>
            <stop offset="100%" stop-color="#6B9AD9"/>
        </linearGradient>
        <linearGradient id="h" x1="50%" x2="-27.573%" y1="19.686%" y2="202.699%">
            <stop offset="0%" stop-color="#EEF3FF"/>
            <stop offset="100%" stop-color="#6B9AD9"/>
        </linearGradient>
        <linearGradient id="i" x1="84.355%" x2="25.163%" y1="31.501%" y2="98.942%">
            <stop offset="0%" stop-color="#E5EDFF"/>
            <stop offset="100%" stop-color="#6B9AD9"/>
        </linearGradient>
        <linearGradient id="j" x1="50%" x2="17.407%" y1="19.686%" y2="294.476%">
            <stop offset="0%" stop-color="#F7FAFF"/>
            <stop offset="100%" stop-color="#6B9AD9"/>
        </linearGradient>
        <linearGradient id="k" x1="33.018%" x2="92.365%" y1="-9.919%" y2="110.02%">
            <stop offset="0%" stop-color="#E5EDFF"/>
            <stop offset="100%" stop-color="#6B9AD9"/>
        </linearGradient>
        <linearGradient id="l" x1="140.229%" x2="25.261%" y1="-6.483%" y2="143.48%">
            <stop offset="0%" stop-color="#E5EDFF"/>
            <stop offset="100%" stop-color="#6B9AD9"/>
        </linearGradient>
        <linearGradient id="m" x1="79.498%" x2="41.912%" y1="-6.483%" y2="143.48%">
            <stop offset="0%" stop-color="#E5EDFF"/>
            <stop offset="100%" stop-color="#6B9AD9"/>
        </linearGradient>
        <linearGradient id="n" x1="50%" x2="55.252%" y1="3.057%" y2="79.712%">
            <stop offset="0%" stop-color="#FFE579"/>
            <stop offset="100%" stop-color="#FEC644"/>
        </linearGradient>
        <linearGradient id="o" x1="61.039%" x2="50%" y1="-64.998%" y2="87.588%">
            <stop offset="0%" stop-color="#FFEDBF"/>
            <stop offset="100%" stop-color="#FEC644"/>
        </linearGradient>
        <linearGradient id="p" x1="50%" x2="50%" y1="-10.877%" y2="100%">
            <stop offset="0%" stop-color="#FFE579"/>
            <stop offset="100%" stop-color="#FEB755"/>
        </linearGradient>
        <linearGradient id="q" x1="140.584%" x2="25.163%" y1="3.449%" y2="127.043%">
            <stop offset="0%" stop-color="#E5EDFF"/>
            <stop offset="100%" stop-color="#6B9AD9"/>
        </linearGradient>
        <linearGradient id="r" x1="50%" x2="-14.256%" y1="19.686%" y2="294.476%">
            <stop offset="0%" stop-color="#F7FAFF"/>
            <stop offset="100%" stop-color="#6B9AD9"/>
        </linearGradient>
        <linearGradient id="s" x1="50%" x2="51.779%" y1="27.773%" y2="103.623%">
            <stop offset="0%" stop-color="#1542AB"/>
            <stop offset="100%" stop-color="#2B68EE"/>
        </linearGradient>
        <linearGradient id="t" x1="53.494%" x2="50.678%" y1="0%" y2="50%">
            <stop offset="0%" stop-color="#3485F7"/>
            <stop offset="100%" stop-color="#1A57CF"/>
        </linearGradient>
        <linearGradient id="u" x1="50%" x2="20.694%" y1="19.686%" y2="294.476%">
            <stop offset="0%" stop-color="#F7FAFF"/>
            <stop offset="100%" stop-color="#6B9AD9"/>
        </linearGradient>
        <linearGradient id="v" x1="107.254%" x2="38.27%" y1="-120.462%" y2="-120.462%">
            <stop offset="0%" stop-color="#FAD0BA"/>
            <stop offset="100%" stop-color="#F2A384"/>
        </linearGradient>
        <linearGradient id="w" x1="50%" x2="50%" y1="32.119%" y2="100%">
            <stop offset="0%" stop-color="#84F0A8"/>
            <stop offset="100%" stop-color="#48B676"/>
        </linearGradient>
        <linearGradient id="x" x1="50%" x2="50%" y1="32.119%" y2="100%">
            <stop offset="0%" stop-color="#84F0A8"/>
            <stop offset="100%" stop-color="#48B676"/>
        </linearGradient>
        <linearGradient id="y" x1="50%" x2="60.668%" y1="9.594%" y2="52.891%">
            <stop offset="0%" stop-color="#46C36F" stop-opacity="0"/>
            <stop offset="100%" stop-color="#4DBB7A"/>
        </linearGradient>
        <linearGradient id="z" x1="107.254%" x2="38.27%" y1="-120.462%" y2="-120.462%">
            <stop offset="0%" stop-color="#FAD0BA"/>
            <stop offset="100%" stop-color="#F2A384"/>
        </linearGradient>
        <linearGradient id="A" x1="107.254%" x2="38.27%" y1="-120.462%" y2="-120.462%">
            <stop offset="0%" stop-color="#FAD0BA"/>
            <stop offset="100%" stop-color="#F2A384"/>
        </linearGradient>
        <linearGradient id="B" x1="107.254%" x2="38.27%" y1="-120.462%" y2="-120.462%">
            <stop offset="0%" stop-color="#FAD0BA"/>
            <stop offset="100%" stop-color="#F2A384"/>
        </linearGradient>
        <linearGradient id="C" x1="74.912%" x2="-1.58%" y1="68.312%" y2="23.909%">
            <stop offset="0%" stop-color="#092871"/>
            <stop offset="100%" stop-color="#2B68EE"/>
        </linearGradient>
        <linearGradient id="D" x1="50%" x2="55.252%" y1="14.728%" y2="72.325%">
            <stop offset="0%" stop-color="#FFE579"/>
            <stop offset="100%" stop-color="#FEC644"/>
        </linearGradient>
        <linearGradient id="E" x1="79.574%" x2="-11.231%" y1="68.312%" y2="23.909%">
            <stop offset="0%" stop-color="#092871"/>
            <stop offset="100%" stop-color="#2B68EE"/>
        </linearGradient>
        <linearGradient id="F" x1="64.088%" x2="20.832%" y1="68.312%" y2="23.909%">
            <stop offset="0%" stop-color="#092871"/>
            <stop offset="100%" stop-color="#2B68EE"/>
        </linearGradient>
        <linearGradient id="G" x1="86.23%" x2="92.496%" y1="41.55%" y2="14.979%">
            <stop offset="0%" stop-color="#F1A385" stop-opacity="0"/>
            <stop offset="100%" stop-color="#F2A384"/>
        </linearGradient>
        <linearGradient id="H" x1="60.731%" x2="52.081%" y1="38.05%" y2="50%">
            <stop offset="0%" stop-color="#3485F7"/>
            <stop offset="100%" stop-color="#1A57CF"/>
        </linearGradient>
        <linearGradient id="I" x1="107.254%" x2="38.27%" y1="-120.462%" y2="-120.462%">
            <stop offset="0%" stop-color="#FAD0BA"/>
            <stop offset="100%" stop-color="#F2A384"/>
        </linearGradient>
        <linearGradient id="J" x1="100%" x2="0%" y1="50%" y2="50%">
            <stop offset="0%" stop-color="#2865C6"/>
            <stop offset="100%" stop-color="#10378A"/>
        </linearGradient>
        <linearGradient id="K" x1="50%" x2="55.005%" y1="27.773%" y2="103.623%">
            <stop offset="0%" stop-color="#1542AB"/>
            <stop offset="100%" stop-color="#2B68EE"/>
        </linearGradient>
        <linearGradient id="L" x1="107.254%" x2="38.27%" y1="-120.462%" y2="-120.462%">
            <stop offset="0%" stop-color="#FAD0BA"/>
            <stop offset="100%" stop-color="#F2A384"/>
        </linearGradient>
        <linearGradient id="M" x1="56.058%" x2="51.175%" y1="0%" y2="50%">
            <stop offset="0%" stop-color="#3485F7"/>
            <stop offset="100%" stop-color="#1A57CF"/>
        </linearGradient>
        <linearGradient id="N" x1="100%" x2="0%" y1="50%" y2="50%">
            <stop offset="0%" stop-color="#2865C6"/>
            <stop offset="100%" stop-color="#10378A"/>
        </linearGradient>
        <linearGradient id="O" x1="50%" x2="67.286%" y1="42.008%" y2="79.489%">
            <stop offset="0%" stop-color="#84F0A8"/>
            <stop offset="100%" stop-color="#48B676"/>
        </linearGradient>
        <linearGradient id="P" x1="50%" x2="60.514%" y1="38.268%" y2="74.082%">
            <stop offset="0%" stop-color="#46C36F" stop-opacity="0"/>
            <stop offset="100%" stop-color="#4DBB7A"/>
        </linearGradient>
        <linearGradient id="Q" x1="107.254%" x2="38.27%" y1="-120.462%" y2="-120.462%">
            <stop offset="0%" stop-color="#FAD0BA"/>
            <stop offset="100%" stop-color="#F2A384"/>
        </linearGradient>
        <linearGradient id="R" x1="93.673%" x2="1.757%" y1="46.682%" y2="53.42%">
            <stop offset="0%" stop-color="#7BE7A1"/>
            <stop offset="100%" stop-color="#84F0A8"/>
        </linearGradient>
        <linearGradient id="S" x1="50%" x2="50%" y1="0%" y2="100%">
            <stop offset="0%" stop-color="#A0ECC3"/>
            <stop offset="100%" stop-color="#67D490"/>
        </linearGradient>
        <linearGradient id="T" x1="140.584%" x2="25.163%" y1="9.934%" y2="116.309%">
            <stop offset="0%" stop-color="#E5EDFF"/>
            <stop offset="100%" stop-color="#6B9AD9"/>
        </linearGradient>
        <linearGradient id="U" x1="50%" x2="-33.812%" y1="31.474%" y2="199.412%">
            <stop offset="0%" stop-color="#F7FAFF"/>
            <stop offset="100%" stop-color="#6B9AD9"/>
        </linearGradient>
        <linearGradient id="V" x1="140.584%" x2="25.163%" y1="7.21%" y2="120.818%">
            <stop offset="0%" stop-color="#E5EDFF"/>
            <stop offset="100%" stop-color="#6B9AD9"/>
        </linearGradient>
    </defs>
    <g fill="none" fill-rule="evenodd">
        <path fill="#F2F7FF" d="M780.167-.81l-625 74.294C143.093 74.919 134 85.157 134 97.316v497.368c0 12.159 9.093 22.397 21.167 23.832l625 74.294c13.162 1.565 25.1-7.837 26.665-20.999a24 24 0 0 0 .168-2.833V23.022c0-13.255-10.745-24-24-24a24 24 0 0 0-2.833.168z"/>
        <g fill="#E2EBFC" transform="translate(0 50)">
            <ellipse cx="662.356" cy="201.524" opacity=".3" rx="200.528" ry="201.134"/>
            <ellipse cx="201.144" cy="333.336" opacity=".2" rx="200.528" ry="201.134"/>
        </g>
        <ellipse cx="236.304" cy="12" fill="#E2EBFC" opacity=".34" rx="236.094" ry="12" transform="translate(166 619)"/>
        <g fill-rule="nonzero">
            <path fill="url(#a)" d="M.743 71.276L70.87 1.15a1.626 1.626 0 0 1 2.3 0l51.732 51.732a1.626 1.626 0 0 1 0 2.3l-70.127 70.126a1.626 1.626 0 0 1-2.299 0L.743 73.576a1.626 1.626 0 0 1 0-2.3z" transform="translate(48 163)"/>
            <path fill="url(#b)" d="M81.216 81.623c-7.301 7.301-19.14 7.301-26.44 0-7.302-7.302-7.302-19.14 0-26.441 7.3-7.302 19.139-7.302 26.44 0 7.302 7.301 7.302 19.14 0 26.44z" transform="translate(48 163)"/>
            <path fill="#FFF" d="M110.527 228.308l9.394-2.897a1.626 1.626 0 0 1 2.032 2.033l-2.897 9.393a1.626 1.626 0 0 1-2.703.67l-6.496-6.496a1.626 1.626 0 0 1 .67-2.703z"/>
            <path fill="url(#b)" d="M.743 71.276L70.87 1.15a1.626 1.626 0 0 1 2.3 0l6.322 6.323L7.066 79.899.743 73.576a1.626 1.626 0 0 1 0-2.3z" transform="translate(48 163)"/>
            <path fill="#FFF" d="M57.365 236a1.626 1.626 0 1 1-2.299-2.298 1.626 1.626 0 0 1 2.3 2.299zM61.389 231.977a1.626 1.626 0 1 1-2.3-2.3 1.626 1.626 0 0 1 2.3 2.3z"/>
        </g>
        <g fill-rule="nonzero">
            <path fill="url(#c)" d="M25.788 2.082a3.256 3.256 0 0 1 4.43-1.179l28.088 16.098a3.207 3.207 0 0 1 1.187 4.398l-7.601 14.82 7.057 4.012c.385.22.662.589.766 1.018a1.61 1.61 0 0 1-1.198 1.941l-11.895 3.493-11.859 17.235a3.256 3.256 0 0 1-4.43 1.179L2.245 48.999a3.207 3.207 0 0 1-1.187-4.398l24.73-42.52z" transform="translate(59 337)"/>
            <path fill="#FFF" d="M84.374 367.655c-2.059-1.18-2.638-4.008-1.295-6.318 1.343-2.31 3.974-3.299 7.402-1.334 2.285 1.31 4.39 6.234 6.316 14.772-8.412 2.614-13.76 3.267-16.046 1.957-3.428-1.965-3.88-4.72-2.537-7.03 1.344-2.31 4.101-3.226 6.16-2.047z"/>
        </g>
        <g fill-rule="nonzero">
            <path fill="url(#d)" d="M5.869 20.766c7.451-6.158 13.91-11.173 19.377-15.042C33.446-.08 44.091-.64 49.413.77c5.996 4.363 21.674 16.247 28.139 22.379-3.813.72-7.198.72-12.254 2.002-18.17 4.609-24.589 20.143-27.016 21.125-4.527 1.83-2.611.988-5.344 1.338-1.822.233-10.845-8.716-27.07-26.848z" transform="translate(157 466)"/>
            <path fill="url(#e)" d="M6.93 14.967C.066 22.05-1.3 26.989 2.83 29.785c4.444 3.008 18.164 11.91 24.486 15.692 4.085 2.444 7.855 2.529 11.31.253-4.506 1.83-7.416 1.056-8.73-2.325-1.312-3.382.497-6.82 5.428-10.313L6.929 14.967z" transform="translate(157 466)"/>
        </g>
        <path fill="url(#f)" fill-rule="nonzero" d="M1.955 20.75c7.544-6.446 13.6-11.317 18.17-14.613 8.08-5.828 18.569-6.39 23.812-4.975 5.908 4.381 21.356 16.315 27.725 22.471-3.756.724-7.092.724-12.073 2.011-17.904 4.627-24.228 20.225-26.619 21.21-4.46 1.839-2.573.993-5.266 1.345-1.654.216-10.254-6.514-25.801-20.188a4.796 4.796 0 0 1 .052-7.26z" transform="matrix(-1 0 0 1 519 525)"/>
        <g fill-rule="nonzero">
            <path fill="url(#g)" d="M148.45 47.57L80.461.554C62.431 40.406 35.788 68.743.535 85.565L58.709 140c45.515-16.778 75.429-47.589 89.74-92.43z" transform="translate(555 444)"/>
            <path fill="#C5D7F3" d="M588.594 525.734l-5.302 3.547 43.242 35.51 6.472-3.44zM633.842 468.067l51.014 32.067-3.458 5.469-50.784-31.989zM626.189 481.208l51.014 32.067-3.459 5.468-50.783-31.988zM643.06 511.983l25.638 15.737-3.459 5.468-25.407-15.659zM619.067 492.16l16.571 12.446a45.924 45.924 0 0 1-1.704 3.589 46.944 46.944 0 0 1-13.226 15.66 175.589 175.589 0 0 0-5.659 4.452l-17.047-13.315c.83-.493 1.752-1.054 2.766-1.685a46.949 46.949 0 0 0 16.778-18.065 64.38 64.38 0 0 0 1.521-3.083zM633.568 523.33l22.96 18.201c-2.643 3.943-5.598 7.275-8.863 9.996-3.265 2.722-6.706 4.72-10.322 5.993l-23.291-17.85c4.908-2.899 8.783-5.55 11.624-7.952 2.841-2.403 5.472-5.199 7.892-8.388z" opacity=".517" style="mix-blend-mode:multiply"/>
        </g>
        <g fill-rule="nonzero">
            <path fill="url(#h)" d="M.695 36.58c0-14.903 2.52-27.056 7.562-36.458 18.92 25.39 38.934 36.882 60.04 34.478.65 19.012-14.028 80 53.104 91.023-13.127 0-24.895-2.56-35.304-7.679-33.228-14.192-55.5-27.101-66.814-38.726C7.968 67.593 1.773 53.381.695 36.581z" transform="translate(285 464)"/>
            <path fill="url(#i)" d="M.404 34.632c3.156 33.273 21.173 42.565 54.05 27.876 11.366 36.426 35.188 57.407 71.466 62.944-37.539-.618-67.346-8.914-89.422-24.887C14.422 84.59 2.391 62.614.404 34.632z" transform="translate(285 464)"/>
        </g>
        <g transform="translate(670 217)">
            <path fill="url(#j)" fill-rule="nonzero" d="M38.42 98.358C37.04 86.856 31.804 76.542 24.047 68.75c-2.72-3.22-6.382-6.04-11.066-8.417A50.095 50.095 0 0 0 .182 55.297C.337 50.125 3.899 25.283 7.595.277 75.278 9.85 61.863 73.658 56.785 83.4c-2.277 4.37-8.398 9.355-18.364 14.957z"/>
            <path fill="url(#k)" d="M7.53.182c31.287 4.216 55.066 25.231 55.066 50.521 0 10.319-3.958 19.926-10.77 27.97 3.374-6.138 5.24-12.886 5.24-19.97 0-24.124-21.636-44.358-50.786-49.832L7.53.182z"/>
            <ellipse cx="13.213" cy="6.07" fill="url(#l)" fill-rule="nonzero" rx="2.019" ry="2.023"/>
            <ellipse cx="20.161" cy="8.048" fill="url(#l)" fill-rule="nonzero" rx="2.019" ry="2.023"/>
            <path fill="url(#m)" fill-rule="nonzero" d="M7.803 101.187c25.36-3.501 45.74-18.046 52.444-36.936.504-.588.775-.907.787-.898 0 54.633-17.743 85.726-53.23 93.28v-55.446z"/>
        </g>
        <g fill-rule="nonzero">
            <path fill="url(#n)" d="M36.232 1.338l55.306 44.903a2.437 2.437 0 0 1 .359 3.421L60.238 88.86a2.422 2.422 0 0 1-3.412.36L1.52 44.316a2.437 2.437 0 0 1-.358-3.421L32.82 1.698a2.422 2.422 0 0 1 3.412-.36z" transform="translate(227 145)"/>
            <path fill="url(#o)" d="M1.98 44.159a.811.811 0 0 1 .459-1.44l46.715-2.855a2.428 2.428 0 0 1 2.543 2.047l7.412 46.813a.807.807 0 0 1-1.308.757L1.98 44.159z" transform="translate(227 145)"/>
            <path fill="url(#p)" d="M35.884 1.056l56.012 45.476a.812.812 0 0 1-.428 1.437l-48.653 4.9a2.428 2.428 0 0 1-2.652-2.144L34.572 1.778a.81.81 0 0 1 1.312-.722z" transform="translate(227 145)"/>
        </g>
        <g fill-rule="nonzero">
            <path fill="url(#q)" d="M1.424 59.113a1.604 1.604 0 0 1-.256-2.278l10.635-13.072a1.648 1.648 0 0 1 2.185-.33l3.782 2.51a1.65 1.65 0 0 0 2.015-.15l45.25-40.96a1.648 1.648 0 0 1 2.333.126l33.983 38.304c.57.643.536 1.614-.079 2.215L50.08 95.586a1.649 1.649 0 0 1-2.169.116L1.424 59.113z" transform="translate(440 168)"/>
            <path fill="url(#r)" d="M47.672 95.595L18.939 60.563a1.604 1.604 0 0 1 .127-2.175L78.558.916a1.648 1.648 0 0 1 2.312.026c.121.123.222.263.298.417l21.065 42.358c.312.627.181 1.38-.324 1.87L50.085 95.731a1.648 1.648 0 0 1-2.413-.137z" transform="translate(440 168)"/>
            <path fill="#A3C1EA" d="M488.912 258.285l-1.586-1.67 15.374-14.493 1.246 1.928z"/>
        </g>
        <g fill-rule="nonzero">
            <path fill="url(#s)" d="M4.483 12.69L26.773.745h3.21c.784 0 1.456.563 1.597 1.336l11.54 63.432a1.628 1.628 0 0 1-1.533 1.92L14.86 68.497a1.625 1.625 0 0 1-1.663-1.337L3.651 14.418a1.63 1.63 0 0 1 .832-1.727z" transform="translate(387.458 301.396)"/>
            <path fill="url(#t)" d="M1.318 12.72L26.446.904a1.622 1.622 0 0 1 2.288 1.192l11.169 63.523a1.628 1.628 0 0 1-1.448 1.904l-26.762 2.52a1.625 1.625 0 0 1-1.751-1.338L.408 14.478a1.63 1.63 0 0 1 .91-1.757z" transform="translate(387.458 301.396)"/>
            <path fill="url(#u)" d="M3.82 18.4L26.247 8.215a.81.81 0 0 1 1.135.6l9.183 52.232a.814.814 0 0 1-.72.951l-23.806 2.344a.812.812 0 0 1-.879-.669L3.356 19.284a.815.815 0 0 1 .464-.883z" transform="translate(387.458 301.396)"/>
        </g>
        <g fill-rule="nonzero">
            <path fill="url(#v)" d="M16.884 43.239L5.277 41.72c4.816-8.24 7.91-15.718 9.279-22.431 1.464-3.967-.296-4.87 1.116-10.637.79-3.225 2.384-7.384 6.299-8.37.478 3.503.941 5.525 1.426 8.37.485 2.845 1.757-3.678 4.95-2.845 3.192.833-3.096 7.043-3.096 9.679 0 4.209-.934 7.005-2.802 8.388l-5.565 19.365z" transform="translate(370.409 341.293)"/>
            <path fill="url(#w)" d="M1.4 42.196c6.809-9.044 10.213-14.14 10.213-15.286 0-1.72 11.208-1.606 11.208 2.204 0 3.81-4.28 19.311-6.325 20.621-1.362.874-6.827 1.296-16.394 1.267L1.4 42.196z" transform="translate(370.409 341.293)"/>
        </g>
        <g fill-rule="nonzero">
            <path fill="url(#x)" d="M4.878 53.763c33.272-.026 54.064-6.618 62.375-19.776 12.466-19.737 7.45-29.388 16.88-32.721 9.43-3.334 22.576 10.542 26.564 17.362 2.66 4.547 8.988 31.265 18.988 80.155L14.367 83.994l-9.489-30.23z" transform="translate(376.904 334.78)"/>
            <path fill="#6EDB96" d="M454.954 358.907l1.473 5.514a2.438 2.438 0 1 1-4.712 1.266l-1.473-5.513c-.613.099-1.074.223-1.383.371-.619.297 3.833-10.438 3.833-10.102 0 .955.333 2.202 1 3.739l5.497-1.477a2.447 2.447 0 0 1 1.263 4.726l-5.498 1.476z"/>
            <path fill="url(#y)" d="M.256 58.414C40.28 56 65.794 49.143 76.802 37.84 84.18 30.267 88.01 27.44 88.047 19.122c.037-8.317-9.868-10.76-3.867-15.516 9.126-7.234 35.745 19.567 38.324 23.977 2.659 4.547 5.052 36.422 7.18 95.627L14.368 108.42.257 58.414z" transform="translate(376.904 334.78)"/>
        </g>
        <path fill="url(#z)" d="M182.164 142.936c-5.53-2.653-10.097-7.354-13.704-14.105-15.542-9.492-23.793-7.245-24.755 6.74 1.84 7.077 11.122 17.966 27.843 32.668l1.791 1.122 18.562-17.384-9.737-9.041z" transform="translate(165.406 241.957)"/>
        <path fill="url(#A)" d="M167.352 109.033c.896.223 1.809.383 2.74.482 4.933.52 3.887 4.206 1.43 7.008 4.103 10.24 5.692 17.278 4.77 21.114-1.41 5.855-10.266 9.288-28.13 6.513l-17.364-12.565c-3.745 3.685-7.369 2.911-10.87-2.32-5.251-7.847.971-10.749 4.562-10.119 4.238-5.535 4.142-11.937-.287-19.204 9.025-.707 15.785-2.272 20.28-4.695 4.495-2.423 7.43-5.637 8.806-9.64 3.757 2.354 6.29 6.375 7.6 12.06l6.463 11.366z" transform="translate(165.406 241.957)"/>
        <path fill="url(#B)" d="M150.687 90.287a15.232 15.232 0 0 0 2.602-4.68c3.757 2.354 6.29 6.375 7.6 12.06l6.463 11.366c.101.025.203.05.304.073-5.413.544-10.284-3.934-14.614-13.433a172.715 172.715 0 0 1-2.355-5.386z" transform="translate(165.406 241.957)"/>
        <path fill="url(#C)" d="M94.991 134.349c-24.356 2.035-26.792-15.878-17.05-50.076 9.743-34.198 19.892-60.66-16.237-78.98-36.13-18.32-83.625 17.506-49.12 61.067 34.506 43.562 22.733 71.653 58.05 80.202 23.545 5.7 38.16 2.307 43.843-10.178-7.91 3.7-14.404 3.022-19.486-2.035z" transform="translate(165.406 241.957)"/>
        <path fill="url(#D)" d="M93.774 132.313c-2.165 4.343-1.354 8.143 2.435 11.4 3.79 3.257 8.12 3.392 12.99.407l-15.425-11.807z" transform="translate(165.406 241.957)"/>
        <path fill="url(#E)" d="M153.448 85.902c-1.354 9.5-8.12 15.742-20.298 18.727 1.353 7.6.406 12.757-2.841 15.47l2.435 6.515c-3.788-3.8-6.63-5.7-8.524-5.7-2.842 0-7.713 3.664-3.654 8.957 2.706 3.528 6.09 4.07 10.149 1.628 6.765 1.357 15.02 6.107 24.762 14.25v6.106c-5.277 2.443-72.664 2.55-68.199-40.712.659-6.38 1.695-12.185 3.108-17.416 6.352-23.508 30.504-37.4 53.945-31.03a43.895 43.895 0 0 1 8 3.039c9.35 4.64 14.488 14.147 8.424 31.972l-1.096-3.296a17.276 17.276 0 0 0-6.211-8.51z" transform="translate(165.406 241.957)"/>
        <path fill="url(#F)" d="M86.059 149.096c-4.626-.32-9.768-1.164-15.424-2.534-35.318-8.55-23.545-36.64-58.05-80.202C-14.376 32.325 8.722 3.011 37.346.556v.258c-16.78 7.871-23.274 18.32-19.485 31.348 5.683 19.542 28.822 16.692 25.574 39.49-3.247 22.8 15.02 10.993 15.02 35.013 0 15.78 12.616 35.428 27.603 42.431z" transform="translate(165.406 241.957)"/>
        <path fill="url(#G)" d="M136.843 135.96c2.024-4.102 5.664-6.267 10.921-6.497 12.45-.542 20.298-4.75 23.545-12.62l.719.957c3.726 9.55 5.147 16.163 4.263 19.837-1.408 5.855-10.265 9.288-28.13 6.513l-11.318-8.19z" transform="translate(165.406 241.957)"/>
        <g fill="url(#H)" fill-rule="nonzero" transform="translate(337.933 382.82)">
            <path d="M.257 7.789c5.514-.852 8.271-2.06 8.271-3.626 0-1.566-.332-2.645-.996-3.238C26.504.055 37.935-.092 41.827.485c5.837.867 12.276 12.835 12.942 12.835.666 0 16.443 13.273 22.797 13.273 4.236 0 11.819 2.356 22.75 7.066L83.972 49.056l-67.278-8.922L.257 7.79z"/>
        </g>
        <g>
            <path fill="url(#I)" fill-rule="nonzero" d="M150.24 88.126c-.99-.67-4.991-8.545 2.608-9.827 7.6-1.281 9.383-1.611 12.311-2.55 1.953-.624 3.375-1.65 4.265-3.077l-1.016 10.399-5.838 4.342c-7.56.923-11.67 1.16-12.33.713z" transform="translate(441.855 233)"/>
            <path fill="url(#J)" fill-rule="nonzero" d="M160.017 88.333c-.007-2.256 5.628-2.567 7.158-6.013 1.53-3.445-1.685-7.448-.874-8.141 2.37-2.026 4.626-5.495 7.896-8.961 8.045-8.528 8.99-9.28 13.618-5.45 1.174.524-3.34 12.275-13.54 35.252-2.867-.166-5.382-.689-7.545-1.567-3.243-1.318-6.705-2.864-6.713-5.12z" transform="translate(441.855 233)"/>
            <path fill="url(#K)" fill-rule="nonzero" d="M56.134 86.969c11.716-5.905 94.366-15.92 99.772-12.931 2.916 1.612 3.213 7.183.892 16.712a5.693 5.693 0 0 1-3.842 4.093c-39.592 12.279-60.028 17.911-61.308 16.897-1.967-1.56-31.367 85.704-40.937 100.706-9.57 15.001-21.47 37.284-41.48 8.943-13.34-18.893-11.762-31.548 4.733-37.965 20.303-60.368 34.36-92.52 42.17-96.455z" transform="translate(441.855 233)"/>
            <path fill="url(#L)" fill-rule="nonzero" d="M172.382 39.104c-1.13-.39-7.028-6.958-.018-10.169 7.01-3.21 8.647-3.991 11.234-5.658 1.724-1.11 2.833-2.47 3.325-4.08l1.702 10.308-4.518 5.71c-7.064 2.854-10.973 4.15-11.725 3.89z" transform="translate(441.855 233)"/>
            <path fill="url(#M)" fill-rule="nonzero" d="M74.95 72.814c11.778-13.486 93.7-49.255 99.763-48.087 3.3.636 4.61 6.043 3.928 16.223a4.885 4.885 0 0 1-2.952 4.167c-17.853 7.625-40.833 22.142-68.938 43.55-3.5 44.242-6.744 72.108-9.73 83.596-4.48 17.233-20.64 64.081-48.402 43.329-18.509-13.835-22.03-33.299-10.566-58.391 16.746-47.267 29.045-75.396 36.897-84.387z" transform="translate(441.855 233)"/>
            <path stroke="#1A57CF" stroke-dasharray="5,10" stroke-linecap="round" stroke-linejoin="round" d="M615.194 262.72c-46.819 23.07-75.506 39.354-86.06 48.854-10.555 9.5-14.208 40.576-10.96 93.23"/>
            <path fill="url(#N)" fill-rule="nonzero" d="M181.878 36.766c-.59-2.176 4.774-3.94 5.362-7.665.588-3.725-3.55-6.758-2.945-7.638 1.767-2.572 3.05-6.508 5.315-10.705C195.18.433 195.898-.539 201.357 1.96c1.27.202-.058 12.724-3.981 37.566-2.813.583-5.377.732-7.692.444-3.473-.431-7.216-1.026-7.806-3.203z" transform="translate(441.855 233)"/>
        </g>
        <g transform="translate(309.517 329.894)">
            <path fill="url(#O)" fill-rule="nonzero" d="M14.233 63.16c6.5-7.318 11.208-10.978 14.125-10.978 4.375 0 4.375 5.271 7.633 6.76 9.683 4.422 70.265 43.174 108.622 10.283C182.969 36.334 182.823.613 190.259.613c7.437 0 34.084 37.3 41.942 60.862 4.777 14.323 7.674 29.578 8.69 45.764a9.785 9.785 0 0 1-3.218 7.887c-39.127 35.202-80.057 50.43-122.79 45.686C48.89 153.483 5.87 105.295 1.043 86.039c-3.218-12.837 1.178-20.464 13.19-22.878z"/>
            <path fill="#7DE9A2" fill-rule="nonzero" d="M179.766 152.136c-1.94.756-3.886 1.467-5.835 2.133l-.473-1.77-6.972 1.874a3.092 3.092 0 0 1-3.788-2.194 3.103 3.103 0 0 1 2.187-3.8l6.972-1.873-1.868-6.992a3.108 3.108 0 0 1 .858-3.054 41.608 41.608 0 0 0 2.854-.766 3.097 3.097 0 0 1 2.264 2.214l1.868 6.992 6.972-1.873a3.092 3.092 0 0 1 3.789 2.193 3.103 3.103 0 0 1-2.188 3.8l-6.972 1.873.332 1.243zM51.628 123.699c-6.38 0-11.553-5.187-11.553-11.586s5.172-11.586 11.553-11.586c6.38 0 11.553 5.187 11.553 11.586s-5.173 11.586-11.553 11.586zm0-6.952a4.628 4.628 0 0 0 4.621-4.634 4.628 4.628 0 0 0-4.621-4.635 4.628 4.628 0 0 0-4.621 4.635 4.628 4.628 0 0 0 4.62 4.634zm73.66-18.073l5.104 5.118a3.109 3.109 0 0 1 0 4.387 3.087 3.087 0 0 1-4.375 0l-5.104-5.118-5.103 5.118a3.087 3.087 0 0 1-4.375 0 3.109 3.109 0 0 1 0-4.387l5.104-5.118-5.104-5.119a3.109 3.109 0 0 1 0-4.387 3.087 3.087 0 0 1 4.375 0l5.103 5.118 5.104-5.118a3.087 3.087 0 0 1 4.375 0 3.109 3.109 0 0 1 0 4.387l-5.104 5.119zM196 44.063l5.104 5.118a3.109 3.109 0 0 1 0 4.388 3.087 3.087 0 0 1-4.375 0l-5.104-5.119-5.103 5.119a3.087 3.087 0 0 1-4.375 0 3.109 3.109 0 0 1 0-4.388l5.104-5.118-5.104-5.119a3.109 3.109 0 0 1 0-4.387 3.087 3.087 0 0 1 4.375 0l5.103 5.119 5.104-5.119a3.087 3.087 0 0 1 4.375 0 3.109 3.109 0 0 1 0 4.387L196 44.063zm-93.819 108.764c-6.97 0-12.62-5.667-12.62-12.656 0-6.99 5.65-12.656 12.62-12.656 6.97 0 12.62 5.666 12.62 12.656s-5.65 12.656-12.62 12.656zm0-7.594c2.788 0 5.048-2.266 5.048-5.062 0-2.796-2.26-5.063-5.048-5.063-2.788 0-5.048 2.267-5.048 5.063s2.26 5.062 5.048 5.062zm68.557-41.007c-6.97 0-12.62-5.666-12.62-12.656s5.65-12.655 12.62-12.655c6.97 0 12.62 5.666 12.62 12.655 0 6.99-5.65 12.656-12.62 12.656zm0-7.593c2.788 0 5.048-2.267 5.048-5.063 0-2.795-2.26-5.062-5.048-5.062-2.788 0-5.048 2.267-5.048 5.062 0 2.796 2.26 5.063 5.048 5.063z"/>
            <path fill="#52C47D" fill-rule="nonzero" d="M95.37 81.514c11.2 1.555 22.747 1.136 33.488-2.925-2.379 10.171-7.933 20.321-16.664 30.45-24.262 28.148-98.036.69-105.051-11.858-7.015-12.547 1.63-32.524 15.744-35.417 4.919-1.008 8.108 23.144 15.678 26.58 14.148 6.423 34.732-5.059 48.108-5.059 3.236 0 6.135-.59 8.698-1.771z" opacity=".5"/>
            <path fill="url(#P)" fill-rule="nonzero" d="M232.217 61.523c4.768 14.31 7.659 29.548 8.673 45.716a9.785 9.785 0 0 1-3.217 7.887c-39.127 35.202-80.057 50.43-122.79 45.686-29.32-3.256-54.106-14.578-73.021-27.845.79.316 1.586.64 2.386.975 75.1 31.348 47.496 2.035 103.922 4.07 56.427 2.037 31.258-28.09 58.05-35.418 17.639-4.825 26.304-18.515 25.997-41.071z"/>
            <path stroke="#5FCC89" d="M188.765 12.62c-18.132 48.312-43.978 73.825-77.536 76.539M176.597 68.068a2 2 0 0 1 .599-3.336l2.078-.834a2.43 2.43 0 0 1 1.913.044l13.821 6.3a4.887 4.887 0 0 1 2.843 4.81l-1.24 16.79a2.44 2.44 0 0 1-1.882 2.2l-1.085.251a2.432 2.432 0 0 1-2.926-1.853c-1.145-5.196-2.867-9.742-5.165-13.638-2.194-3.72-5.18-7.298-8.956-10.734z"/>
            <ellipse cx="194.576" cy="74.002" fill="#5FCC89" rx="1.367" ry="1.371"/>
            <ellipse cx="28.03" cy="56.607" fill="#48C172" rx="2.03" ry="2.036"/>
            <path stroke="#48C172" stroke-dasharray="5,10" stroke-linecap="round" stroke-linejoin="round" d="M188.765 12.62c25.71 27.413 40.189 60.933 43.436 100.559"/>
        </g>
        <g>
            <path fill="url(#Q)" fill-rule="nonzero" d="M109.035 47.093l-.842-15.567c-2.576-4.025-3.865-8.141-3.865-12.35 0-6.049-6.568-9.219-4.675-11.006.381-.36 1.992-.67 4.03 0 1.86.612 4.146 5.961 6.134 6.871.857.393 1.849-2.536 2.465-4.424.464-1.42.852-4.337.852-5.062 0-.725-.852-3.992-.852-4.695 3.248-1.483 9.548 3.428 10.337 6.652.941 3.844-.357 10.148-3.893 18.91l1.915 19.152-11.606 1.519z" transform="translate(312.764 335.594)"/>
            <path fill="url(#R)" fill-rule="nonzero" d="M106.415 37.741c-4.43 26.09-13.49 39.135-27.178 39.135-20.532 0-50.679-24.2-64.791-21.308C.333 58.46-3.12 70.792 3.896 83.338c7.014 12.548 80.788 40.007 105.05 11.86 16.175-18.766 21.449-37.603 15.822-56.514-2.361-2.367-5.122-3.632-8.282-3.795-3.16-.162-6.517.789-10.071 2.852z" transform="translate(312.764 335.594)"/>
            <path fill="url(#S)" fill-rule="nonzero" d="M29.469 90.384c-6.97 0-12.62-5.666-12.62-12.656s5.65-12.655 12.62-12.655c6.97 0 12.62 5.666 12.62 12.655 0 6.99-5.65 12.656-12.62 12.656zm0-7.593c2.788 0 5.048-2.267 5.048-5.063 0-2.795-2.26-5.062-5.048-5.062-2.788 0-5.048 2.267-5.048 5.062 0 2.796 2.26 5.063 5.048 5.063z" opacity=".396" style="mix-blend-mode:overlay" transform="translate(312.764 335.594)"/>
            <path stroke="#5FCC89" d="M323.725 405.618c39.512 20.627 67.658 26.055 84.437 16.285 16.779-9.771 23.545-25.784 20.297-48.04"/>
        </g>
        <g>
            <path fill="url(#T)" fill-rule="nonzero" d="M1.985 26.214L98.184.495a1.633 1.633 0 0 1 2 1.152l19.014 70.809a1.629 1.629 0 0 1-1.154 1.995L21.846 100.17a1.633 1.633 0 0 1-2-1.152L.831 28.209a1.629 1.629 0 0 1 1.154-1.995z" transform="translate(319 199)"/>
            <path fill="url(#U)" d="M99.353 11.145l16.269 60.58-93.045 24.876L6.31 36.021z" transform="translate(319 199)"/>
            <path fill="#F2F5FF" fill-rule="nonzero" d="M327.618 231.03a1.629 1.629 0 1 1-.845-3.147 1.629 1.629 0 1 1 .845 3.147zM333.137 229.555a1.629 1.629 0 1 1-.845-3.147 1.629 1.629 0 1 1 .845 3.147z"/>
            <path fill="url(#V)" fill-rule="nonzero" d="M30.096 83.494l-3.488-2.115 13.38-21.963 15.782 2.826L67.3 38.824l13.95 4.503 11.026-20.106 3.58 1.955L83.21 48.24l-13.804-4.456-11.328 23.009-16.055-2.875z" transform="translate(319 199)"/>
        </g>
    </g>
</svg>
